<ttFont>
          <CharString index="0">
            rmoveto
            -201 -85 -181 -167 -125 64 -48 97 76 49 21 22 36 hvcurveto
            -10 43 rlineto
            -12 -32 -35 -6 -28 hhcurveto
            -76 -24 60 callsubr
            100 67 110 66 -51 32 -69 hvcurveto
            -26 -62 rmoveto
            34 9 -22 -25 -75 -69 -44 -104 hvcurveto
            105 20 47 61 63 hhcurveto
            return
          </CharString>
          <CharString index="1">
            rmoveto
            227 122 208 216 123 -59 90 -166 -227 -123 -204 -213 -138 61 -82 165 hvcurveto
            12 61 rmoveto
            -90 -21 62 95 95 34 263 176 87 25 -59 -92 -150 -52 -214 -159 hvcurveto
            return
          </CharString>
          <CharString index="2">
            rmoveto
            -171 -118 -134 -235 -93 47 -59 103 -64 callgsubr
            -12 callgsubr
            hvcurveto
            -112 -461 rmoveto
            -47 -12 36 55 119 30 190 117 47 11 -36 -54 -134 -33 -176 -113 hvcurveto
            return
          </CharString>
          <CharString index="3">
            -57 callgsubr
            245 15 callsubr
            22 -88 564 -68 -13 -286 64 callgsubr
            -8 -41 rlineto
            200 hlineto
            9 42 -61 19 60 117 rlineto
            27 53 rmoveto
            111 215 31 -215 rlineto
            return
          </CharString>
          <CharString index="4">
            rmoveto
            -30 -66 rlineto
            -115 hlineto
            42 -13 callgsubr
            4 -79 rlineto
            47 hlineto
            27 141 rlineto
            -433 -70 callsubr
            79 -22 -95 -487 -87 -16 callgsubr
            453 hlineto
            30 -49 callgsubr
            112 hlineto
            7 -69 rlineto
            44 -29 callsubr
            return
          </CharString>
          <CharString index="5">
            -52 callgsubr
            30 43 9 19 63 -39 callsubr
            5 67 77 15 hvcurveto
            63 -40 callsubr
            -64 -35 -37 hhcurveto
            -19 -6 -36 callsubr
            -8 10 -16 -40 -78 -14 -20 -59 -19 callgsubr
            70 -8 rlineto
            -19 -102 -50 -200 -64 vvcurveto
            -56 29 -21 44 vhcurveto
            endchar
          </CharString>
          <CharString index="6">
            rmoveto
            188 64 148 187 36 hvcurveto
            68 348 -118 -16 -52 -288 rlineto
            -78 -44 -63 -4 callsubr
            43 72 292 22 vvcurveto
            13 -9 10 -16 -40 -77 -14 -20 -60 -19 callgsubr
            70 -8 rlineto
            -19 -102 -43 -171 -63 vvcurveto
            -57 29 -21 43 70 75 39 callgsubr
            -166 -38 -39 -47 -92 hhcurveto
            -30 -21 4 10 -25 hvcurveto
            -8 71 rlineto
            -41 hlineto
            -41 -128 rlineto
            -21 54 44 -9 63 hhcurveto
            endchar
          </CharString>
          <CharString index="7">
            rmoveto
            52 260 rlineto
            81 5 81 41 67 vvcurveto
            15 -4 24 -9 18 vhcurveto
            -79 -21 callsubr
            -27 -4 -32 -5 vhcurveto
            -118 -16 -58 -318 rlineto
            -77 -44 -63 -35 -38 hhcurveto
            -19 -5 -36 callsubr
            -9 10 -16 -40 -77 -14 -20 -60 -19 callgsubr
            70 -8 rlineto
            -19 -102 -49 -200 -64 vvcurveto
            -56 29 -21 43 -42 callsubr
            vhcurveto
            0 -7 -48 -7 vvcurveto
            -26 13 -15 39 31 42 -27 callsubr
            -75 vlineto
            1 4 67 77 16 hvcurveto
            return
          </CharString>
          <CharString index="8">
            rmoveto
            110 18 40 27 97 87 27 71 rlinecurve
            2 -50 -3 -91 -6 -62 105 18 rcurveline
            117 74 140 173 220 vvcurveto
            13 -2 14 -2 13 vhcurveto
            -40 -3 -55 -13 -61 -20 8 -36 rcurveline
            56 -7 rlineto
            2 -8 2 -9 -12 vvcurveto
            -107 -57 -129 -103 -86 vhcurveto
            2 34 2 57 48 vvcurveto
            125 -10 119 -13 46 vhcurveto
            -113 -18 rlineto
            11 -44 7 -55 -31 vvcurveto
            -77 -37 -101 -113 -103 vhcurveto
            3 35 1 81 12 vvcurveto
            136 -12 165 -10 -53 -69 -17 -20 -62 vhcurveto
            8 -36 72 -8 rlineto
            0 18 -97 -174 vvcurveto
            -47 -4 -79 -5 -46 vhcurveto
            endchar
          </CharString>
          <CharString index="9">
            rmoveto
            23 31 -5 -8 13 hvcurveto
            9 -78 rlineto
            43 hlineto
            34 124 rlineto
            20 -42 -49 9 -45 hhcurveto
            -128 -75 -65 -102 -59 28 -40 48 -20 hvcurveto
            78 -35 rlineto
            41 -19 8 -18 -23 vvcurveto
            -54 -38 -24 -61 -38 -24 6 8 -17 vhcurveto
            -6 88 rlineto
            -43 hlineto
            -35 -135 rlineto
            -22 42 60 -7 45 hhcurveto
            134 81 66 117 55 -34 37 -46 21 hvcurveto
            -80 36 rlineto
            -33 15 -13 14 29 vvcurveto
            39 29 30 60 vhcurveto
            return
          </CharString>
          <CharString index="10">
            rmoveto
            28 23 -80 callgsubr
            22 -26 136 74 rlineto
            return
          </CharString>
          <CharString index="11">
            -75 callsubr
            219 hmoveto
            -61 callsubr
            -28 38 38 callsubr
            vhcurveto
            return
          </CharString>
          <CharString index="12">
            rmoveto
            14 -8 8 -13 -29 -78 -15 -20 -68 vhcurveto
            8 -36 69 -8 rlineto
            -28 -137 -50 -226 -26 vvcurveto
            -40 20 -13 41 34 28 callgsubr
            34 callgsubr
            53 267 14 vvcurveto
            return
          </CharString>
          <CharString index="13">
            -58 callgsubr
            -59 -309 rlineto
            -100 -20 -47 -91 -107 hhcurveto
            -76 -24 42 63 33 5 36 8 39 hvcurveto
            return
          </CharString>
          <CharString index="14">
            -52 callsubr
            -36 -20 -13 -30 -3 vhcurveto
            27 -25 -38 15 -53 hhcurveto
            -171 -118 -134 -235 -93 47 -59 103 -64 callgsubr
            25 -3 22 -7 20 hvcurveto
            63 14 53 37 55 vvcurveto
            -370 -482 -63 callgsubr
          </CharString>
          <CharString index="15">
            -21 -56 -286 rlineto
            -7 -38 -6 -37 -33 vvcurveto
            -97 48 -70 142 return
          </CharString>
          <CharString index="16">
            rmoveto
            -48 callgsubr
            -86 38 -44 hhcurveto
            -33 -30 -45 -56 -20 hvcurveto
            41 -16 rlineto
            0 18 32 24 vhcurveto
            36 87 -38 44 hhcurveto
            -38 callgsubr
            return
          </CharString>
          <CharString index="17">
            72 92 vvcurveto
            74 -49 51 -128 vhcurveto
            -258 -70 callsubr
            78 -22 -95 -487 -86 -16 callgsubr
            272 -26 callgsubr
            -71 22 41 209 rlineto
            25 hlineto
            48 1 -23 -249 51 hvcurveto
            -73 322 rmoveto
            -43 hlineto
            45 230 rlineto
            4 return
          </CharString>
          <CharString index="18">
            147 -9 rmoveto
            63 60 41 57 38 hvcurveto
            0 -4 -39 -11 vvcurveto
            -32 20 -16 38 34 42 7 21 55 vhcurveto
            41 -76 vlineto
            2 21 4 59 14 71 rrcurveto
            35 190 54 293 18 vvcurveto
            13 -7 9 -16 -40 -75 -15 -21 -59 27 callgsubr
            -30 -151 rlineto
            5 -20 -20 2 -26 hhcurveto
            -163 -121 -137 -235 -115 58 -33 58 hvcurveto
            return
          </CharString>
          <CharString index="19">
            rmoveto
            6 -100 rlineto
            48 hlineto
            39 145 rlineto
            17 -39 -69 13 -71 hhcurveto
            -240 -118 -196 -217 -144 63 -81 170 83 73 19 24 46 hvcurveto
            38 194 64 19 8 43 rlineto
            -249 -70 callsubr
            76 -22 -32 -164 rlineto
            -9 -27 -28 -2 -23 hhcurveto
            -105 -22 76 87 124 36 228 184 45 31 53 callgsubr
          </CharString>
          <CharString index="20">
            rmoveto
            123 15 37 225 56 132 46 49 35 16 rlinecurve
            12 -80 rlineto
            55 hlineto
            32 169 rlineto
            -106 -54 -48 -96 -51 hvcurveto
            6 38 14 61 13 vvcurveto
            15 -8 11 -16 -39 -80 -18 -19 -55 vhcurveto
            7 -35 73 -9 rlineto
            return
          </CharString>
          <CharString index="21">
            -91 -107 hhcurveto
            -76 -24 42 63 33 5 36 8 39 hvcurveto
            56 287 -39 callgsubr
            -275 hlineto
            -7 -41 75 -92 callsubr
            return
          </CharString>
          <CharString index="22">
            -83 callsubr
            -47 hlineto
            -32 48 callsubr
            65 -10 52 hhcurveto
            return
          </CharString>
          <CharString index="23">
            66 hhcurveto
            51 7 -20 -24 1 hvcurveto
            -5 -1 -7 -2 -5 vhcurveto
            49 hlineto
            4 12 3 16 13 vvcurveto
            return
          </CharString>
          <CharString index="24">
            rmoveto
            177 84 93 128 65 -34 45 -59 28 hvcurveto
            -90 callgsubr
            return
          </CharString>
          <CharString index="25">
            rmoveto
            118 16 35 173 rlineto
            101 81 144 172 212 vvcurveto
            16 -2 17 -4 14 vhcurveto
            -46 -3 -58 -16 -52 -17 8 -36 rcurveline
            57 -7 rlineto
            2 -6 3 -9 -14 vvcurveto
            -84 -29 -111 -120 -119 vhcurveto
            168 3 -38 254 -22 hhcurveto
            -40 -76 -15 -22 -65 hvcurveto
            9 -36 73 -9 29 -74 21 -205 -2 -103 rlinecurve
            -2 -59 rlineto
            return
          </CharString>
          <CharString index="26">
            22 8 41 rlineto
            -278 -67 callgsubr
            return
          </CharString>
          <CharString index="27">
            -137 -105 callsubr
            return
          </CharString>
          <CharString index="28">
            rmoveto
            19 128 rlineto
            -48 hlineto
            -38 -86 rlineto
            -9 -33 -26 -3 -26 hhcurveto
            -95 -34 53 106 164 56 191 160 38 26 -4 -8 26 hvcurveto
            3 -100 rlineto
            47 hlineto
            38 148 rlineto
            14 -41 -53 11 -75 3 callsubr
            63 -83 164 73 51 12 20 57 hvcurveto
            endchar
          </CharString>
          <CharString index="29">
            -25 callgsubr
            -7 -15 -30 -66 -72 callgsubr
            2 5 vhcurveto
            -49 hlineto
            -4 -12 -3 -50 callgsubr
            78 vhcurveto
            return
          </CharString>
          <CharString index="30">
            rmoveto
            -29 -23 85 -132 rlineto
            76 hlineto
            129 25 callgsubr
            -133 -74 rlineto
            return
          </CharString>
          <CharString index="31">
            -36 callgsubr
            -62 callgsubr
            return
          </CharString>
          <CharString index="32">
            rmoveto
            -60 callgsubr
            -28 37 21 callgsubr
            vhcurveto
            return
          </CharString>
          <CharString index="33">
            rmoveto
            -36 callgsubr
            86 22 7 41 rlineto
            -278 -70 callsubr
            77 62 callsubr
            -86 -22 rlineto
            endchar
          </CharString>
          <CharString index="34">
            557 rmoveto
            30 19 -60 159 rlineto
            -86 hlineto
            -3 -20 rlineto
            280 -158 rmoveto
            30 19 -60 159 rlineto
            -86 hlineto
            -3 -20 rlineto
            return
          </CharString>
          <CharString index="35">
            rmoveto
            121 59 callsubr
            45 38 68 41 32 hhcurveto
            16 10 -5 -21 hvcurveto
            -37 -72 -281 -33 vvcurveto
            -51 33 -10 37 35 50 11 17 38 vhcurveto
            42 -81 vlineto
            27 129 50 226 34 vvcurveto
            46 -22 16 -37 -65 -89 -49 -56 -57 vhcurveto
            return
          </CharString>
          <CharString index="36">
            122 59 callsubr
            47 40 67 40 33 hhcurveto
            18 6 -12 -15 hvcurveto
            -40 -71 -276 -35 vvcurveto
            -48 27 -13 43 37 48 11 17 37 vhcurveto
            42 -81 vlineto
            29 129 48 222 36 vvcurveto
            44 -16 21 -46 -50 -86 -38 -68 -72 vhcurveto
            return
          </CharString>
          <CharString index="37">
            hlineto
            -8 -41 return
          </CharString>
          <CharString index="38">
            rmoveto
            -46 hlineto
            -54 -93 rlineto
            -214 hlineto
            393 516 1 33 63 callsubr
            -19 -141 rlineto
            49 hlineto
            36 78 rlineto
            200 hlineto
            -393 -517 10 -33 rlineto
            416 hlineto
            return
          </CharString>
          <CharString index="39">
            rmoveto
            6 -100 rlineto
            48 hlineto
            39 145 rlineto
            17 -40 -69 13 -70 hhcurveto
            -241 -118 -196 -217 -144 64 -81 170 82 74 19 24 46 hvcurveto
            38 194 64 19 8 43 rlineto
            -249 -70 callsubr
            76 -22 -32 -164 rlineto
            -9 -27 -28 -2 -23 hhcurveto
            -105 -22 76 87 124 36 228 184 44 32 -7 -6 21 hvcurveto
            return
          </CharString>
          <CharString index="40">
            rmoveto
            29 callgsubr
            -75 -25 callsubr
            -166 hlineto
            -7 -41 73 -21 -94 -488 -82 -22 -8 -41 rlineto
            224 -26 callgsubr
            -76 22 76 392 215 -466 83 11 107 551 -39 callgsubr
            return
          </CharString>
          <CharString index="41">
            rmoveto
            -53 -61 -17 -23 -42 hvcurveto
            13 -45 rlineto
            20 40 36 7 26 hhcurveto
            38 15 -14 -25 -42 -42 -48 -88 -9 hvcurveto
            -1 -42 rlineto
            52 57 -7 -53 -69 -53 -27 -57 -22 -37 2 13 -38 hvcurveto
            -17 -51 rlineto
            -14 36 46 -4 38 hhcurveto
            112 92 43 108 45 -27 34 -50 13 hvcurveto
            52 24 48 47 56 28 callsubr
          </CharString>
          <CharString index="42">
            17 -119 -65 -17 -7 -42 rlineto
            return
          </CharString>
          <CharString index="43">
            274 hlineto
            7 41 -75 22 42 212 rlineto
            231 hlineto
            -41 -212 -83 -22 -8 -41 rlineto
            274 -26 callgsubr
            -76 22 95 488 -39 callgsubr
            -274 -58 callgsubr
            -42 -216 rlineto
            -232 hlineto
            42 216 37 callsubr
            -274 -58 callgsubr
            -95 -488 -83 -22 rlineto
            return
          </CharString>
          <CharString index="44">
            rmoveto
            34 28 callgsubr
            hvcurveto
            52 callsubr
            53 267 14 vvcurveto
            14 -8 8 -13 -29 -78 -15 -20 -68 vhcurveto
            8 -36 69 -8 rlineto
            -28 -137 -50 -226 -26 vvcurveto
            -40 20 -13 41 vhcurveto
            endchar
          </CharString>
          <CharString index="45">
            rmoveto
            76 48 21 21 37 hvcurveto
            -10 44 rlineto
            -12 -33 -35 -6 -27 hhcurveto
            -71 -29 60 callsubr
            99 67 110 66 -50 32 -69 -48 -56 -17 -23 -30 hvcurveto
            10 48 -45 11 -29 -34 rlineto
            0 -49 15 -46 -159 -122 -143 -225 -118 59 -34 67 47 58 32 83 64 vhcurveto
            -83 18 62 -33 74 hhcurveto
            -287 76 rmoveto
            -27 -18 19 60 162 54 144 105 24 15 -5 -10 18 hvcurveto
            -8 -39 -47 -246 -1 2 rrcurveto
            -36 -22 -58 -51 -35 hhcurveto
            256 217 rmoveto
            105 19 47 61 64 hhcurveto
            34 10 -22 -25 -75 -71 -44 -103 hvcurveto
            endchar
          </CharString>
          <CharString index="46">
            38 -33 -61 callgsubr
            return
          </CharString>
          <CharString index="47">
            rmoveto
            149 155 rlineto
            20 -86 vlineto
            -90 -157 rlineto
            return
          </CharString>
          <CharString index="48">
            rmoveto
            -23 -152 rlineto
            46 hlineto
            36 90 rlineto
            116 hlineto
            -95 -488 -91 -16 callgsubr
            289 hlineto
            7 41 -82 22 95 488 rlineto
            115 -90 48 hlineto
            35 152 rlineto
            return
          </CharString>
          <CharString index="49">
            650 rmoveto
            38 -32 30 -36 -37 -34 -30 -38 -37 34 -29 37 49 callgsubr
            vhcurveto
            218 hmoveto
            38 -33 -7 callgsubr
            33 29 37 vhcurveto
            return
          </CharString>
          <CharString index="50">
            rmoveto
            20 29 -154 131 -89 -32 -3 -21 rlineto
            return
          </CharString>
          <CharString index="51">
            rmoveto
            19 128 rlineto
            -48 hlineto
            -38 -86 rlineto
            -9 -33 -26 -3 -26 hhcurveto
            -95 -33 53 106 164 56 191 159 39 26 -4 -8 26 hvcurveto
            2 -100 rlineto
            47 hlineto
            38 148 rlineto
            14 -41 -52 11 -76 -17 callgsubr
            return
          </CharString>
          <CharString index="52">
            hhcurveto
            -33 -27 -45 -55 -23 hvcurveto
            41 -17 rlineto
            0 19 33 23 vhcurveto
            return
          </CharString>
          <CharString index="53">
            27 -183 vmoveto
            108 17 12 134 2 17 0 27 -3 19 rlinecurve
            3 1 rlineto
            -21 6 21 -20 27 hhcurveto
            58 42 33 68 37 hvcurveto
            -2 -13 -8 -31 -10 vvcurveto
            -27 11 -19 36 29 44 9 19 60 vhcurveto
            41 -74 vlineto
            3 13 4 48 13 68 62 323 rcurveline
            -114 -16 -37 -221 rlineto
            -105 -19 -54 -101 -59 hhcurveto
            -25 -14 13 41 hvcurveto
            59 68 285 20 vvcurveto
            14 -6 9 -16 -37 -74 -14 -20 -55 vhcurveto
            7 -35 67 -7 rlineto
            endchar
          </CharString>
          <CharString index="54">
            -13 callsubr
            -41 -93 rlineto
            -160 hlineto
            95 486 85 -8 callsubr
            return
          </CharString>
          <CharString index="55">
            rmoveto
            -83 callgsubr
            return
          </CharString>
          <CharString index="56">
            23 callgsubr
            -24 21 42 vvcurveto
            68 50 31 72 30 31 -6 -7 16 vhcurveto
            8 -92 rlineto
            46 hlineto
            33 138 rlineto
            18 -48 -53 12 -54 hhcurveto
            -157 -81 -81 -126 -78 56 -43 32 -15 hvcurveto
            71 -35 rlineto
            46 -20 19 -1 callgsubr
          </CharString>
          <CharString index="57">
            219 rlineto
            169 -44 callgsubr
            return
          </CharString>
          <CharString index="58">
            rmoveto
            -36 -22 76 -35 callsubr
            return
          </CharString>
          <CharString index="59">
            rmoveto
            67 hlineto
            27 83 rlineto
            11 hlineto
            227 122 208 216 103 -42 81 -113 23 hvcurveto
            29 88 rlineto
            -67 hlineto
            -27 -82 rlineto
            -5 hlineto
            -227 -123 -204 -213 -114 42 -76 109 -22 hvcurveto
            22 70 rmoveto
            -35 24 -11 51 65 vvcurveto
            129 51 227 157 2 vhcurveto
            -100 -515 rmoveto
            162 500 rlineto
            39 -22 13 -50 -64 vvcurveto
            -170 -61 -194 -153 vhcurveto
            endchar
          </CharString>
          <CharString index="60">
            209 598 76 rmoveto
            -75 -3 rlineto
            84 43 58 124 90 vvcurveto
            155 -80 142 -212 -198 -104 -130 -174 -139 76 -78 66 -34 vhcurveto
            -75 4 rlineto
            -46 hlineto
            -20 76 rlineto
            -45 -152 269 51 hlineto
            -53 56 -47 78 126 vvcurveto
            123 29 131 140 146 29 -149 -98 -153 -49 -65 -49 -49 vhcurveto
            -51 268 152 -44 vlineto
            -21 -76 rlineto
            endchar
          </CharString>
          <CharString index="61">
            rmoveto
            14 -7 8 -13 -29 -78 -15 -20 -69 vhcurveto
            8 -36 70 6 callgsubr
            33 46 9 19 50 34 callgsubr
            54 267 14 vvcurveto
            return
          </CharString>
          <CharString index="62">
            rmoveto
            37 33 31 37 38 -33 31 -37 -37 -33 -31 -38 -37 33 -31 37 hvcurveto
            return
          </CharString>
          <CharString index="63">
            557 rmoveto
            150 158 rlineto
            20 -86 vlineto
            -91 -159 rlineto
            return
          </CharString>
          <CharString index="64">
            -26 202 -13 rmoveto
            219 43 165 92 77 -37 61 -104 -70 -44 -27 -27 -33 hvcurveto
            41 127 95 94 124 37 -7 47 rcurveline
            -199 -33 -195 -190 -245 vvcurveto
            -95 37 -83 130 vhcurveto
            23 63 rmoveto
            -60 -15 45 72 22 3 31 7 30 hvcurveto
            28 27 45 37 53 hhcurveto
            52 11 -36 -47 -99 -36 -83 -87 hvcurveto
            endchar
          </CharString>
          <CharString index="65">
            70 74 29 67 54 return
          </CharString>
          <CharString index="66">
            rmoveto
            -53 -61 -18 -22 -41 hvcurveto
            12 -46 rlineto
            21 41 35 7 26 hhcurveto
            38 15 -14 -25 -42 -42 -48 -87 -9 hvcurveto
            -2 -43 rlineto
            52 58 -7 -52 -70 -54 -26 -57 -22 -37 2 13 -38 hvcurveto
            -17 35 callsubr
            39 hhcurveto
            110 93 43 107 45 -27 34 -49 14 hvcurveto
            52 23 47 47 57 24 callsubr
            return
          </CharString>
          <CharString index="67">
            309 -118 -16 -58 -318 rlineto
            -77 -44 return
          </CharString>
          <CharString index="68">
            vhcurveto
            41 -76 vlineto
            1 return
          </CharString>
          <CharString index="69">
            -32 callgsubr
            -10 1 5 -10 vhcurveto
            -15 -32 rlineto
            -7 16 17 -6 36 hhcurveto
            60 78 43 71 35 -27 26 return
          </CharString>
          <CharString index="70">
            hlineto
            -70 -101 -106 -30 9 -40 rlineto
            77 hlineto
            -26 -128 -48 -241 -26 vvcurveto
            return
          </CharString>
          <CharString index="71">
            12 23 hvcurveto
            42 78 322 22 vvcurveto
            13 return
          </CharString>
          <CharString index="72">
            -143 rlineto
            76 hlineto
            123 137 -28 28 return
          </CharString>
          <CharString index="73">
            -38 callgsubr
            -48 callgsubr
            -86 38 -44 hhcurveto
            -33 -30 -45 -56 -20 hvcurveto
            41 -16 rlineto
            0 18 32 24 vhcurveto
            return
          </CharString>
          <CharString index="74">
            289 hlineto
            8 36 callgsubr
            200 305 -22 callgsubr
            return
          </CharString>
          <CharString index="75">
            3 15 hhcurveto
            58 24 -23 -51 -97 -54 -66 -78 hvcurveto
            return
          </CharString>
          <CharString index="76">
            -81 132 rlineto
            return
          </CharString>
          <CharString index="77">
            rmoveto
            41 19 -17 -31 25 callsubr
            6 -42 rlineto
            309 hlineto
            30 116 -45 1 -38 -55 -159 -7 126 98 rlineto
            96 75 41 56 66 vvcurveto
            60 -42 31 -83 -56 -62 -18 -22 -40 vhcurveto
            18 -46 rlineto
            18 43 26 6 34 hhcurveto
            return
          </CharString>
          <CharString index="78">
            hlineto
            36 187 rlineto
            return
          </CharString>
          <CharString index="79">
            41 -62 22 -40 185 1 28 -56 21 rlinecurve
            return
          </CharString>
          <CharString index="80">
            9 19 63 vhcurveto
            41 return
          </CharString>
          <CharString index="81">
            48 callgsubr
            -77 38 -43 -18 callgsubr
            return
          </CharString>
          <CharString index="82">
            -394 -212 456 rlineto
            return
          </CharString>
          <CharString index="83">
            -149 5 -42 rlineto
            310 hlineto
            30 116 rlineto
            -45 hlineto
            -38 -54 -159 -7 127 98 rlineto
            96 75 40 56 67 vvcurveto
            59 -42 31 -83 -56 -62 -18 -22 -40 vhcurveto
            19 -46 rlineto
            17 42 26 7 34 hhcurveto
            endchar
          </CharString>
          <CharString index="84">
            34 189 59 313 6 vvcurveto
            return
          </CharString>
          <CharString index="85">
            -220 rmoveto
            59 79 33 callsubr
            26 52 rlineto
            -40 hlineto
            -42 -78 -32 callgsubr
            -11 1 5 -9 vhcurveto
            -16 52 callgsubr
            36 hhcurveto
            endchar
          </CharString>
          <CharString index="86">
            -14 -6 -13 rlineto
            3 -13 2 -16 -12 vvcurveto
            -44 return
          </CharString>
          <CharString index="87">
            30 157 rlineto
            return
          </CharString>
          <CharString index="88">
            584 rmoveto
            49 callgsubr
            38 -32 30 -36 -37 -34 -30 -38 -37 34 -29 37 hvcurveto
            218 hmoveto
            return
          </CharString>
          <CharString index="89">
            -45 rmoveto
            75 hlineto
            221 679 rlineto
            return
          </CharString>
          <CharString index="90">
            -13 callsubr
            -42 -93 rlineto
            return
          </CharString>
          <CharString index="91">
            rmoveto
            111 215 31 -215 rlineto
            endchar
          </CharString>
          <CharString index="92">
            -365 rlineto
            94 hlineto
            84 433 -215 return
          </CharString>
          <CharString index="93">
            16 14 callsubr
            return
          </CharString>
          <CharString index="94">
            -20 callsubr
            -47 hlineto
            return
          </CharString>
          <CharString index="95">
            hmoveto
            -41 hlineto
            -80 -59 -33 -61 -42 37 callgsubr
            71 41 58 0 vhcurveto
            55 callsubr
            15 28 40 38 65 35 32 hvcurveto
            endchar
          </CharString>
          <CharString index="96">
            -74 -97 -17 hvcurveto
            -13 -68 -99 -27 10 -40 rlineto
            74 hlineto
            -74 -442 rlineto
            -80 -15 -28 -20 -66 hhcurveto
            -26 -26 5 7 -21 hvcurveto
            -11 -47 rlineto
            -9 17 44 -20 59 hhcurveto
            return
          </CharString>
          <CharString index="97">
            vhcurveto
            42 -77 vlineto
            -67 195 rlineto
            130 42 49 76 71 vvcurveto
            45 -25 22 -46 -81 return
          </CharString>
          <CharString index="98">
            rmoveto
            237 405 -12 43 rlineto
            -294 hlineto
            -11 -86 rlineto
            return
          </CharString>
          <CharString index="99">
            -81 callsubr
            -7 -41 rlineto
            return
          </CharString>
          <CharString index="100">
            -74 callgsubr
            59 311 -55 9 -29 -35 rlineto
            0 -48 15 -47 -159 -121 -142 -225 -118 58 -34 68 return
          </CharString>
          <CharString index="101">
            24 callgsubr
            -35 -176 rlineto
            endchar
          </CharString>
          <CharString index="102">
            654 rmoveto
            -131 -89 -99 -173 -69 37 -44 81 132 89 100 172 67 -35 46 -84 hvcurveto
            -85 -338 rmoveto
            -33 -6 27 39 87 return
          </CharString>
          <CharString index="103">
            -35 -37 hhcurveto
            -19 -6 12 23 hvcurveto
            return
          </CharString>
          <CharString index="104">
            23 32 hmoveto
            508 38 hlineto
            -218 573 rlineto
            -70 hlineto
            -129 -555 rmoveto
            145 420 143 -400 rlineto
            -20 vlineto
            endchar
          </CharString>
          <CharString index="105">
            -82 -148 -156 -107 58 -39 77 hvcurveto
            122 -169 rmoveto
            73 hlineto
            250 613 rlineto
            -73 hlineto
            -356 -364 rmoveto
            -40 return
          </CharString>
          <CharString index="106">
            674 63 callgsubr
            233 hlineto
            10 70 rlineto
            return
          </CharString>
          <CharString index="107">
            -154 131 -90 -32 return
          </CharString>
          <CharString index="108">
            -22 callgsubr
            endchar
          </CharString>
          <CharString index="109">
            62 hhcurveto
            49 44 35 70 39 hvcurveto
            -45 25 rlineto
            -41 -26 -19 -15 -37 -59 -61 55 -65 hhcurveto
            -45 -41 -30 -71 -35 hvcurveto
            return
          </CharString>
          <CharString index="110">
            -17 callgsubr
            -141 return
          </CharString>
          <CharString index="111">
            198 51 160 86 17 return
          </CharString>
          <CharString index="112">
            vhcurveto
            -37 -87 38 -43 hhcurveto
            -33 -30 -45 -56 -20 hvcurveto
            41 -16 rlineto
            0 18 32 23 vhcurveto
            37 87 -38 44 hhcurveto
            return
          </CharString>
          <CharString index="113">
            rmoveto
            223 107 rlineto
            21 vlineto
            -91 32 -156 -131 rlineto
            return
          </CharString>
          <CharString index="114">
            134 109 110 133 135 -109 109 -134 -134 -109 -109 -135 return
          </CharString>
          <CharString index="115">
            96 vhcurveto
            17 53 rmoveto
            -36 -13 24 40 15 return
          </CharString>
          <CharString index="116">
            -77 38 -44 hhcurveto
            -33 -26 -45 -55 -23 hvcurveto
            41 -17 rlineto
            0 18 33 24 vhcurveto
            36 78 -38 44 hhcurveto
            return
          </CharString>
          <CharString index="117">
            -98 -167 -26 -132 -40 -59 27 -48 84 28 32 return
          </CharString>
          <CharString index="118">
            48 hhcurveto
            128 78 71 98 50 -30 57 -155 1 hvcurveto
            28 106 rlineto
            179 hlineto
            endchar
          </CharString>
          <CharString index="119">
            733 rmoveto
            -36 -22 77 -143 rlineto
            76 hlineto
            122 137 -27 28 -121 -82 rlineto
            return
          </CharString>
          <CharString index="120">
            567 rmoveto
            34 21 -70 142 rlineto
            -76 57 callgsubr
            return
          </CharString>
          <CharString index="121">
            42 callgsubr
            -24 vhcurveto
            return
          </CharString>
          <CharString index="122">
            -26 callgsubr
            -63 return
          </CharString>
          <CharString index="123">
            vvcurveto
            11 -5 8 -13 -28 -63 -13 -14 -41 vhcurveto
            5 -28 17 -2 19 -2 17 -1 rlinecurve
            return
          </CharString>
          <CharString index="124">
            10 -8 -21 -55 -52 -49 -116 -31 hvcurveto
            -5 -16 rlineto
            0 53 -263 52 37 return
          </CharString>
          <CharString index="125">
            -45 rmoveto
            75 hlineto
            220 679 rlineto
            -75 hlineto
            return
          </CharString>
          <CharString index="126">
            36 79 -38 43 hhcurveto
            34 25 41 callsubr
            return
          </CharString>
          <CharString index="127">
            hlineto
            29 callgsubr
            return
          </CharString>
          <CharString index="128">
            rmoveto
            90 hlineto
            16 85 rlineto
            58 hlineto
            11 56 rlineto
            -58 hlineto
            57 290 -71 8 return
          </CharString>
          <CharString index="129">
            rmoveto
            35 28 28 33 35 -28 27 -35 -34 -28 -27 -35 -33 28 -28 34 hvcurveto
            return
          </CharString>
          <CharString index="130">
            21 vlineto
            -91 32 -155 -131 return
          </CharString>
          <CharString index="131">
            vvcurveto
            52 -49 26 -64 vhcurveto
            return
          </CharString>
          <CharString index="132">
            -50 -41 -49 -49 -41 hvcurveto
            -174 -149 return
          </CharString>
          <CharString index="133">
            58 callgsubr
            -38 -86 38 return
          </CharString>
          <CharString index="134">
            65 -34 45 -59 28 return
          </CharString>
          <CharString index="135">
            24 callsubr
            endchar
          </CharString>
          <CharString index="136">
            657 42 callsubr
            return
          </CharString>
          <CharString index="137">
            675 rmoveto
            -134 -222 19 -23 98 20 56 217 rlineto
            return
          </CharString>
          <CharString index="138">
            -19 39 callsubr
            return
          </CharString>
          <CharString index="139">
            189 527 rmoveto
            35 hlineto
            43 190 -63 17 rlineto
            -30 hlineto
            return
          </CharString>
          <CharString index="140">
            43 71 35 -27 26 -63 hvcurveto
            return
          </CharString>
          <CharString index="141">
            -74 -42 -35 -11 -22 -30 hvcurveto
            return
          </CharString>
          <CharString index="142">
            -52 rlineto
            -13 36 46 -4 return
          </CharString>
          <CharString index="143">
            33 31 37 38 -34 32 return
          </CharString>
          <CharString index="144">
            84 21 7 41 rlineto
            return
          </CharString>
          <CharString index="145">
            35 33 28 37 return
          </CharString>
          <CharString index="146">
            -178 rmoveto
            114 53 57 100 16 hvcurveto
            74 449 rlineto
            return
          </CharString>
          <CharString index="147">
            49 32 18 -19 -42 -22 -1 -31 -8 -29 hvcurveto
            -15 -23 -25 return
          </CharString>
          <CharString index="148">
            44 56 23 hvcurveto
            return
          </CharString>
          <CharString index="149">
            rmoveto
            99 32 64 66 14 hvcurveto
            -47 hlineto
            -31 -7 -14 -30 return
          </CharString>
          <CharString index="150">
            700 rmoveto
            -10 -232 rlineto
            35 hlineto
            79 232 rlineto
            return
          </CharString>
          <CharString index="151">
            169 rmoveto
            126 94 123 181 107 -57 39 return
          </CharString>
          <CharString index="152">
            -84 -115 -155 -87 47 -27 51 33 45 23 45 return
          </CharString>
          <CharString index="153">
            hlineto
            -393 -517 10 -33 rlineto
            416 hlineto
            endchar
          </CharString>
          <CharString index="154">
            rrcurveto
            155 176 rmoveto
            -39 -14 return
          </CharString>
          <CharString index="155">
            -133 rlineto
            -21 47 return
          </CharString>
          <CharString index="156">
            683 rmoveto
            253 hlineto
            10 70 rlineto
            -253 hlineto
            return
          </CharString>
          <CharString index="157">
            -127 0 vvcurveto
            -38 -20 -41 -31 -22 hhcurveto
            endchar
          </CharString>
          <CharString index="158">
            53 -16 callsubr
          </CharString>
          <CharString index="159">
            42 -78 vlineto
            31 148 return
          </CharString>
          <CharString index="160">
            -36 64 hvcurveto
            7 46 rmoveto
            -27 -8 14 21 41 return
          </CharString>
          <CharString index="161">
            -462 rmoveto
            94 hlineto
            84 433 -215 -32 return
          </CharString>
          <CharString index="162">
            60 callgsubr
            -21 -19 -7 -20 hhcurveto
            -28 -14 return
          </CharString>
          <CharString index="163">
            60 callgsubr
            -21 -20 -7 -19 hhcurveto
            -28 -14 return
          </CharString>
          <CharString index="164">
            -158 -28 -8 -43 rlineto
            414 hlineto
            endchar
          </CharString>
          <CharString index="165">
            rmoveto
            404 70 -404 hlineto
            return
          </CharString>
          <CharString index="166">
            15 60 337 rlineto
            return
          </CharString>
          <CharString index="167">
            34 75 25 1 18 4 26 hvcurveto
            184 return
          </CharString>
          <CharString index="168">
            vvcurveto
            -108 58 -40 78 vhcurveto
            15 80 rmoveto
            return
          </CharString>
          <CharString index="169">
            -22 -94 -487 return
          </CharString>
          <CharString index="170">
            rlineto
            -417 hlineto
            return
          </CharString>
        <CharString name=".notdef">
          -347 endchar
        </CharString>
        <CharString name="A">
          26 340 178 -104 callsubr
          endchar
        </CharString>
        <CharString name="AE">
          154 418 313 -54 callgsubr
        </CharString>
        <CharString name="AEacute">
          154 386 640 -98 callgsubr
          55 -356 -54 callgsubr
        </CharString>
        <CharString name="Aacute">
          40 274 640 7 callgsubr
          -296 -669 -84 callgsubr
        </CharString>
        <CharString name="Abreve">
          40 352 29 callsubr
          -67 hhcurveto
          -51 -7 10 callgsubr
          -397 -657 -84 callgsubr
        </CharString>
        <CharString name="Acircumflex">
          40 472 643 rmoveto
          28 23 -80 callgsubr
          22 -26 136 73 rlineto
          -29 -538 -57 callgsubr
          244 -26 callgsubr
          -62 22 -88 564 -68 -13 -287 64 callgsubr
          -28 callgsubr
          200 hlineto
          9 42 -62 19 60 117 rlineto
          28 51 callsubr
        </CharString>
        <CharString name="Adieresis">
          40 259 -42 callgsubr
          -523 -656 -84 callgsubr
        </CharString>
        <CharString name="Agrave">
          40 438 56 callgsubr
          -2 -21 rlineto
          -258 -747 -84 callgsubr
        </CharString>
        <CharString name="Amacron">
          40 228 49 callsubr
          -283 -753 -84 callgsubr
        </CharString>
        <CharString name="Aogonek">
          40 302 -21 callgsubr
          -28 -13 15 31 52 56 82 56 hvcurveto
          124 15 callsubr
          21 -83 564 -70 -13 -291 -551 -70 -21 -28 callgsubr
          200 hlineto
          9 42 -62 19 63 118 rlineto
          176 hlineto
          14 -108 rlineto
          1 -8 1 -7 -6 -46 -144 -57 -109 37 callgsubr
          vhcurveto
          -109 469 rmoveto
          112 213 28 -213 rlineto
          endchar
        </CharString>
        <CharString name="Aring">
          40 356 631 rmoveto
          74 51 47 65 42 -27 34 -63 -88 -40 -54 -63 -43 33 -28 60 hvcurveto
          7 43 rmoveto
          -28 -6 14 20 31 10 37 41 24 11 -14 -20 -31 -10 -37 -42 hvcurveto
          -408 -674 -84 callgsubr
        </CharString>
        <CharString name="Aringacute">
          26 358 820 -98 callgsubr
          21 -218 -65 callgsubr
          -23 -496 -104 callsubr
          endchar
        </CharString>
        <CharString name="Atilde">
          40 535 760 rmoveto
          -40 17 14 callsubr
          -38 -86 38 -44 hhcurveto
          -33 -29 -46 -56 -21 hvcurveto
          41 -16 rlineto
          0 19 33 23 vhcurveto
          36 88 -38 43 hhcurveto
          34 26 45 55 23 hvcurveto
          -195 -582 -57 callgsubr
          244 -26 callgsubr
          -62 22 -88 564 -68 -13 -287 64 callgsubr
          -28 callgsubr
          200 hlineto
          9 42 -62 19 60 117 rlineto
          28 51 callsubr
        </CharString>
        <CharString name="B">
          22 371 324 rmoveto
          90 16 73 61 96 vvcurveto
          69 -53 47 -126 vhcurveto
          -251 -67 callgsubr
          -7 -41 rlineto
          245 hlineto
          161 102 84 116 65 -39 43 -84 16 hvcurveto
          -90 17 rmoveto
          -33 hlineto
          42 212 rlineto
          2 7 18 3 23 hhcurveto
          48 29 -21 -49 -112 -77 -35 -57 hvcurveto
          -88 -279 rmoveto
          46 231 rlineto
          29 hlineto
          64 42 -30 -61 -104 -66 -44 -66 -16 -19 3 5 -14 hvcurveto
          endchar
        </CharString>
        <CharString name="C">
          -9 444 22 -79 callsubr
        </CharString>
        <CharString name="Cacute">
          -8 300 640 -98 callgsubr
          162 -647 -56 callsubr
          -141 64 -83 164 73 51 12 20 56 hvcurveto
          endchar
        </CharString>
        <CharString name="Cacute.loclPLK">
          -9 364 637 -60 callsubr
          107 -633 -79 callsubr
        </CharString>
        <CharString name="Ccaron">
          -8 283 798 rmoveto
          -29 -23 84 -132 rlineto
          77 hlineto
          128 25 callgsubr
          -132 -74 rlineto
          50 -703 -56 callsubr
          -141 64 -83 164 73 51 12 20 56 hvcurveto
          endchar
        </CharString>
        <CharString name="Ccedilla">
          -8 439 22 -56 callsubr
          -130 54 -81 138 -11 hvcurveto
          -33 -63 3 -15 rlineto
          42 -1 14 -17 -19 vvcurveto
          -35 -36 -23 -34 -15 -11 1 5 -9 vhcurveto
          -16 52 callgsubr
          35 hhcurveto
          60 79 33 callsubr
          18 35 70 1 50 11 55 20 rlinecurve
          endchar
        </CharString>
        <CharString name="Ccircumflex">
          -9 507 643 -97 callsubr
          40 -695 -79 callsubr
        </CharString>
        <CharString name="Cdotaccent">
          -9 479 -47 callgsubr
          -35 -697 -79 callsubr
        </CharString>
        <CharString name="D">
          104 -12 hmoveto
          -76 callgsubr
          endchar
        </CharString>
        <CharString name="Dcaron">
          105 329 643 rmoveto
          76 hlineto
          129 25 callgsubr
          -132 -74 -106 73 -29 -23 rlineto
          -255 -775 rmoveto
          275 hlineto
          232 120 197 206 128 -76 82 -169 hvcurveto
          -264 -70 callsubr
          78 -22 -95 -487 44 callgsubr
          94 485 45 callgsubr
          -62 -195 -151 hvcurveto
          endchar
        </CharString>
        <CharString name="Dcroat">
          107 -8 hmoveto
          275 hlineto
          232 120 197 206 128 -76 82 -169 hvcurveto
          -264 -70 callsubr
          78 -22 -44 -30 callgsubr
        </CharString>
        <CharString name="E">
          3 395 398 -103 callsubr
          endchar
        </CharString>
        <CharString name="Eacute">
          7 276 640 -98 callgsubr
          145 -271 -96 callgsubr
        </CharString>
        <CharString name="Ebreve">
          3 342 657 -99 callgsubr
          53 -259 -103 callsubr
          endchar
        </CharString>
        <CharString name="Ecaron">
          7 255 798 rmoveto
          -29 -23 84 -132 rlineto
          76 hlineto
          129 25 callgsubr
          -133 -74 rlineto
          38 -327 -96 callgsubr
        </CharString>
        <CharString name="Ecircumflex">
          7 459 643 rmoveto
          29 23 -81 30 callgsubr
          42 -319 -96 callgsubr
        </CharString>
        <CharString name="Edieresis">
          7 310 721 rmoveto
          38 -32 30 -36 -37 -34 -30 -38 -37 34 -28 37 36 32 28 37 vhcurveto
          218 hmoveto
          -61 callsubr
          -28 38 38 callsubr
          vhcurveto
          -130 -323 -96 callgsubr
        </CharString>
        <CharString name="Edotaccent">
          7 430 719 rmoveto
          40 -34 35 -40 -40 -37 -35 -40 -41 37 -31 40 40 34 31 41 vhcurveto
          -32 -321 -96 callgsubr
        </CharString>
        <CharString name="Egrave">
          7 345 677 rmoveto
          90 -14 -93 91 -118 24 -29 -25 rlineto
          203 -355 -96 callgsubr
        </CharString>
        <CharString name="Emacron">
          7 237 753 rmoveto
          -9 -70 rlineto
          252 hlineto
          10 70 rlineto
          -92 -355 -96 callgsubr
        </CharString>
        <CharString name="Eng">
          141 490 613 rmoveto
          -8 -41 76 -21 -76 -25 callsubr
          -165 -70 callsubr
          74 -21 -94 -488 -82 -22 -8 -41 rlineto
          224 -26 callgsubr
          -76 22 75 392 192 -416 rlineto
          -102 -11 -31 -50 -68 hhcurveto
          -24 -30 4 10 -24 hvcurveto
          -14 -47 rlineto
          -16 30 44 -16 45 hhcurveto
          101 67 54 187 33 hvcurveto
          95 488 37 callsubr
          endchar
        </CharString>
        <CharString name="Eogonek">
          7 376 -236 rmoveto
          71 41 58 0 hvcurveto
          56 callsubr
          15 28 40 40 65 36 32 hvcurveto
          29 -49 callgsubr
          113 hlineto
          6 -69 rlineto
          45 -29 callsubr
          -44 hlineto
          -31 -66 rlineto
          -115 hlineto
          43 -50 callsubr
          -434 -70 callsubr
          79 62 callsubr
          -88 -16 callgsubr
          410 hlineto
          -81 -59 -32 -61 -42 vvcurveto
          -38 21 -36 68 vhcurveto
          endchar
        </CharString>
        <CharString name="Eth">
          107 -10 hmoveto
          275 hlineto
          231 120 197 206 128 -75 82 -169 hvcurveto
          -264 -70 callsubr
          77 -22 -43 -30 callgsubr
        </CharString>
        <CharString name="Euro">
          -26 273 -5 rmoveto
          52 39 8 15 41 hvcurveto
          1 50 rlineto
          -7 -34 -33 -6 -28 hhcurveto
          -93 -28 55 77 8 0 9 1 10 hvcurveto
          164 hlineto
          18 52 rlineto
          -177 hlineto
          12 64 rlineto
          170 hlineto
          18 53 rlineto
          -175 hlineto
          146 41 59 30 61 hhcurveto
          25 15 -3 -6 17 hvcurveto
          4 -86 rlineto
          39 hlineto
          38 129 rlineto
          16 -39 -51 12 -52 hhcurveto
          -100 -108 -47 -191 -57 hvcurveto
          -73 hlineto
          -18 -53 rlineto
          77 hlineto
          -7 -32 -3 -18 -2 -14 rrcurveto
          -69 hlineto
          -18 -52 rlineto
          82 hlineto
          -1 -12 0 -12 -10 vvcurveto
          -162 93 -23 99 vhcurveto
          endchar
        </CharString>
        <CharString name="F">
          -29 542 613 rmoveto
          -436 -70 callsubr
          79 -22 -95 -487 -87 -16 callgsubr
          297 hlineto
          8 42 -95 22 39 201 rlineto
          116 hlineto
          5 -69 rlineto
          44 hlineto
          37 188 rlineto
          -45 hlineto
          -30 -66 rlineto
          -117 hlineto
          45 233 rlineto
          172 hlineto
          4 -79 rlineto
          48 hlineto
          endchar
        </CharString>
        <CharString name="G">
          60 480 553 -88 callsubr
        </CharString>
        <CharString name="G_tilde.loclGUA">
          58 555 761 -91 callsubr
          -78 -208 -68 callsubr
          endchar
        </CharString>
        <CharString name="Gbreve">
          58 380 29 callsubr
          -66 hhcurveto
          -51 -8 20 24 -1 hvcurveto
          5 1 7 2 -31 callgsubr
          -4 -50 callgsubr
          78 vhcurveto
          97 -104 -68 callsubr
          endchar
        </CharString>
        <CharString name="Gcaron">
          60 276 798 -77 callsubr
          98 -172 -88 callsubr
        </CharString>
        <CharString name="Gcircumflex">
          60 491 643 -97 callsubr
          92 -164 -88 callsubr
        </CharString>
        <CharString name="Gcommaaccent">
          58 477 553 -68 callsubr
          -259 -784 -43 callgsubr
        </CharString>
        <CharString name="Gdotaccent">
          60 463 -47 callgsubr
          17 -166 -88 callsubr
        </CharString>
        <CharString name="H">
          159 -14 hmoveto
          -64 callsubr
          endchar
        </CharString>
        <CharString name="Hbar">
          159 717 572 rmoveto
          8 41 rlineto
          -274 -58 callgsubr
          -21 -108 rlineto
          -232 hlineto
          21 108 37 callsubr
          -274 -58 callgsubr
          -21 -108 rlineto
          -76 hlineto
          -11 -52 rlineto
          77 hlineto
          -64 -328 -83 -22 -8 -41 rlineto
          274 hlineto
          7 41 -75 22 35 181 rlineto
          232 hlineto
          -35 -181 -83 -22 -8 -41 rlineto
          274 -26 callgsubr
          -76 22 64 328 rlineto
          75 hlineto
          11 52 rlineto
          -76 hlineto
          21 108 rlineto
          -163 -247 rmoveto
          -232 hlineto
          17 87 rlineto
          232 hlineto
          endchar
        </CharString>
        <CharString name="Hcircumflex">
          159 541 643 -97 callsubr
          -452 -717 rmoveto
          -64 callsubr
          endchar
        </CharString>
        <CharString name="I">
          -183 -12 hmoveto
          -76 callsubr
          endchar
        </CharString>
        <CharString name="IJ">
          151 -12 hmoveto
          -76 callsubr
          361 -191 -79 callgsubr
        </CharString>
        <CharString name="Iacute">
          -175 173 640 -98 callgsubr
          -160 -669 -74 callsubr
        </CharString>
        <CharString name="Iacute_J.loclNLD">
          151 217 640 -98 callgsubr
          364 -29 -98 callgsubr
          -547 -669 rmoveto
          -76 callsubr
          361 -191 -79 callgsubr
        </CharString>
        <CharString name="Ibreve">
          -183 249 657 -99 callgsubr
          -261 -657 rmoveto
          -76 callsubr
          endchar
        </CharString>
        <CharString name="Icircumflex">
          -175 134 643 rmoveto
          136 74 103 -74 29 23 -31 callsubr
          -77 hlineto
          -131 -129 rlineto
          -123 -669 -74 callsubr
        </CharString>
        <CharString name="Idieresis">
          -175 157 656 rmoveto
          21 callgsubr
          -60 callgsubr
          -28 37 hvcurveto
          219 hmoveto
          38 callsubr
          -61 callsubr
          -28 38 hvcurveto
          -386 -656 -74 callsubr
        </CharString>
        <CharString name="Idotaccent">
          -175 266 647 rmoveto
          40 34 31 41 40 -34 35 -40 -40 -37 -35 -40 -41 37 -31 40 hvcurveto
          -276 -647 -74 callsubr
        </CharString>
        <CharString name="Igrave">
          -175 349 56 callgsubr
          -2 -21 rlineto
          -134 -747 -74 callsubr
        </CharString>
        <CharString name="Imacron">
          -175 145 685 rmoveto
          246 hlineto
          10 70 rlineto
          -246 hlineto
          -165 -755 -74 callsubr
        </CharString>
        <CharString name="Iogonek">
          -175 146 -236 rmoveto
          72 40 58 0 hvcurveto
          55 callsubr
          17 28 58 66 64 64 13 hvcurveto
          8 41 -78 22 95 487 86 22 7 41 rlineto
          -278 -70 callsubr
          77 62 callsubr
          -86 -16 callgsubr
          186 hlineto
          -75 -44 -44 -65 -51 vvcurveto
          -38 22 -38 67 vhcurveto
          endchar
        </CharString>
        <CharString name="Itilde">
          -175 344 660 rmoveto
          34 25 46 55 23 hvcurveto
          -39 26 callsubr
          -44 hhcurveto
          -33 -30 -45 -56 -20 hvcurveto
          41 -16 rlineto
          0 18 32 24 vhcurveto
          36 88 -38 43 hhcurveto
          -354 -660 -74 callsubr
        </CharString>
        <CharString name="J">
          -196 9 -150 -79 callgsubr
        </CharString>
        <CharString name="Jcircumflex">
          -196 363 643 -97 callsubr
          -251 -867 -79 callgsubr
        </CharString>
        <CharString name="K">
          39 538 hmoveto
          7 41 -77 25 -132 271 225 215 70 21 7 40 rlineto
          -205 -70 callsubr
          52 -17 -228 -216 42 211 79 -6 callgsubr
          endchar
        </CharString>
        <CharString name="Kcommaaccent">
          41 540 hmoveto
          7 41 -77 25 -133 271 226 215 70 21 7 40 rlineto
          -206 -70 callsubr
          53 -17 -228 -216 41 211 80 -6 callgsubr
          -154 -231 -6 callsubr
        </CharString>
        <CharString name="L">
          -69 414 hmoveto
          -53 callsubr
          endchar
        </CharString>
        <CharString name="Lacute">
          -64 170 640 -98 callgsubr
          269 -669 rmoveto
          -37 callgsubr
          endchar
        </CharString>
        <CharString name="Lcaron">
          -64 158 798 -77 callsubr
          152 -725 rmoveto
          -37 callgsubr
          endchar
        </CharString>
        <CharString name="Lcommaaccent">
          -64 416 hmoveto
          -37 callgsubr
          179 -231 -43 callgsubr
        </CharString>
        <CharString name="Ldot">
          -69 414 hmoveto
          -53 callsubr
          506 420 -9 callgsubr
        </CharString>
        <CharString name="Lslash">
          -67 416 hmoveto
          -17 callsubr
          -159 hlineto
          46 240 126 59 -24 52 -88 -42 34 177 86 22 8 41 rlineto
          -278 -70 callsubr
          77 -22 -46 -236 -111 -52 23 -52 74 35 -35 -182 -85 -16 callgsubr
          endchar
        </CharString>
        <CharString name="M">
          261 203 hmoveto
          7 41 -76 22 91 386 64 -459 75 13 235 449 -59 -389 -85 -22 -8 -41 rlineto
          276 -26 callgsubr
          -77 22 73 487 87 22 7 41 rlineto
          -206 hlineto
          -238 -466 -62 466 rlineto
          -196 hlineto
          -7 -41 73 -21 -115 -488 -82 -16 callgsubr
          endchar
        </CharString>
        <CharString name="N">
          141 490 613 -78 callgsubr
          endchar
        </CharString>
        <CharString name="Nacute">
          152 363 640 -98 callgsubr
          153 -56 -67 callsubr
          endchar
        </CharString>
        <CharString name="Nacute.loclPLK">
          141 389 637 -60 callsubr
          128 -42 -78 callgsubr
          endchar
        </CharString>
        <CharString name="Ncaron">
          152 323 798 rmoveto
          -28 -23 84 -132 rlineto
          76 hlineto
          129 25 callgsubr
          -133 -74 rlineto
          64 -112 -67 callsubr
          endchar
        </CharString>
        <CharString name="Ncommaaccent">
          152 493 613 -67 callsubr
          -460 -844 -43 callgsubr
        </CharString>
        <CharString name="Ntilde">
          152 601 761 rmoveto
          -39 17 rlineto
          0 -18 -33 -25 5 callsubr
          -38 callgsubr
          -108 -148 -67 callsubr
          endchar
        </CharString>
        <CharString name="O">
          98 264 -10 -106 callsubr
          endchar
        </CharString>
        <CharString name="OE">
          328 289 hmoveto
          459 26 callgsubr
          -176 hlineto
          42 216 rlineto
          111 hlineto
          7 -69 rlineto
          43 -29 callsubr
          -44 hlineto
          -31 -66 rlineto
          -112 hlineto
          43 219 rlineto
          161 -44 callgsubr
          -417 hlineto
          -238 -145 -175 -228 -138 77 -72 165 hvcurveto
          16 58 rmoveto
          -93 -43 55 104 89 39 249 199 25 30 -3 -6 29 hvcurveto
          -93 -478 rlineto
          -8 -31 -31 -2 -31 hhcurveto
          endchar
        </CharString>
        <CharString name="Oacute">
          98 357 640 -98 callgsubr
          -70 -679 -106 callsubr
          endchar
        </CharString>
        <CharString name="Oacute.loclPLK">
          98 366 637 -60 callsubr
          -75 -665 -106 callsubr
          endchar
        </CharString>
        <CharString name="Obreve">
          98 389 657 -99 callgsubr
          -125 -667 -106 callsubr
          endchar
        </CharString>
        <CharString name="Ocircumflex">
          98 265 13 callgsubr
          21 -679 -106 callsubr
          endchar
        </CharString>
        <CharString name="Odieresis">
          98 294 -42 callgsubr
          -249 -666 -106 callsubr
          endchar
        </CharString>
        <CharString name="Ograve">
          98 479 41 callgsubr
          11 -757 -106 callsubr
          endchar
        </CharString>
        <CharString name="Ohorn">
          98 699 640 rmoveto
          -93 callgsubr
        </CharString>
        <CharString name="Ohungarumlaut">
          98 282 637 -60 callsubr
          188 -18 -60 callsubr
          -152 -665 -106 callsubr
          endchar
        </CharString>
        <CharString name="Omacron">
          98 273 49 callsubr
          -19 -763 -106 callsubr
          endchar
        </CharString>
        <CharString name="Oslash">
          98 159 -93 -48 callsubr
        </CharString>
        <CharString name="Oslashacute">
          98 262 640 -98 callgsubr
          -80 -762 -48 callsubr
        </CharString>
        <CharString name="Otilde">
          98 482 660 rmoveto
          -34 callsubr
          36 87 -38 44 hhcurveto
          -218 -670 -106 callsubr
          endchar
        </CharString>
        <CharString name="P">
          -6 361 613 rmoveto
          -255 hlineto
          -9 -42 78 -22 -94 -486 -86 -16 callgsubr
          298 hlineto
          8 42 -98 21 37 188 rlineto
          -4 13 35 -2 10 hhcurveto
          108 141 68 161 93 -61 46 -118 hvcurveto
          -120 -317 rmoveto
          50 255 rlineto
          4 15 17 2 16 hhcurveto
          57 28 -31 -56 -115 -69 -63 -76 -15 -13 1 3 -10 hvcurveto
          endchar
        </CharString>
        <CharString name="Q">
          99 455 -155 rmoveto
          35 51 17 15 26 hvcurveto
          3 33 rlineto
          -68 hlineto
          -26 -102 48 42 -76 hvcurveto
          -2 6 rlineto
          189 125 192 214 123 -54 92 -169 -230 -120 -204 -201 -109 47 -58 90 -56 hvcurveto
          154 -100 rlineto
          -42 64 30 -12 33 hhcurveto
          -187 208 rmoveto
          -82 -24 81 78 129 51 225 160 89 23 -65 -91 -108 -41 -249 -176 hvcurveto
          endchar
        </CharString>
        <CharString name="R">
          37 363 hmoveto
          163 hlineto
          7 -28 callsubr
          100 27 65 -90 callsubr
          14 19 -32 callsubr
          endchar
        </CharString>
        <CharString name="Racute">
          39 278 640 -98 callgsubr
          111 -669 rmoveto
          162 hlineto
          8 -28 callsubr
          99 27 66 -90 callsubr
          13 20 -32 callsubr
          endchar
        </CharString>
        <CharString name="Rcaron">
          39 251 3 callgsubr
          -21 27 -133 -74 rlineto
          9 -725 rmoveto
          162 hlineto
          8 -28 callsubr
          99 27 66 -90 callsubr
          13 20 -32 callsubr
          endchar
        </CharString>
        <CharString name="Rcommaaccent">
          39 366 hmoveto
          162 hlineto
          8 -28 callsubr
          99 27 66 -90 callsubr
          13 20 -32 callsubr
          -74 -553 -6 callsubr
        </CharString>
        <CharString name="S">
          -59 157 -10 -85 callsubr
          endchar
        </CharString>
        <CharString name="Sacute">
          -63 234 640 -98 callgsubr
          -54 -679 -51 callsubr
        </CharString>
        <CharString name="Sacute.loclPLK">
          -59 288 637 -60 callsubr
          -104 -665 -85 callsubr
          endchar
        </CharString>
        <CharString name="Scaron">
          -63 212 798 -77 callsubr
          -161 -735 -51 callsubr
        </CharString>
        <CharString name="Scedilla">
          -63 415 211 rmoveto
          27 callsubr
          vhcurveto
          -90 callgsubr
          -46 hlineto
          -33 -133 42 -19 56 -10 49 -2 rlinecurve
          -33 -61 -38 callsubr
          -62 hvcurveto
          17 36 rlineto
          161 8 76 90 122 vvcurveto
          endchar
        </CharString>
        <CharString name="Scircumflex">
          -59 431 643 -97 callsubr
          -171 -727 -85 callsubr
          endchar
        </CharString>
        <CharString name="Scommaaccent">
          -63 154 -10 -83 callsubr
          -46 hlineto
          -33 48 callsubr
          66 -10 51 hhcurveto
          -35 -221 -43 callgsubr
        </CharString>
        <CharString name="T">
          -36 71 613 -59 callsubr
          endchar
        </CharString>
        <CharString name="Tbar">
          -36 525 461 rmoveto
          35 152 rlineto
          -489 hlineto
          -23 -152 rlineto
          46 hlineto
          36 90 rlineto
          116 hlineto
          -41 -212 rlineto
          -157 hlineto
          -9 -52 rlineto
          156 hlineto
          -44 -224 -91 -16 callgsubr
          289 hlineto
          7 41 -82 22 44 224 rlineto
          165 hlineto
          10 52 rlineto
          -165 hlineto
          41 212 rlineto
          115 -90 hlineto
          endchar
        </CharString>
        <CharString name="Tcaron">
          -32 227 3 callgsubr
          -21 27 -133 -74 rlineto
          -257 -112 -59 callsubr
          endchar
        </CharString>
        <CharString name="Thorn">
          -35 -12 hmoveto
          -20 callgsubr
          15 76 rlineto
          -3 15 21 -1 15 hhcurveto
          101 133 67 150 86 -54 43 -111 hvcurveto
          -54 hlineto
          14 69 -62 callgsubr
          256 142 rmoveto
          -13 -11 1 2 -7 hvcurveto
          46 238 rlineto
          4 15 8 1 18 hhcurveto
          49 30 -26 -56 -113 -60 -51 -75 hvcurveto
          endchar
        </CharString>
        <CharString name="U">
          80 526 236 rmoveto
          61 315 -39 callgsubr
          -226 -105 callgsubr
          endchar
        </CharString>
        <CharString name="Uacute">
          99 338 640 7 callgsubr
          220 -433 rmoveto
          -97 callgsubr
          4 callsubr
          vhcurveto
          endchar
        </CharString>
        <CharString name="Ubreve">
          80 381 657 -99 callgsubr
          145 -421 rmoveto
          61 315 -39 callgsubr
          -226 -105 callgsubr
          endchar
        </CharString>
        <CharString name="Ucircumflex">
          99 519 643 rmoveto
          28 23 -80 callgsubr
          22 -26 135 74 rlineto
          120 -481 rmoveto
          -97 callgsubr
          4 callsubr
          vhcurveto
          endchar
        </CharString>
        <CharString name="Udieresis">
          99 376 721 -75 callsubr
          218 hmoveto
          9 callgsubr
          -28 38 35 32 28 37 vhcurveto
          -59 -485 rmoveto
          -97 callgsubr
          4 callsubr
          vhcurveto
          endchar
        </CharString>
        <CharString name="Ugrave">
          99 491 640 -57 callsubr
          270 -511 rmoveto
          -97 callgsubr
          4 callsubr
          vhcurveto
          endchar
        </CharString>
        <CharString name="Uhorn">
          80 719 677 -52 callsubr
          -44 -29 -9 -41 vhcurveto
          -105 -105 callgsubr
          63 324 52 23 rlineto
          45 19 33 32 43 vvcurveto
          endchar
        </CharString>
        <CharString name="Uhungarumlaut">
          99 310 637 rmoveto
          149 155 rlineto
          20 -86 vlineto
          -89 -157 rlineto
          187 -18 rmoveto
          149 155 rlineto
          20 -86 vlineto
          -89 -157 rlineto
          90 -419 rmoveto
          -97 callgsubr
          4 callsubr
          vhcurveto
          endchar
        </CharString>
        <CharString name="Umacron">
          99 297 753 -23 callgsubr
          -14 -517 rmoveto
          -97 callgsubr
          4 callsubr
          vhcurveto
          endchar
        </CharString>
        <CharString name="Uogonek">
          99 535 236 rmoveto
          -97 callgsubr
          vhcurveto
          8 9 1 7 hhcurveto
          -70 -46 -38 -65 -42 17 callgsubr
          -28 -13 15 28 30 26 79 77 36 hvcurveto
          116 43 35 116 14 69 rrcurveto
          endchar
        </CharString>
        <CharString name="Uring">
          99 408 631 -65 callgsubr
          -146 -684 rmoveto
          4 callsubr
          hvcurveto
          -97 callgsubr
          vhcurveto
          endchar
        </CharString>
        <CharString name="Utilde">
          99 579 761 rmoveto
          -40 26 callsubr
          -43 hhcurveto
          -33 -30 -45 -56 -21 hvcurveto
          41 -16 rlineto
          0 19 32 23 vhcurveto
          36 88 -38 44 hhcurveto
          -38 callgsubr
          -42 -525 rmoveto
          61 315 82 -29 callgsubr
          -226 -58 callgsubr
          -59 -309 rlineto
          -100 -19 -48 -86 callsubr
          4 callsubr
          vhcurveto
          endchar
        </CharString>
        <CharString name="V">
          0 409 572 rmoveto
          62 -20 -201 -397 -48 397 63 20 8 41 rlineto
          -242 -70 callsubr
          63 -22 75 -558 77 11 280 547 72 21 7 42 rlineto
          -201 hlineto
          endchar
        </CharString>
        <CharString name="W">
          263 664 572 -81 callgsubr
        </CharString>
        <CharString name="Wacute">
          263 440 640 -98 callgsubr
          247 -97 -81 callgsubr
        </CharString>
        <CharString name="Wcircumflex">
          263 592 643 -97 callsubr
          175 -145 -81 callgsubr
        </CharString>
        <CharString name="Wdieresis">
          263 449 721 -96 callsubr
          -4 -149 -81 callgsubr
        </CharString>
        <CharString name="Wgrave">
          263 518 640 -57 callsubr
          372 -175 -81 callgsubr
        </CharString>
        <CharString name="X">
          21 -47 hmoveto
          206 15 callsubr
          20 146 178 73 -179 -61 -17 -8 -43 rlineto
          251 -26 callgsubr
          -66 19 -107 261 200 231 68 20 8 41 rlineto
          -207 hlineto
          -9 -43 63 -18 -147 -170 -68 170 66 18 8 43 rlineto
          -248 -70 callsubr
          59 -20 101 -251 -199 -240 -67 -20 rlineto
          endchar
        </CharString>
        <CharString name="Y">
          -22 378 572 -69 callgsubr
          endchar
        </CharString>
        <CharString name="Y.loclGUA">
          130 233 -167 -100 callgsubr
        </CharString>
        <CharString name="Yacute">
          -16 276 640 -98 callgsubr
          130 -97 -71 callgsubr
        </CharString>
        <CharString name="Yacute.loclGUA">
          130 341 640 6 callsubr
          -84 -836 -100 callgsubr
        </CharString>
        <CharString name="Ycircumflex">
          -16 463 643 rmoveto
          28 23 -80 30 callgsubr
          23 -145 -71 callgsubr
        </CharString>
        <CharString name="Ycircumflex.loclGUA">
          130 288 13 callgsubr
          -33 -836 -100 callgsubr
        </CharString>
        <CharString name="Ydieresis">
          -16 323 721 -96 callsubr
          -159 -149 -71 callgsubr
        </CharString>
        <CharString name="Ydieresis.loclGUA">
          139 311 -42 callgsubr
          -289 -823 rmoveto
          143 110 51 194 36 hvcurveto
          89 473 84 -29 callgsubr
          -257 20 callsubr
          -66 -354 rlineto
          -46 -30 -58 -40 -62 hhcurveto
          -67 -23 33 72 23 5 42 8 39 hvcurveto
          44 231 84 -29 callgsubr
          -275 20 callsubr
          -44 -229 rlineto
          -7 -38 -6 -39 -33 vvcurveto
          -106 40 -60 129 68 57 22 30 43 vhcurveto
          -5 -23 rlineto
          -112 -20 -50 -60 -112 hhcurveto
          -38 -46 12 21 -30 hvcurveto
          -5 81 rlineto
          -46 hlineto
          -38 -134 rlineto
          -34 54 65 -16 74 hhcurveto
          endchar
        </CharString>
        <CharString name="Ygrave">
          -16 425 41 callgsubr
          -134 -747 rmoveto
          -33 callsubr
          -8 -41 62 -20 -152 -235 -64 233 65 21 8 42 -240 -1 -8 -40 62 -23 85 -296 -37 -190 -92 -22 rlineto
          endchar
        </CharString>
        <CharString name="Ygrave.loclGUA">
          130 475 640 -57 callsubr
          -16 -914 -100 callgsubr
        </CharString>
        <CharString name="Z">
          -45 443 157 -69 callsubr
          endchar
        </CharString>
        <CharString name="Zacute">
          -45 232 640 -98 callgsubr
          230 -512 -45 callgsubr
        </CharString>
        <CharString name="Zacute.loclPLK">
          -45 295 637 -60 callsubr
          175 -498 -69 callsubr
          endchar
        </CharString>
        <CharString name="Zcaron">
          -45 219 3 callgsubr
          -22 27 -132 -74 rlineto
          114 -568 -45 callgsubr
        </CharString>
        <CharString name="Zdotaccent">
          -45 386 -47 callgsubr
          53 -562 -45 callgsubr
        </CharString>
        <CharString name="a">
          4 433 210 -107 callgsubr
          endchar
        </CharString>
        <CharString name="aacute">
          4 250 570 -98 callgsubr
          206 -389 -107 callgsubr
          endchar
        </CharString>
        <CharString name="abreve">
          4 316 587 42 callsubr
          -67 hhcurveto
          -50 -8 10 callgsubr
          117 -377 -107 callgsubr
          endchar
        </CharString>
        <CharString name="acircumflex">
          4 424 13 callsubr
          95 -438 -107 callgsubr
          endchar
        </CharString>
        <CharString name="acute">
          -275 103 570 -98 callgsubr
          endchar
        </CharString>
        <CharString name="acute.case">
          -275 117 640 -98 callgsubr
          endchar
        </CharString>
        <CharString name="acute.loclPLK">
          -275 149 -44 callsubr
          endchar
        </CharString>
        <CharString name="acute.loclPLK.case">
          -275 151 637 -60 callsubr
          endchar
        </CharString>
        <CharString name="acutecomb">
          -530 -138 640 -98 callgsubr
          endchar
        </CharString>
        <CharString name="adieresis">
          4 283 -58 callsubr
          -68 -440 -107 callgsubr
          endchar
        </CharString>
        <CharString name="ae">
          182 480 -10 -62 callsubr
        </CharString>
        <CharString name="aeacute">
          182 339 570 -98 callgsubr
          164 -609 -62 callsubr
        </CharString>
        <CharString name="agrave">
          4 410 571 -34 callgsubr
          -2 -21 rlineto
          248 -468 -107 callgsubr
          endchar
        </CharString>
        <CharString name="amacron">
          4 213 14 callgsubr
          -12 -464 -107 callgsubr
          endchar
        </CharString>
        <CharString name="ampersand">
          63 493 204 rmoveto
          91 -4 rlineto
          73 -271 vlineto
          7 -59 72 -5 -27 -137 rlineto
          -7 -21 -39 -11 -44 hhcurveto
          -73 -50 35 66 130 78 31 125 4 hvcurveto
          3 57 rlineto
          -56 10 -34 23 58 vvcurveto
          58 35 32 54 34 24 -6 -9 25 vhcurveto
          4 -90 rlineto
          54 hlineto
          35 142 rlineto
          19 -52 -55 13 -67 hhcurveto
          -91 -113 -41 -111 -56 31 -33 40 -23 hvcurveto
          -118 -26 -73 -86 -98 vvcurveto
          -108 79 -56 127 100 82 23 25 53 vhcurveto
          endchar
        </CharString>
        <CharString name="aogonek">
          4 380 -21 callgsubr
          -26 -15 15 28 30 25 78 92 48 hvcurveto
          -7 callsubr
          50 57 40 58 39 vhcurveto
          0 -5 -40 -10 vvcurveto
          -32 22 -16 38 10 11 1 2 12 vhcurveto
          -87 -70 -15 -57 -29 37 callgsubr
          vhcurveto
          -185 302 -3 callgsubr
        </CharString>
        <CharString name="approxequal">
          -20 80 317 rmoveto
          38 26 21 16 28 63 59 -57 2 callsubr
          42 -178 rmoveto
          39 26 21 15 28 63 59 -56 2 callsubr
          endchar
        </CharString>
        <CharString name="aring">
          4 314 50 callgsubr
          -46 -58 -67 -47 31 53 callsubr
          10 40 42 27 7 -16 -22 -41 -10 -37 -41 hvcurveto
          -162 -605 rmoveto
          50 57 40 58 39 hvcurveto
          0 -5 -40 -10 vvcurveto
          -32 22 -16 38 36 40 7 21 54 vhcurveto
          -7 callsubr
          vhcurveto
          36 75 -3 callgsubr
        </CharString>
        <CharString name="aringacute">
          4 323 699 -98 callgsubr
          21 -218 -65 callgsubr
          105 -343 -107 callgsubr
          endchar
        </CharString>
        <CharString name="arrowdown">
          32 65 323 rmoveto
          214 -295 rlineto
          15 hlineto
          201 295 -34 36 -137 -162 14 302 rlineto
          -101 hlineto
          12 -303 -148 163 rlineto
          endchar
        </CharString>
        <CharString name="arrowleft">
          32 212 305 rmoveto
          163 136 -37 34 -293 -200 rlineto
          -16 vlineto
          293 -213 36 35 -163 148 305 -12 rlineto
          102 vlineto
          endchar
        </CharString>
        <CharString name="arrowright">
          32 222 46 rmoveto
          295 213 rlineto
          16 vlineto
          -295 200 -36 -34 162 -136 -302 14 rlineto
          -102 vlineto
          303 12 -162 -148 rlineto
          endchar
        </CharString>
        <CharString name="arrowup">
          32 496 200 rmoveto
          -214 292 rlineto
          -17 hlineto
          -199 -292 33 -37 138 162 -13 -302 rlineto
          101 hlineto
          -12 304 147 -163 rlineto
          endchar
        </CharString>
        <CharString name="asciicircum">
          -54 32 250 rmoveto
          83 hlineto
          124 254 122 -254 rlineto
          83 hlineto
          -179 363 rlineto
          -53 hlineto
          endchar
        </CharString>
        <CharString name="asciitilde">
          -12 165 261 rmoveto
          62 53 -54 60 hhcurveto
          48 42 33 67 37 hvcurveto
          -45 25 rlineto
          -40 -25 -17 -13 -36 -55 -58 52 -62 hhcurveto
          -43 -40 -29 -68 -33 hvcurveto
          41 -23 rlineto
          36 26 19 14 26 hhcurveto
          endchar
        </CharString>
        <CharString name="asterisk">
          -179 130 421 rmoveto
          73 104 rlineto
          8 hlineto
          34 -104 87 56 -65 84 4 8 119 19 -10 91 -117 -54 -6 5 39 118 rlineto
          -93 hlineto
          -5 -118 -7 -4 -98 53 -44 -91 110 -19 1 -8 -98 -84 rlineto
          endchar
        </CharString>
        <CharString name="at">
          212 426 557 rmoveto
          -248 -168 -177 -196 -161 109 -103 173 92 91 25 43 79 hvcurveto
          -18 42 rlineto
          -32 -75 -78 -15 -68 hhcurveto
          -134 -76 74 124 173 131 147 190 131 71 -75 -113 -93 -47 -83 -72 -15 -5 6 17 55 60 210 1 5 hvcurveto
          4 -14 3 -14 vhcurveto
          -24 -1 -15 -25 rlineto
          5 -19 -43 5 -24 hhcurveto
          -126 -88 -113 -126 -78 33 -48 65 52 44 30 55 33 hvcurveto
          -2 -9 -2 -12 -11 vvcurveto
          -34 21 -19 47 143 105 116 142 136 -102 107 -194 vhcurveto
          -111 -431 rmoveto
          -25 -7 20 34 91 43 94 66 16 9 -1 -6 15 hvcurveto
          -128 -20 -34 -104 -63 hhcurveto
          endchar
        </CharString>
        <CharString name="atilde">
          4 500 690 rmoveto
          -39 -26 callsubr
          78 -38 44 hhcurveto
          33 25 41 callsubr
          -67 -480 -107 callgsubr
          endchar
        </CharString>
        <CharString name="b">
          -7 207 -9 rmoveto
          218 67 214 168 106 -51 32 -67 -50 -60 -33 -58 -46 hvcurveto
          -1 4 52 265 1 22 rrcurveto
          13 -7 10 -16 -40 -75 -16 -20 -58 vhcurveto
          8 -34 73 -9 -124 -628 rlineto
          -15 28 60 -21 88 hhcurveto
          19 61 rmoveto
          -32 -26 9 16 -13 hvcurveto
          95 19 33 177 1 hhcurveto
          42 31 55 45 34 hhcurveto
          29 18 -16 -59 -150 -48 -159 -101 hvcurveto
          endchar
        </CharString>
        <CharString name="backslash">
          -162 91 697 rmoveto
          -84 hlineto
          272 -836 rlineto
          83 hlineto
          endchar
        </CharString>
        <CharString name="bar">
          -158 236 697 rmoveto
          -100 -836 100 hlineto
          endchar
        </CharString>
        <CharString name="braceleft">
          -211 188 677 rmoveto
          -51 -374 -79 -36 -3 -15 66 -34 -95 -376 169 -35 18 36 -84 37 93 349 -80 31 92 31 43 348 98 37 -4 38 rlineto
          endchar
        </CharString>
        <CharString name="braceright">
          -211 -47 -193 rmoveto
          180 35 53 376 78 34 3 15 -65 36 94 374 -168 37 -18 -38 84 -37 -93 -348 80 -31 -92 -31 -43 -349 -97 -37 rlineto
          endchar
        </CharString>
        <CharString name="bracketleft">
          -211 223 -167 rmoveto
          9 43 -117 9 148 763 120 7 8 42 rlineto
          -219 hlineto
          -168 -864 rlineto
          endchar
        </CharString>
        <CharString name="bracketright">
          -211 98 697 rmoveto
          -8 -42 117 -7 -148 -763 -119 -9 -9 -43 rlineto
          217 hlineto
          168 864 rlineto
          endchar
        </CharString>
        <CharString name="breve">
          -275 194 -78 callsubr
          endchar
        </CharString>
        <CharString name="breve.case">
          -275 208 657 -99 callgsubr
          endchar
        </CharString>
        <CharString name="brokenbar">
          -137 236 697 rmoveto
          -100 -323 100 hlineto
          -189 vmoveto
          -100 -324 100 hlineto
          endchar
        </CharString>
        <CharString name="bullet">
          -59 396 348 rmoveto
          81 -66 64 -80 -80 -66 -64 -81 -80 66 -65 80 80 66 65 80 vhcurveto
          endchar
        </CharString>
        <CharString name="c">
          -129 340 444 -75 callgsubr
        </CharString>
        <CharString name="cacute">
          -127 224 570 -98 callgsubr
          139 -155 -33 callgsubr
        </CharString>
        <CharString name="cacute.loclPLK">
          -129 267 -44 callsubr
          100 -132 -75 callgsubr
        </CharString>
        <CharString name="caron">
          -275 116 733 -59 callgsubr
          endchar
        </CharString>
        <CharString name="caron.case">
          -275 114 798 -77 callsubr
          endchar
        </CharString>
        <CharString name="ccaron">
          -127 214 733 rmoveto
          -36 -22 76 -143 rlineto
          77 hlineto
          122 137 -28 28 -120 -82 rlineto
          35 -207 -33 callgsubr
        </CharString>
        <CharString name="ccedilla">
          -127 340 444 rmoveto
          10 -88 rlineto
          46 hlineto
          30 133 rlineto
          16 -33 -40 6 -39 hhcurveto
          -193 -91 -168 -193 -100 52 -47 73 -10 hvcurveto
          -33 -64 3 -15 rlineto
          42 -1 13 -17 -19 vvcurveto
          -35 -36 -23 -33 -16 -10 1 5 -10 vhcurveto
          -15 52 callgsubr
          35 hhcurveto
          60 78 43 71 35 -27 26 -62 hvcurveto
          18 35 45 1 53 12 46 29 rlinecurve
          -12 44 rlineto
          -12 -37 -31 -7 -27 hhcurveto
          -64 -20 38 76 132 40 146 109 13 15 -1 -4 14 hvcurveto
          endchar
        </CharString>
        <CharString name="ccircumflex">
          -129 402 567 16 callgsubr
          -204 -75 callgsubr
        </CharString>
        <CharString name="cdotaccent">
          -129 317 -40 callgsubr
          23 -139 -75 callgsubr
        </CharString>
        <CharString name="cedilla">
          -275 14 -22 callsubr
        </CharString>
        <CharString name="cent">
          -8 210 35 rmoveto
          -24 -122 rlineto
          62 hlineto
          24 120 45 3 52 15 43 29 rlinecurve
          -8 43 rlineto
          -13 -38 -42 -8 -38 hhcurveto
          -69 -23 44 73 138 37 154 117 20 23 -3 -5 16 hvcurveto
          9 -94 rlineto
          49 hlineto
          34 141 -31 16 -40 9 -38 1 rlinecurve
          24 122 rlineto
          -62 hlineto
          -25 -124 rlineto
          -166 -21 -87 -158 -189 vvcurveto
          -105 52 -55 84 -11 vhcurveto
          endchar
        </CharString>
        <CharString name="circumflex">
          -275 294 567 -86 callgsubr
          endchar
        </CharString>
        <CharString name="circumflex.case">
          -275 325 643 -97 callsubr
          endchar
        </CharString>
        <CharString name="colon">
          -296 144 55 callgsubr
          -40 -36 -35 -41 -42 36 -31 40 hvcurveto
          -59 -356 rmoveto
          42 34 31 42 42 -34 34 -42 -40 -35 -34 -42 -42 35 -31 40 hvcurveto
          endchar
        </CharString>
        <CharString name="comma">
          -334 7 -117 33 callgsubr
        </CharString>
        <CharString name="commaaccentInverted">
          -350 48 559 rmoveto
          87 19 35 176 -37 8 -103 -181 rlineto
          endchar
        </CharString>
        <CharString name="copyright">
          -31 7 453 rmoveto
          -133 109 -110 134 7 callsubr
          vhcurveto
          35 hmoveto
          22 callgsubr
          -114 -94 96 115 vhcurveto
          306 -139 rmoveto
          -4 62 rlineto
          -30 hlineto
          -13 -43 rlineto
          -5 -17 -11 -1 -14 hhcurveto
          -66 -16 64 62 68 16 59 68 13 11 -2 -4 16 hvcurveto
          9 -48 rlineto
          30 hlineto
          8 72 rlineto
          9 -30 -33 6 -32 hhcurveto
          -107 -42 -70 -90 -92 41 -67 108 38 28 6 14 29 hvcurveto
          endchar
        </CharString>
        <CharString name="currency">
          15 46 79 rmoveto
          37 -50 66 54 rlineto
          -23 28 38 -13 44 hhcurveto
          43 43 12 24 38 hvcurveto
          43 -53 57 50 -43 51 rlineto
          39 42 25 58 54 vvcurveto
          29 -7 27 -11 25 vhcurveto
          63 53 -39 48 -63 -53 rlineto
          24 -28 -39 14 -43 hhcurveto
          -44 -42 -14 -24 -38 hvcurveto
          -42 54 -59 -49 43 -53 rlineto
          -39 -44 -25 -55 -58 vvcurveto
          -28 6 -27 12 -23 vhcurveto
          63 118 rmoveto
          70 13 67 57 69 hhcurveto
          62 43 -44 -59 -80 -76 -70 -77 -61 -43 44 57 8 1 8 2 9 hvcurveto
          endchar
        </CharString>
        <CharString name="d">
          -1 -89 callsubr
          49 74 -51 callgsubr
        </CharString>
        <CharString name="dagger">
          -81 225 hmoveto
          62 438 129 -20 20 101 -136 -18 44 135 rlineto
          -108 hlineto
          -8 -135 -126 18 -20 -101 136 20 -110 -438 rlineto
          endchar
        </CharString>
        <CharString name="daggerdbl">
          -78 132 hmoveto
          109 hlineto
          7 136 128 -19 20 101 -137 -19 48 119 rlineto
          120 vlineto
          129 -20 19 101 -135 -18 44 135 rlineto
          -109 hlineto
          -7 -135 -127 18 -19 -101 135 20 -48 -120 rlineto
          -119 vlineto
          -127 19 -20 -101 134 19 rlineto
          endchar
        </CharString>
        <CharString name="dcaron">
          43 -89 callsubr
          425 536 rmoveto
          35 hlineto
          43 190 -62 17 rlineto
          -31 hlineto
          -361 -669 -51 callgsubr
        </CharString>
        <CharString name="dcroat">
          1 147 -9 rmoveto
          63 60 41 57 38 hvcurveto
          0 -4 -39 -11 vvcurveto
          -32 20 -16 38 34 42 7 21 55 vhcurveto
          41 -76 vlineto
          2 21 4 59 14 71 8 46 33 176 25 141 rrcurveto
          75 55 -65 hlineto
          7 38 6 38 7 vvcurveto
          13 -7 9 -16 -40 -60 -5 -19 -71 27 callgsubr
          -8 -38 rlineto
          -160 -55 149 hlineto
          -14 -70 rlineto
          5 -20 -20 2 -26 hhcurveto
          -163 -121 -137 -235 -115 58 -33 58 hvcurveto
          49 74 -51 callgsubr
        </CharString>
        <CharString name="degree">
          -83 381 558 rmoveto
          87 -71 72 -87 -87 -71 -72 -87 -88 71 -69 87 87 71 69 88 vhcurveto
          -158 114 rmoveto
          62 35 -51 -63 -63 -35 -49 -62 -62 -35 49 63 63 35 51 62 hvcurveto
          endchar
        </CharString>
        <CharString name="dieresis">
          -275 166 -58 callsubr
          endchar
        </CharString>
        <CharString name="dieresis.case">
          -275 179 721 -96 callsubr
          endchar
        </CharString>
        <CharString name="divide">
          -16 257 387 22 callsubr
          -202 -118 58 callsubr
          202 -241 22 callsubr
          endchar
        </CharString>
        <CharString name="dollar">
          -26 143 -117 rmoveto
          57 hlineto
          23 121 rlineto
          142 16 71 86 110 vvcurveto
          57 -27 35 -49 22 vhcurveto
          -94 43 rlineto
          -43 20 -29 20 39 vvcurveto
          79 72 28 64 22 39 -4 -5 16 vhcurveto
          3 -93 rlineto
          45 hlineto
          35 130 -42 14 -45 12 -48 2 rlinecurve
          20 101 rlineto
          -58 hlineto
          -20 -102 rlineto
          -124 -11 -83 -81 -125 vvcurveto
          -1 -61 32 -30 43 -19 94 -42 rcurveline
          47 -21 23 -21 -36 vvcurveto
          -67 -58 -43 -83 -39 -36 9 6 -21 vhcurveto
          82 -48 vlineto
          -36 -122 45 -18 60 -11 55 -1 rlinecurve
          endchar
        </CharString>
        <CharString name="dotaccent">
          -275 206 -40 callgsubr
          endchar
        </CharString>
        <CharString name="dotaccent.case">
          -275 295 -47 callgsubr
          endchar
        </CharString>
        <CharString name="dotbelowcomb">
          -530 -198 -40 -102 callgsubr
        </CharString>
        <CharString name="dotlessi">
          -227 250 489 -95 callsubr
          endchar
        </CharString>
        <CharString name="e">
          -103 316 511 -107 callsubr
          endchar
        </CharString>
        <CharString name="eacute">
          -101 230 570 -98 callgsubr
          109 -88 -107 callsubr
          endchar
        </CharString>
        <CharString name="ebreve">
          -103 275 -78 callsubr
          41 -76 -107 callsubr
          endchar
        </CharString>
        <CharString name="ecaron">
          -107 212 12 callsubr
          13 -140 -107 callsubr
          endchar
        </CharString>
        <CharString name="ecircumflex">
          -107 397 567 rmoveto
          35 21 -70 142 rlineto
          -76 hlineto
          -122 -136 25 -27 123 81 rlineto
          4 -137 -107 callsubr
          endchar
        </CharString>
        <CharString name="edieresis">
          -107 252 -58 callsubr
          -154 -139 -107 callsubr
          endchar
        </CharString>
        <CharString name="edotaccent">
          -107 308 721 rmoveto
          -37 -33 -32 -38 -37 33 -31 37 38 32 31 37 38 -33 32 -37 hvcurveto
          8 -210 -107 callsubr
          endchar
        </CharString>
        <CharString name="egrave">
          -107 386 40 callgsubr
          156 -166 -107 callsubr
          endchar
        </CharString>
        <CharString name="eight">
          -53 callgsubr
        </CharString>
        <CharString name="eight.dnom">
          159 -6 -94 callgsubr
        </CharString>
        <CharString name="eight.numr">
          159 164 rmoveto
          112 70 60 76 40 -33 37 -45 27 hvcurveto
          84 34 26 43 49 vvcurveto
          45 -40 35 -83 -119 -47 -69 -62 -39 25 -30 31 -23 vhcurveto
          -63 -28 -49 -50 -62 vvcurveto
          -43 32 -40 99 vhcurveto
          65 264 rmoveto
          -28 16 -23 30 26 vvcurveto
          34 28 28 39 34 19 -17 -29 -39 -25 -26 -44 -23 vhcurveto
          -54 -217 rmoveto
          -31 -27 12 34 46 34 34 31 23 hvcurveto
          11 -6 rlineto
          29 -17 28 -23 -38 vvcurveto
          -42 -32 -23 -43 vhcurveto
          endchar
        </CharString>
        <CharString name="eight.osf">
          -53 callgsubr
        </CharString>
        <CharString name="ellipsis">
          45 9 57 rmoveto
          -37 30 -28 36 37 30 28 37 38 -30 30 -37 -36 -30 62 callgsubr
          38 30 28 37 38 -30 30 -38 -36 -29 62 callgsubr
          21 callgsubr
          38 -31 30 -37 -36 -29 -30 -38 vhcurveto
          endchar
        </CharString>
        <CharString name="emacron">
          -107 191 -1 callsubr
          -108 -163 -107 callsubr
          endchar
        </CharString>
        <CharString name="emdash">
          307 832 206 rmoveto
          3 65 rlineto
          -832 hlineto
          -3 -65 rlineto
          endchar
        </CharString>
        <CharString name="endash">
          193 719 206 rmoveto
          3 65 rlineto
          -718 hlineto
          -3 -65 rlineto
          endchar
        </CharString>
        <CharString name="eng">
          38 447 512 rmoveto
          -50 -87 -38 -68 -72 hvcurveto
          -55 callgsubr
          -87 -439 123 15 59 337 rlineto
          47 40 67 40 33 hhcurveto
          18 6 -12 -15 -35 -13 -69 -61 -308 hvcurveto
          -80 -16 -39 -23 -51 hhcurveto
          -25 -26 6 8 -22 hvcurveto
          -14 -47 rlineto
          -15 27 45 -17 53 hhcurveto
          101 59 60 98 19 hvcurveto
          61 322 19 101 44 vvcurveto
          44 -16 21 -45 vhcurveto
          endchar
        </CharString>
        <CharString name="eogonek">
          -107 237 -21 callgsubr
          -28 -13 15 28 53 50 74 62 37 hvcurveto
          10 6 -10 43 rlineto
          -12 -32 -35 -6 -28 hhcurveto
          -76 -24 60 callsubr
          100 67 110 66 -51 32 -69 -201 -85 -181 -167 -125 64 -48 97 19 16 2 2 16 hvcurveto
          -60 -53 -34 -52 -51 37 callgsubr
          vhcurveto
          -77 519 rmoveto
          105 20 47 61 63 hhcurveto
          34 9 -22 -25 -75 -69 -44 -104 hvcurveto
          endchar
        </CharString>
        <CharString name="equal">
          -16 50 355 58 callsubr
          -242 vmoveto
          404 69 -404 hlineto
          endchar
        </CharString>
        <CharString name="estimated">
          164 162 289 rmoveto
          497 14 hlineto
          176 -140 140 -176 -174 -141 -140 -176 -174 141 -141 174 103 108 53 78 49 vhcurveto
          -61 hlineto
          -56 -50 -66 -33 -82 hhcurveto
          -75 -55 29 49 -50 hvcurveto
          -3 4 -4 7 8 vvcurveto
          159 vlineto
          2 3 1 2 vhcurveto
          366 193 rmoveto
          -149 vlineto
          -2 -1 -2 -2 vhcurveto
          -363 hlineto
          -2 -3 2 2 hvcurveto
          146 vlineto
          8 4 7 4 6 vhcurveto
          45 38 59 35 82 hhcurveto
          89 48 -30 -48 40 hvcurveto
          4 -5 3 -7 -8 vvcurveto
          endchar
        </CharString>
        <CharString name="eth">
          -28 180 -10 rmoveto
          161 113 119 204 15 hvcurveto
          1 9 1 9 9 vvcurveto
          21 vlineto
          -1 86 -35 94 -60 83 83 54 rcurveline
          -27 43 -88 -55 -28 32 -31 29 -34 28 rlinecurve
          -38 -36 28 -32 24 -29 19 -30 rlinecurve
          -87 -55 28 -46 86 56 11 -24 10 -23 7 -26 rlinecurve
          1 -6 -6 0 -7 hhcurveto
          -171 -118 -134 -235 -93 47 -59 103 hvcurveto
          27 60 -63 callgsubr
        </CharString>
        <CharString name="exclam">
          -267 80 188 rmoveto
          71 hlineto
          113 425 rlineto
          -132 hlineto
          -39 -621 rmoveto
          38 30 28 36 38 -30 29 -38 -35 -32 -29 -38 -36 32 -28 35 hvcurveto
          endchar
        </CharString>
        <CharString name="exclamdown">
          -267 173 378 rmoveto
          37 29 28 36 38 -29 30 -37 -36 -32 -30 -38 -36 32 -28 36 hvcurveto
          -174 -499 rmoveto
          132 hlineto
          52 427 rlineto
          -70 hlineto
          endchar
        </CharString>
        <CharString name="f">
          -226 -22 -178 rmoveto
          -70 callgsubr
          endchar
        </CharString>
        <CharString name="f_f">
          78 -22 -178 rmoveto
          -70 callgsubr
          304 hmoveto
          -70 callgsubr
          endchar
        </CharString>
        <CharString name="fi">
          51 31 callsubr
          174 hlineto
          -28 -138 -51 -221 -26 vvcurveto
          -40 20 -13 42 33 28 callgsubr
          34 callgsubr
          50 248 14 vvcurveto
          14 -7 8 -13 vhcurveto
          -258 61 callgsubr
          23 11 -2 -3 23 hvcurveto
          16 58 rlineto
          15 -26 -32 7 -43 hhcurveto
          -118 -40 -11 callsubr
          526 762 rmoveto
          38 32 31 37 38 -33 31 -37 -37 -32 -31 59 callgsubr
          hvcurveto
          endchar
        </CharString>
        <CharString name="five">
          -26 480 613 rmoveto
          -325 hlineto
          -70 -257 10 -27 rlineto
          165 60 -31 -83 -101 -79 -59 -97 -59 -25 3 10 -40 hvcurveto
          -14 -65 rlineto
          -11 46 50 -4 55 hhcurveto
          179 104 101 135 87 -42 79 -221 5 hvcurveto
          35 143 rlineto
          255 hlineto
          endchar
        </CharString>
        <CharString name="five.dnom">
          378 433 rmoveto
          -246 hlineto
          -55 -196 16 -21 rlineto
          98 53 -16 -58 -62 -51 -38 -64 -42 -25 8 9 -30 hvcurveto
          -16 -48 rlineto
          -15 39 36 -7 11 callsubr
        </CharString>
        <CharString name="five.numr">
          378 604 -24 callgsubr
          endchar
        </CharString>
        <CharString name="five.osf">
          -26 463 526 rmoveto
          -324 hlineto
          -70 -257 10 -27 rlineto
          167 58 -31 -86 -98 -75 -60 -114 -24 -45 3 9 -43 hvcurveto
          -14 -62 rlineto
          -12 44 58 -5 43 hhcurveto
          190 99 103 134 87 -41 80 -221 4 hvcurveto
          35 143 rlineto
          254 hlineto
          endchar
        </CharString>
        <CharString name="fiveeighths">
          438 337 18 callsubr
          -179 -30 -24 callgsubr
          351 -553 -94 callgsubr
        </CharString>
        <CharString name="fl">
          60 31 callsubr
          101 64 -90 61 callgsubr
          22 40 -4 -6 29 hvcurveto
          -30 -154 -50 -267 -20 -106 rrcurveto
          -6 -34 -9 -37 -7 vvcurveto
          -38 22 -16 38 27 53 9 20 58 vhcurveto
          42 -81 vlineto
          17 93 77 426 16 97 rrcurveto
          2 16 2 12 6 vvcurveto
          12 -6 11 -16 -29 -29 -17 -12 -19 vhcurveto
          15 -36 -60 14 -34 hhcurveto
          -126 -38 -11 callsubr
          endchar
        </CharString>
        <CharString name="florin">
          -119 7 -178 rmoveto
          70 76 41 97 19 hvcurveto
          62 357 rlineto
          144 hlineto
          10 58 rlineto
          -142 hlineto
          140 19 36 38 54 hhcurveto
          11 14 -2 -2 8 hvcurveto
          14 -71 rlineto
          47 hlineto
          15 118 rlineto
          13 -41 -32 8 -48 hhcurveto
          -102 -62 -73 -169 -27 hvcurveto
          -94 hlineto
          -11 -58 rlineto
          95 hlineto
          -55 -308 rlineto
          -82 -15 -38 -38 -37 hhcurveto
          -75 hlineto
          -12 -41 rlineto
          -15 24 42 -11 31 hhcurveto
          endchar
        </CharString>
        <CharString name="four">
          -26 240 hmoveto
          107 hlineto
          24 133 rlineto
          79 hlineto
          12 43 callgsubr
          6 -47 rlineto
          270 hlineto
          -171 67 rmoveto
          230 267 -47 -267 rlineto
          endchar
        </CharString>
        <CharString name="four.dnom">
          195 hmoveto
          -8 callgsubr
          -36 -177 rlineto
          endchar
        </CharString>
        <CharString name="four.numr">
          195 172 rmoveto
          90 hlineto
          17 85 rlineto
          58 hlineto
          11 55 rlineto
          -58 hlineto
          56 291 -71 8 -292 -316 6 -38 rlineto
          200 hlineto
          -113 55 rmoveto
          160 177 -36 -177 rlineto
          endchar
        </CharString>
        <CharString name="four.osf">
          -27 222 -90 rmoveto
          108 hlineto
          24 137 rlineto
          80 hlineto
          11 43 callgsubr
          7 -47 rlineto
          270 hlineto
          -172 67 rmoveto
          231 267 -48 -267 rlineto
          endchar
        </CharString>
        <CharString name="fraction">
          -330 -51 -18 callsubr
          -75 hlineto
          endchar
        </CharString>
        <CharString name="g">
          -25 132 -181 -95 callgsubr
        </CharString>
        <CharString name="g_tilde.loclGUA">
          -32 408 590 rmoveto
          34 25 41 callsubr
          -40 -14 callsubr
          -37 -77 38 -44 hhcurveto
          -33 -27 -45 -55 -22 hvcurveto
          41 -17 rlineto
          0 18 33 23 vhcurveto
          37 78 -38 43 hhcurveto
          -279 -771 -77 callgsubr
        </CharString>
        <CharString name="gbreve">
          -32 309 -25 callgsubr
          -8 -14 -30 -66 -72 callgsubr
          1 -31 callgsubr
          -3 -16 -13 vvcurveto
          -49 23 -40 79 vhcurveto
          -180 -768 -77 callgsubr
        </CharString>
        <CharString name="gcaron">
          -25 234 733 -59 callgsubr
          -192 -832 -95 callgsubr
        </CharString>
        <CharString name="gcircumflex">
          -25 417 567 -86 callgsubr
          -199 -829 -95 callgsubr
        </CharString>
        <CharString name="gcommaaccent">
          -32 273 559 rmoveto
          87 19 35 176 -38 8 -102 -181 rlineto
          -126 -762 -77 callgsubr
        </CharString>
        <CharString name="gdotaccent">
          -25 332 -40 callgsubr
          -200 -764 -95 callgsubr
        </CharString>
        <CharString name="germandbls">
          101 409 -9 rmoveto
          117 77 60 91 hvcurveto
          135 -170 12 86 79 146 3 123 vvcurveto
          80 -63 46 -113 -138 -79 -67 -144 -34 vhcurveto
          11 callgsubr
          86 448 rlineto
          97 19 35 36 73 hhcurveto
          56 30 -24 -42 hvcurveto
          -92 -146 -22 -117 -128 173 -11 -89 vvcurveto
          -39 -35 -23 -58 -15 -15 1 6 -22 vhcurveto
          82 -40 vlineto
          -37 -130 rlineto
          -13 29 52 -8 48 hhcurveto
          endchar
        </CharString>
        <CharString name="grave">
          -275 306 54 callgsubr
          -2 -21 rlineto
          endchar
        </CharString>
        <CharString name="grave.case">
          -275 320 640 -57 callsubr
          endchar
        </CharString>
        <CharString name="gravecomb">
          -530 65 640 -57 callsubr
          endchar
        </CharString>
        <CharString name="greater">
          -16 90 105 rmoveto
          372 198 -372 199 -38 -63 269 -136 -269 -135 rlineto
          endchar
        </CharString>
        <CharString name="greaterequal">
          -20 88 111 rmoveto
          373 192 -373 193 -36 -61 269 -132 -269 -131 rlineto
          1 -161 rmoveto
          403 69 -403 hlineto
          endchar
        </CharString>
        <CharString name="guillemotleft">
          -126 27 242 rmoveto
          103 -177 53 30 -50 147 107 149 -40 30 rlineto
          97 -356 rmoveto
          53 30 -50 147 107 149 -41 30 -173 -179 rlineto
          endchar
        </CharString>
        <CharString name="guillemotright">
          -126 37 65 rmoveto
          174 178 -104 178 -52 -30 50 -148 -108 -148 rlineto
          207 -30 rmoveto
          173 178 -103 178 -52 -30 49 -148 -106 -148 rlineto
          endchar
        </CharString>
        <CharString name="guilsinglleft">
          -280 30 242 rmoveto
          104 -177 52 30 -49 147 107 149 -40 30 rlineto
          endchar
        </CharString>
        <CharString name="guilsinglright">
          -280 133 421 rmoveto
          -53 -30 51 -148 -108 -148 40 -30 173 178 rlineto
          endchar
        </CharString>
        <CharString name="h">
          28 37 -10 -72 callsubr
          9 47 44 245 11 vvcurveto
          14 -7 11 -16 -40 -75 -16 -21 -58 vhcurveto
          8 -34 73 -9 rlineto
          endchar
        </CharString>
        <CharString name="hbar">
          28 37 -10 -72 callsubr
          5 24 13 74 12 70 rrcurveto
          141 hlineto
          10 55 rlineto
          -141 hlineto
          7 38 6 38 7 vvcurveto
          13 -8 9 -15 -40 -60 -5 -19 -71 27 callgsubr
          -8 -38 rlineto
          -83 hlineto
          -11 -55 rlineto
          84 hlineto
          endchar
        </CharString>
        <CharString name="hcircumflex">
          28 353 739 -97 callsubr
          -213 -823 -72 callsubr
          9 47 44 245 11 vvcurveto
          14 -7 11 -16 -40 -75 -16 -21 -58 vhcurveto
          8 -34 73 -9 rlineto
          endchar
        </CharString>
        <CharString name="hookabovecomb">
          -530 -102 549 -106 callgsubr
          endchar
        </CharString>
        <CharString name="hungarumlaut">
          -275 62 557 -4 callgsubr
          188 -19 -4 callgsubr
          endchar
        </CharString>
        <CharString name="hungarumlaut.case">
          -275 78 637 -60 callsubr
          188 -18 -60 callsubr
          endchar
        </CharString>
        <CharString name="hyphen">
          -248 272 206 rmoveto
          3 65 rlineto
          -264 hlineto
          -3 -65 rlineto
          endchar
        </CharString>
        <CharString name="i">
          -228 -15 callgsubr
          27 -232 -46 callsubr
          endchar
        </CharString>
        <CharString name="i.loclTRK">
          -227 231 -40 callgsubr
          19 -94 -95 callsubr
          endchar
        </CharString>
        <CharString name="iacute">
          -227 111 570 -98 callgsubr
          26 -609 -63 callsubr
        </CharString>
        <CharString name="iacute_j.loclNLD">
          60 135 570 -98 callgsubr
          318 -29 -98 callgsubr
          -157 -110 -95 callsubr
          307 -1 rmoveto
          -85 callgsubr
          15 callgsubr
          vhcurveto
          -23 callsubr
          endchar
        </CharString>
        <CharString name="ibreve">
          -227 213 -78 callsubr
          37 -98 -95 callsubr
          endchar
        </CharString>
        <CharString name="icircumflex">
          -227 74 567 rmoveto
          118 81 82 -81 34 21 -65 142 rlineto
          -77 hlineto
          -118 -136 rlineto
          66 -604 -63 callsubr
        </CharString>
        <CharString name="idieresis">
          -227 154 650 rmoveto
          38 -32 30 -36 -37 -34 -30 -38 -37 34 -29 37 49 callgsubr
          vhcurveto
          195 hmoveto
          38 -32 30 -36 -35 callgsubr
          -29 37 49 callgsubr
          vhcurveto
          -99 -161 -95 callsubr
          endchar
        </CharString>
        <CharString name="igrave">
          -227 273 570 -57 callsubr
          67 -687 -63 callsubr
        </CharString>
        <CharString name="ij">
          50 -15 callgsubr
          290 -137 -45 callsubr
          -263 -95 -46 callsubr
          24 -667 rmoveto
          15 callgsubr
          hvcurveto
          -23 callsubr
          -85 callgsubr
          vhcurveto
          endchar
        </CharString>
        <CharString name="imacron">
          -227 79 14 callgsubr
          -61 -185 -95 callsubr
          endchar
        </CharString>
        <CharString name="infinity">
          181 355 350 rmoveto
          39 -30 -53 56 -79 hhcurveto
          -125 -26 -85 -58 -59 26 -86 125 79 53 57 40 30 hvcurveto
          -40 30 54 -57 81 hhcurveto
          120 27 83 62 60 -27 83 -120 -81 -54 -56 -39 -30 hvcurveto
          -241 -48 rmoveto
          30 11 47 66 60 45 -51 -26 22 vhcurveto
          -27 -23 -44 -52 -60 hhcurveto
          -66 -11 48 31 hvcurveto
          483 hmoveto
          -31 -11 -48 -67 -62 -44 52 27 -22 vhcurveto
          26 22 44 51 62 hhcurveto
          67 11 -47 -30 hvcurveto
          endchar
        </CharString>
        <CharString name="integral">
          -109 119 -134 rmoveto
          79 63 44 89 hvcurveto
          594 vlineto
          44 23 15 21 12 12 -3 -7 7 vhcurveto
          12 -64 rlineto
          44 hlineto
          15 98 rlineto
          15 -19 -56 10 -25 hhcurveto
          -79 -62 -44 -89 hvcurveto
          -594 vlineto
          -44 -23 -15 -22 -12 -11 3 6 -8 vhcurveto
          -12 64 rlineto
          -43 hlineto
          -15 -98 rlineto
          -15 19 56 -9 24 hhcurveto
          endchar
        </CharString>
        <CharString name="iogonek">
          -227 225 721 rmoveto
          -37 -32 -31 59 callgsubr
          38 32 31 37 38 -33 31 -37 hvcurveto
          27 -232 rmoveto
          14 -7 8 -13 -29 -78 -15 -20 -68 vhcurveto
          8 -36 69 6 callgsubr
          9 12 1 2 12 vhcurveto
          -87 -68 -12 -58 -29 17 callgsubr
          -26 -15 15 28 29 21 78 93 48 hvcurveto
          42 -79 vlineto
          32 148 53 267 14 vvcurveto
          endchar
        </CharString>
        <CharString name="itilde">
          -227 260 590 rmoveto
          34 25 41 callsubr
          -40 48 callgsubr
          -69 38 -43 -18 callgsubr
          71 -38 43 hhcurveto
          -146 -600 -63 callsubr
        </CharString>
        <CharString name="j">
          -243 219 -10 callgsubr
          -239 -762 rmoveto
          15 callgsubr
          hvcurveto
          -23 callsubr
          -85 callgsubr
          vhcurveto
          endchar
        </CharString>
        <CharString name="jcircumflex">
          -243 308 567 -86 callgsubr
          32 -160 rmoveto
          -85 callgsubr
          15 callgsubr
          vhcurveto
          -23 callsubr
          endchar
        </CharString>
        <CharString name="k">
          -12 159 5 rmoveto
          60 338 rlineto
          46 36 74 44 40 hhcurveto
          22 17 callsubr
          44 7 21 62 -10 callsubr
          -95 -62 -41 -34 vhcurveto
          24 134 28 150 18 vvcurveto
          13 -6 11 -18 -37 -70 -14 -22 -65 -19 callgsubr
          73 -9 -130 -664 rlineto
          endchar
        </CharString>
        <CharString name="kcommaaccent">
          -18 34 -10 rmoveto
          122 15 60 338 rlineto
          46 37 73 44 41 hhcurveto
          21 10 -8 -21 -55 -52 -49 -115 -31 hvcurveto
          -6 -16 rlineto
          0 53 -263 53 36 45 7 21 61 -10 callsubr
          -94 -62 -41 -35 vhcurveto
          24 134 28 150 18 vvcurveto
          13 -6 11 -17 -38 -70 -14 -22 -65 -19 callgsubr
          74 -9 rlineto
          5 -885 -6 callsubr
        </CharString>
        <CharString name="kgreenlandic">
          -3 168 5 rmoveto
          60 338 rlineto
          46 37 73 44 41 hhcurveto
          21 17 callsubr
          45 7 21 61 -10 callsubr
          -95 -62 -41 -34 vhcurveto
          5 34 7 25 18 vvcurveto
          13 -6 12 -18 -34 -84 -17 -20 -57 2 callgsubr
          rlineto
          endchar
        </CharString>
        <CharString name="l">
          -226 108 -10 -82 callgsubr
          endchar
        </CharString>
        <CharString name="lacute">
          -226 106 725 rmoveto
          230 91 2 21 -88 40 -164 -120 rlineto
          23 -767 -82 callgsubr
          endchar
        </CharString>
        <CharString name="lcaron">
          -199 109 -10 -82 callgsubr
          213 537 rmoveto
          34 hlineto
          43 190 -62 17 rlineto
          -31 hlineto
          endchar
        </CharString>
        <CharString name="lcommaaccent">
          -226 109 -10 -82 callgsubr
          -42 -221 24 callgsubr
          -36 -176 rlineto
          endchar
        </CharString>
        <CharString name="ldot">
          -226 108 -10 -82 callgsubr
          290 430 -9 callgsubr
        </CharString>
        <CharString name="less">
          -16 412 105 rmoveto
          38 63 -269 135 269 136 -38 63 -372 -199 rlineto
          endchar
        </CharString>
        <CharString name="lessequal">
          -20 421 110 rmoveto
          37 62 -269 131 269 132 -37 61 -373 -193 rlineto
          6 -292 rmoveto
          403 69 -403 hlineto
          endchar
        </CharString>
        <CharString name="logicalnot">
          10 406 123 rmoveto
          66 216 -405 -70 339 hlineto
          endchar
        </CharString>
        <CharString name="longs">
          -213 346 734 rmoveto
          -123 -34 -50 -189 -37 hvcurveto
          11 callgsubr
          95 499 16 80 16 20 65 1 rlinecurve
          24 27 -4 -5 28 hvcurveto
          17 54 rlineto
          17 -34 -47 13 -37 hhcurveto
          endchar
        </CharString>
        <CharString name="lozenge">
          -60 210 -1 rmoveto
          52 hlineto
          184 307 -184 307 rlineto
          -52 hlineto
          -184 -307 rlineto
          210 -218 rmoveto
          -125 218 125 218 123 -218 rlineto
          endchar
        </CharString>
        <CharString name="lslash">
          -221 224 365 rmoveto
          116 54 -24 51 -80 -37 45 250 rlineto
          2 13 1 9 5 vvcurveto
          13 -6 11 -17 -39 -78 -16 -21 -58 -19 callgsubr
          74 -9 -11 -62 -21 -107 -21 -108 rlinecurve
          -116 -54 23 -52 79 37 rlineto
          -25 -133 -23 -118 -12 vvcurveto
          -38 21 -16 38 28 53 9 20 58 vhcurveto
          42 -81 vlineto
          endchar
        </CharString>
        <CharString name="m">
          283 46 -10 rmoveto
          122 59 callsubr
          41 36 62 46 33 hhcurveto
          20 2 -13 -22 -28 -50 -226 -29 -150 hvcurveto
          122 15 61 339 rlineto
          40 36 62 45 34 hhcurveto
          18 2 -11 -20 hvcurveto
          -41 -71 -271 -32 vvcurveto
          -55 32 -9 42 33 48 11 17 38 vhcurveto
          42 -81 vlineto
          28 129 49 225 34 vvcurveto
          45 -15 18 -45 -55 -88 -47 -56 -56 vhcurveto
          3 17 2 16 9 vvcurveto
          38 -22 23 -37 -61 -88 -49 -56 -55 vhcurveto
          3 18 9 47 12 vvcurveto
          5 -2 21 -21 -37 -80 -16 -20 -57 vhcurveto
          7 -35 73 -9 rlineto
          endchar
        </CharString>
        <CharString name="macron">
          -275 92 -1 callsubr
          endchar
        </CharString>
        <CharString name="macron.case">
          -275 98 753 -23 callgsubr
          endchar
        </CharString>
        <CharString name="minus">
          -20 53 269 58 callsubr
          endchar
        </CharString>
        <CharString name="multiply">
          -16 115 123 rmoveto
          133 133 133 -131 49 50 -132 130 132 132 -51 49 -131 -130 -131 132 -51 -50 132 -133 -132 -131 rlineto
          endchar
        </CharString>
        <CharString name="n">
          38 238 406 -87 callgsubr
          endchar
        </CharString>
        <CharString name="nacute">
          38 267 570 7 callgsubr
          -5 -193 19 callgsubr
          -40 -76 -18 -19 -58 vhcurveto
          7 -35 73 -9 -87 -439 -71 callsubr
          endchar
        </CharString>
        <CharString name="nacute.loclPLK">
          38 313 -44 callsubr
          -48 -170 -87 callgsubr
          endchar
        </CharString>
        <CharString name="napostrophe">
          70 32 callsubr
          64 -328 -87 callgsubr
          endchar
        </CharString>
        <CharString name="ncaron">
          38 252 733 -49 callsubr
          -120 -82 rlineto
          -104 -245 19 callgsubr
          -40 -76 -18 -19 -58 vhcurveto
          7 -35 73 -9 -87 -439 -71 callsubr
          endchar
        </CharString>
        <CharString name="ncommaaccent">
          38 46 -10 rmoveto
          -71 callsubr
          4 18 9 49 11 vvcurveto
          15 -9 11 -16 -40 -76 -18 -19 -58 vhcurveto
          7 -35 73 -9 rlineto
          69 -660 -6 callsubr
        </CharString>
        <CharString name="nine">
          -26 56 -16 rmoveto
          207 3 214 154 296 vvcurveto
          104 -54 87 -125 -196 -53 -163 -70 -99 35 -63 111 65 46 21 25 37 vhcurveto
          -30 -126 -124 -103 -140 -20 rrcurveto
          192 274 rmoveto
          -53 -26 36 72 89 45 63 69 68 23 -40 -71 -33 -4 -42 -7 -33 hvcurveto
          -19 -31 -37 -22 -47 hhcurveto
          endchar
        </CharString>
        <CharString name="nine.dnom">
          53 1 rmoveto
          24 -5 26 -1 30 3 98 15 106 66 32 155 rrcurveto
          5 24 3 24 26 vvcurveto
          72 -30 61 10 callsubr
          5 15 33 vhcurveto
          -21 -78 -62 -43 -59 -12 -22 -5 -23 -1 -20 3 rrcurveto
          155 177 rmoveto
          -39 -14 21 40 57 30 48 40 callsubr
          -8 -19 hhcurveto
          endchar
        </CharString>
        <CharString name="nine.numr">
          53 173 rmoveto
          21 -5 23 -2 26 2 101 12 113 67 33 161 rrcurveto
          4 23 3 24 25 vvcurveto
          71 -30 62 10 callsubr
          4 16 33 vhcurveto
          -22 -81 -68 -44 -61 -11 -19 -3 -19 0 -18 3 47 callsubr
          22 40 57 30 48 49 32 18 -19 -42 -21 -2 -32 -8 -29 hvcurveto
          -16 -22 -25 -8 -19 hhcurveto
          endchar
        </CharString>
        <CharString name="nine.osf">
          -26 39 -100 rmoveto
          208 213 172 251 121 -50 93 -140 -176 -63 -143 -95 -88 55 -70 100 56 49 22 25 35 hvcurveto
          -30 -123 -124 -99 -140 -19 rrcurveto
          194 266 rmoveto
          -55 -26 36 71 90 42 63 77 63 23 -42 -72 -29 -4 -43 -7 -33 hvcurveto
          -18 -28 -41 -23 -44 hhcurveto
          endchar
        </CharString>
        <CharString name="notequal">
          -20 159 70 rmoveto
          66 113 rlineto
          232 69 -192 hlineto
          60 103 rlineto
          132 70 -92 hlineto
          46 77 -61 36 -66 -113 rlineto
          -231 -70 191 hlineto
          -59 -103 rlineto
          -132 -69 91 hlineto
          -45 -78 rlineto
          endchar
        </CharString>
        <CharString name="ntilde">
          38 511 690 rmoveto
          -39 48 callgsubr
          9 callsubr
          33 25 41 callsubr
          -272 -284 19 callgsubr
          -40 -76 -18 -19 -58 vhcurveto
          7 -35 73 -9 -87 -439 -71 callsubr
          endchar
        </CharString>
        <CharString name="numbersign">
          32 406 230 rmoveto
          27 97 rlineto
          108 hlineto
          18 68 rlineto
          -107 hlineto
          47 171 rlineto
          -73 hlineto
          -47 -171 rlineto
          -122 hlineto
          49 171 rlineto
          -74 hlineto
          -48 -171 rlineto
          -119 hlineto
          -20 -68 rlineto
          121 hlineto
          -26 -97 rlineto
          -119 hlineto
          -19 -67 rlineto
          119 hlineto
          -47 -171 rlineto
          73 hlineto
          47 171 rlineto
          122 hlineto
          -48 -171 rlineto
          73 hlineto
          48 171 rlineto
          107 hlineto
          21 67 rlineto
          -305 hmoveto
          26 97 rlineto
          123 hlineto
          -27 -97 rlineto
          endchar
        </CharString>
        <CharString name="o">
          -28 319 511 -101 callgsubr
        </CharString>
        <CharString name="oacute">
          -28 234 570 -98 callgsubr
          108 -88 -101 callgsubr
        </CharString>
        <CharString name="oacute.loclPLK">
          -28 280 -44 callsubr
          66 -65 -101 callgsubr
        </CharString>
        <CharString name="obreve">
          -28 312 -78 callsubr
          7 -76 -101 callgsubr
        </CharString>
        <CharString name="ocircumflex">
          -28 415 13 callsubr
          -10 -80 callsubr
          endchar
        </CharString>
        <CharString name="odieresis">
          -28 274 650 rmoveto
          -60 callgsubr
          -29 37 37 31 29 37 vhcurveto
          218 hmoveto
          38 -32 -7 callgsubr
          32 29 37 vhcurveto
          -173 -139 -101 callgsubr
        </CharString>
        <CharString name="oe">
          202 180 -10 rmoveto
          72 62 25 45 49 hvcurveto
          -47 26 47 -23 63 hhcurveto
          76 49 21 22 36 hvcurveto
          -10 43 rlineto
          -12 -32 -35 -6 -28 hhcurveto
          -76 -24 34 75 26 1 16 4 27 hvcurveto
          184 100 67 110 66 -51 32 -69 -73 -58 -27 -41 -43 hvcurveto
          41 -21 -41 27 -69 hhcurveto
          -171 -118 -134 -235 -93 47 -59 103 hvcurveto
          27 60 rmoveto
          -47 -12 36 55 119 30 190 117 47 11 -36 -54 -134 -33 -176 -113 hvcurveto
          261 233 rmoveto
          105 20 46 61 64 hhcurveto
          34 9 -22 -25 -75 -69 -44 -104 hvcurveto
          endchar
        </CharString>
        <CharString name="ogonek">
          -275 101 -12 callsubr
        </CharString>
        <CharString name="ograve">
          -28 403 54 callgsubr
          -2 -21 rlineto
          2 -687 rmoveto
          -64 callgsubr
          -12 callgsubr
          -171 -118 -134 -235 -93 47 -59 103 hvcurveto
          27 60 -63 callgsubr
        </CharString>
        <CharString name="ohorn">
          -28 577 532 -93 callsubr
        </CharString>
        <CharString name="ohungarumlaut">
          -28 196 -44 callsubr
          188 -19 rmoveto
          150 158 rlineto
          20 -86 vlineto
          -91 -159 rlineto
          -11 -65 -101 callgsubr
        </CharString>
        <CharString name="omacron">
          -28 201 14 callgsubr
          -114 -163 -101 callgsubr
        </CharString>
        <CharString name="one">
          -26 435 43 rmoveto
          -145 27 97 547 -275 -40 -9 -44 rlineto
          158 hlineto
          -82 -462 57 callsubr
        </CharString>
        <CharString name="one.dnom">
          -134 91 365 rmoveto
          114 hlineto
          -70 -15 callsubr
          -32 rlineto
          endchar
        </CharString>
        <CharString name="one.numr">
          -134 95 537 rmoveto
          114 hlineto
          -71 -15 callsubr
          -32 rlineto
          endchar
        </CharString>
        <CharString name="one.osf">
          -27 435 43 rmoveto
          -145 27 83 467 -276 -40 -8 -44 rlineto
          157 hlineto
          -67 -382 57 callsubr
        </CharString>
        <CharString name="oneeighth">
          392 288 -18 callsubr
          -75 hlineto
          -414 -97 rmoveto
          114 hlineto
          -71 -15 callsubr
          -32 rlineto
          571 -579 -94 callgsubr
        </CharString>
        <CharString name="onehalf">
          384 262 18 callsubr
          -369 54 callsubr
          -6 -36 rlineto
          114 hlineto
          314 -537 rmoveto
          310 hlineto
          30 116 rlineto
          -46 hlineto
          -37 -54 -159 -7 127 98 rlineto
          95 75 41 56 67 vvcurveto
          59 -42 31 -83 -56 -62 -18 -22 -40 vhcurveto
          19 -46 rlineto
          17 42 26 7 34 hhcurveto
          41 19 -18 -30 25 callsubr
          rlineto
          endchar
        </CharString>
        <CharString name="onequarter">
          384 268 -18 callsubr
          -75 hlineto
          -377 54 callsubr
          -7 -36 rlineto
          115 hlineto
          484 -537 rmoveto
          -8 callgsubr
          -37 -177 rlineto
          endchar
        </CharString>
        <CharString name="ordfeminine">
          -94 362 428 rmoveto
          43 228 -44 9 -22 -22 rlineto
          0 -32 11 -40 -133 45 callsubr
          31 vhcurveto
          -1 -8 -2 -15 -7 vvcurveto
          -24 10 -14 40 8 callgsubr
          29 128 87 13 14 -4 -6 11 hvcurveto
          -14 -71 -23 50 callsubr
        </CharString>
        <CharString name="ordmasculine">
          -128 268 -5 callsubr
          24 137 84 51 callgsubr
        </CharString>
        <CharString name="oslash">
          -28 107 -92 -46 callgsubr
        </CharString>
        <CharString name="oslashacute">
          -28 234 570 -98 callgsubr
          -104 -691 -46 callgsubr
        </CharString>
        <CharString name="otilde">
          -28 472 690 rmoveto
          -40 48 callgsubr
          -76 38 -44 -18 callgsubr
          79 -38 43 hhcurveto
          34 25 44 56 23 hvcurveto
          -153 -179 -101 callgsubr
        </CharString>
        <CharString name="p">
          15 12 -188 rmoveto
          125 16 27 175 rlineto
          -6 20 20 -3 34 hhcurveto
          196 78 188 192 104 -47 34 -65 -62 -55 -41 -54 -45 hvcurveto
          2 9 9 46 16 vvcurveto
          14 -9 10 -17 -39 -79 -16 -20 -57 27 callgsubr
          rlineto
          112 -378 rmoveto
          -25 -26 6 13 -14 hvcurveto
          49 274 rlineto
          40 29 57 49 39 hhcurveto
          33 11 -36 -42 -115 -27 -189 -126 hvcurveto
          endchar
        </CharString>
        <CharString name="paragraph">
          3 229 216 rmoveto
          7 9 1 1 7 hvcurveto
          77 397 rlineto
          1 -7 -5 1 -10 hhcurveto
          -139 -98 -117 -131 -87 53 -66 106 hvcurveto
          -76 -216 rmoveto
          287 hlineto
          8 40 -79 24 93 484 88 25 9 40 rlineto
          -188 hlineto
          -106 -548 -105 -24 rlineto
          endchar
        </CharString>
        <CharString name="parenleft">
          -211 169 265 rmoveto
          29 150 40 202 147 59 -4 38 rcurveline
          -200 -56 -56 -104 -57 -289 rrcurveto
          -18 -93 -11 -73 -60 vvcurveto
          -124 47 -61 121 -36 vhcurveto
          18 36 rlineto
          -66 32 -20 71 82 vvcurveto
          74 16 82 14 70 vhcurveto
          endchar
        </CharString>
        <CharString name="parenright">
          -211 150 265 rmoveto
          -29 -149 -40 -202 -147 -60 4 -36 rcurveline
          199 54 55 106 56 287 rrcurveto
          19 94 11 75 59 vvcurveto
          124 -47 59 -119 38 vhcurveto
          -19 -38 rlineto
          66 -31 20 -71 -82 vvcurveto
          -73 -16 -84 -13 -70 vhcurveto
          endchar
        </CharString>
        <CharString name="partialdiff">
          21 57 667 rmoveto
          23 -34 rlineto
          20 48 25 8 45 hhcurveto
          139 24 -94 -139 11 hvcurveto
          2 -49 25 -72 -128 -89 -91 -140 -132 59 -102 157 108 143 58 284 270 -102 127 -170 -66 -60 -17 -45 -46 vhcurveto
          202 -616 rmoveto
          -77 -27 55 116 100 29 74 93 43 32 -17 -18 27 hvcurveto
          2 -34 1 -14 -35 vvcurveto
          -150 -35 -77 -88 vhcurveto
          endchar
        </CharString>
        <CharString name="percent">
          384 174 44 callsubr
          -75 -141 -2 callsubr
          -43 18 75 135 64 62 72 48 4 callgsubr
          467 -256 rmoveto
          126 94 -11 callgsubr
          17 80 rmoveto
          -40 -44 18 76 150 79 46 58 48 4 callgsubr
          endchar
        </CharString>
        <CharString name="period">
          -318 153 63 rmoveto
          41 -34 33 -41 -39 -35 -33 -41 -40 35 -31 39 41 34 31 40 vhcurveto
          endchar
        </CharString>
        <CharString name="periodcentered">
          -302 195 257 -9 callgsubr
        </CharString>
        <CharString name="perthousand">
          770 178 44 callsubr
          -76 -140 -2 callsubr
          -44 18 75 135 64 62 73 48 4 callgsubr
          467 -256 rmoveto
          126 94 -11 callgsubr
          386 hmoveto
          127 93 -11 callgsubr
          -370 80 rmoveto
          -39 -44 18 76 150 79 46 58 47 4 callgsubr
          387 hmoveto
          -40 -44 18 76 150 79 46 58 48 4 callgsubr
          endchar
        </CharString>
        <CharString name="pi">
          113 82 50 rmoveto
          -38 vlineto
          -12 44 24 -5 34 hhcurveto
          59 12 35 53 hvcurveto
          332 143 -258 vlineto
          -148 44 -15 78 21 40 7 19 39 vhcurveto
          -6 42 rlineto
          -45 hlineto
          -53 -21 32 48 hvcurveto
          273 30 vlineto
          62 27 41 93 hvcurveto
          16 -57 vlineto
          -40 -18 -15 -32 vhcurveto
          -368 hlineto
          -79 -39 -59 -76 hvcurveto
          44 -11 rlineto
          39 21 17 12 51 hhcurveto
          8 -341 hlineto
          endchar
        </CharString>
        <CharString name="plus">
          -20 217 32 callgsubr
          -166 -70 166 hlineto
          endchar
        </CharString>
        <CharString name="plusminus">
          -16 222 32 callgsubr
          -167 -70 167 hlineto
          -167 -258 rmoveto
          404 69 -404 hlineto
          endchar
        </CharString>
        <CharString name="product">
          155 37 hmoveto
          290 41 hlineto
          -87 22 rlineto
          487 206 -487 vlineto
          -86 -22 rlineto
          -41 289 41 vlineto
          -87 22 rlineto
          487 vlineto
          87 22 rlineto
          41 -613 -41 vlineto
          87 -22 rlineto
          -487 vlineto
          -86 -22 rlineto
          endchar
        </CharString>
        <CharString name="q">
          -20 496 519 rmoveto
          -52 8 -34 -33 rlineto
          10 -30 -29 7 -47 hhcurveto
          -163 -111 -143 -237 -112 59 -28 53 58 54 29 59 45 hvcurveto
          -51 -268 121 15 12 104 rlineto
          0 114 587 1 2 vhcurveto
          -183 -363 rmoveto
          -44 -26 -57 -46 -36 hhcurveto
          -29 -16 19 53 136 34 178 120 28 27 -12 -10 10 hvcurveto
          -95 -19 -35 -179 -1 hhcurveto
          endchar
        </CharString>
        <CharString name="question">
          -154 138 159 rmoveto
          14 22 3 0 hvcurveto
          7 34 rlineto
          -10 -22 2 19 20 32 25 61 43 hvcurveto
          112 81 36 51 66 vvcurveto
          79 -62 47 -87 -76 -59 -26 -17 -28 vhcurveto
          17 -46 rlineto
          0 63 24 44 47 28 -20 -55 -28 -14 -43 -102 -86 vhcurveto
          -61 -51 -35 -35 -31 vvcurveto
          -44 25 -12 48 vhcurveto
          -44 -171 rmoveto
          36 28 27 35 36 -28 29 -36 -35 -30 -29 -36 -35 30 -27 35 hvcurveto
          endchar
        </CharString>
        <CharString name="questiondown">
          -154 300 384 rmoveto
          34 30 29 36 35 -30 26 -34 -37 -28 -26 -35 -36 28 -29 37 hvcurveto
          -146 -514 rmoveto
          71 63 26 17 28 hvcurveto
          -16 45 rlineto
          0 -63 -24 -45 -47 -28 21 54 29 14 43 103 86 vhcurveto
          60 50 36 35 31 vvcurveto
          45 -26 12 -48 -14 -21 -3 0 vhcurveto
          -7 -34 rlineto
          10 22 -2 -19 -20 -33 -25 -60 -43 hvcurveto
          -112 -81 -36 -51 -66 vvcurveto
          -80 62 -46 87 vhcurveto
          endchar
        </CharString>
        <CharString name="quotedbl">
          -227 90 43 callsubr
          47 hmoveto
          -9 -232 rlineto
          32 hlineto
          80 232 rlineto
          endchar
        </CharString>
        <CharString name="quotedblbase">
          -172 2 -123 rmoveto
          133 221 -20 24 -97 -21 -55 -216 rlineto
          204 -8 rmoveto
          133 221 -19 24 -98 -21 -56 -216 rlineto
          endchar
        </CharString>
        <CharString name="quotedblleft">
          -183 192 30 callsubr
          125 8 rmoveto
          -133 -222 20 -23 97 20 56 217 rlineto
          endchar
        </CharString>
        <CharString name="quotedblright">
          -183 90 430 rmoveto
          134 221 -20 24 -98 -22 -55 -215 rlineto
          204 -8 rmoveto
          133 221 -18 24 -98 -22 -56 -215 rlineto
          endchar
        </CharString>
        <CharString name="quoteleft">
          -348 195 30 callsubr
          endchar
        </CharString>
        <CharString name="quoteright">
          -348 94 430 rmoveto
          133 221 -20 24 -97 -22 -55 -215 rlineto
          endchar
        </CharString>
        <CharString name="quotesinglbase">
          -331 13 -117 rmoveto
          127 213 -15 24 -94 -21 -54 -209 rlineto
          endchar
        </CharString>
        <CharString name="quotesingle">
          -376 101 43 callsubr
          endchar
        </CharString>
        <CharString name="r">
          -27 callgsubr
          endchar
        </CharString>
        <CharString name="racute">
          -126 219 570 6 callsubr
          -149 -609 -87 callsubr
          endchar
        </CharString>
        <CharString name="radical">
          -26 513 694 rmoveto
          97 18 -1 43 rlineto
          -153 hlineto
          -185 -626 -103 363 rlineto
          -161 -44 hlineto
          60 -19 145 -443 82 9 rlineto
          endchar
        </CharString>
        <CharString name="rcaron">
          -126 244 568 rmoveto
          76 hlineto
          122 137 -27 28 -121 -82 -91 82 -36 -22 rlineto
          -121 -721 -87 callsubr
          endchar
        </CharString>
        <CharString name="rcommaaccent">
          -27 callgsubr
          -85 -660 -43 callgsubr
        </CharString>
        <CharString name="registered">
          -31 250 210 rmoveto
          7 callsubr
          -133 109 -110 134 hvcurveto
          32 vmoveto
          -114 -94 96 115 22 callgsubr
          hvcurveto
          -126 64 rmoveto
          131 21 hlineto
          -35 8 rlineto
          106 6 vlineto
          24 2 -1 -134 53 hvcurveto
          89 21 hlineto
          -28 8 -14 24 -9 19 -8 16 rlinecurve
          -19 39 -4 12 -19 8 rrcurveto
          48 15 16 37 32 vvcurveto
          35 -27 40 -78 vhcurveto
          -128 -22 hlineto
          33 -8 rlineto
          -247 vlineto
          -33 -8 rlineto
          96 140 rmoveto
          116 vlineto
          2 7 5 0 4 hhcurveto
          37 16 -23 -31 -37 -16 -27 -33 hvcurveto
          endchar
        </CharString>
        <CharString name="ring">
          -275 191 50 callgsubr
          -45 -58 -67 -47 30 53 callsubr
          11 40 41 27 7 -16 -22 -41 -10 -37 -41 hvcurveto
          endchar
        </CharString>
        <CharString name="ring.case">
          -275 204 631 -65 callgsubr
          endchar
        </CharString>
        <CharString name="s">
          246 449 -98 callsubr
          endchar
        </CharString>
        <CharString name="sacute">
          187 570 -98 callgsubr
          82 -150 -98 callsubr
          endchar
        </CharString>
        <CharString name="sacute.loclPLK">
          234 -44 callsubr
          39 -127 -98 callsubr
          endchar
        </CharString>
        <CharString name="scaron">
          176 12 callsubr
          -21 -202 -98 callsubr
          endchar
        </CharString>
        <CharString name="scedilla">
          246 449 rmoveto
          23 31 -5 -8 13 hvcurveto
          9 -78 rlineto
          43 hlineto
          34 124 rlineto
          20 -42 -49 9 -45 hhcurveto
          -128 -75 -65 -102 -59 28 -40 48 -20 hvcurveto
          78 -35 rlineto
          41 -19 8 -18 -23 vvcurveto
          -54 -38 -24 -61 -38 -24 6 8 -17 vhcurveto
          -6 88 rlineto
          -43 hlineto
          -35 -135 35 -18 46 -7 41 -3 rlinecurve
          -33 -62 -38 callsubr
          -63 hvcurveto
          18 36 rlineto
          124 5 75 65 112 vvcurveto
          55 -34 37 -46 21 vhcurveto
          -80 36 rlineto
          -33 15 -13 14 29 vvcurveto
          39 29 30 60 vhcurveto
          endchar
        </CharString>
        <CharString name="scircumflex">
          369 567 -86 callgsubr
          -37 -199 -98 callsubr
          endchar
        </CharString>
        <CharString name="scommaaccent">
          148 -10 rmoveto
          134 81 66 117 55 -34 37 -46 21 hvcurveto
          -80 36 rlineto
          -33 15 -13 14 29 vvcurveto
          39 29 30 60 23 31 -5 -8 13 vhcurveto
          9 -78 rlineto
          43 hlineto
          34 124 rlineto
          20 -42 -49 9 -45 hhcurveto
          -128 -75 -65 -102 -59 28 -40 48 -20 hvcurveto
          78 -35 rlineto
          41 -19 8 -18 -23 vvcurveto
          -54 -38 -24 -61 -38 -24 6 8 -17 vhcurveto
          -6 88 rlineto
          -43 hlineto
          -35 -135 rlineto
          -22 42 60 -7 45 hhcurveto
          -46 -221 -43 callgsubr
        </CharString>
        <CharString name="section">
          -130 346 588 rmoveto
          3 -85 rlineto
          47 hlineto
          38 128 rlineto
          0 -52 22 -82 -94 -84 -50 -85 -61 62 -39 157 -207 vhcurveto
          6 9 18 25 37 89 -158 104 61 vvcurveto
          52 53 8 37 19 19 -4 -4 11 vhcurveto
          -261 -446 rmoveto
          -44 hlineto
          -38 -130 rlineto
          0 57 -20 83 97 83 50 81 56 -62 39 -158 211 vhcurveto
          -13 -17 -12 -22 -27 -90 158 -98 -62 vvcurveto
          -51 -52 -15 -40 -24 -18 5 4 -12 vhcurveto
          endchar
        </CharString>
        <CharString name="semicolon">
          -304 146 55 callgsubr
          -41 -35 -35 -41 -42 35 -31 41 hvcurveto
          -114 -465 33 callgsubr
        </CharString>
        <CharString name="seven">
          -26 100 613 rmoveto
          -14 -80 rlineto
          319 hlineto
          -343 -530 100 -34 346 604 -15 40 rlineto
          endchar
        </CharString>
        <CharString name="seven.dnom">
          142 -19 -9 callsubr
          22 hlineto
          33 19 rlineto
          170 hlineto
          -233 -356 rlineto
          endchar
        </CharString>
        <CharString name="seven.numr">
          165 156 -9 callsubr
          27 hlineto
          29 20 38 callgsubr
          -233 -358 rlineto
          endchar
        </CharString>
        <CharString name="seven.osf">
          -26 84 526 rmoveto
          -14 -80 rlineto
          315 hlineto
          -136 -173 -119 -169 -80 -181 102 -27 rcurveline
          80 205 114 187 146 198 -14 40 rcurveline
          endchar
        </CharString>
        <CharString name="seveneighths">
          427 319 -18 callsubr
          -75 hlineto
          -375 -478 -9 callsubr
          27 hlineto
          29 20 38 callgsubr
          -233 -358 rlineto
          631 -186 -94 callgsubr
        </CharString>
        <CharString name="six">
          -43 callsubr
        </CharString>
        <CharString name="six.dnom">
          157 -8 rmoveto
          172 32 131 56 50 -31 45 34 callsubr
          34 94 68 45 52 12 13 4 14 2 14 1 -1 45 rcurveline
          -18 -18 -1 -3 -18 hvcurveto
          -98 -22 -123 -79 -31 -161 rrcurveto
          -4 -23 -3 -22 -20 vvcurveto
          -71 31 -50 8 callsubr
          1 17 3 19 hvcurveto
          28 24 39 26 33 hhcurveto
          30 9 -20 -28 -67 -31 -54 -59 hvcurveto
          endchar
        </CharString>
        <CharString name="six.numr">
          157 163 rmoveto
          171 34 128 58 51 -32 45 34 callsubr
          33 91 65 45 51 13 16 5 15 3 15 1 -1 45 rcurveline
          -18 -21 -2 -4 -20 hvcurveto
          -94 -22 -120 -78 -33 -156 rrcurveto
          -5 -23 -3 -22 -23 vvcurveto
          -71 32 -51 8 callsubr
          2 17 2 18 hvcurveto
          28 24 40 27 33 hhcurveto
          29 10 -20 -28 -67 -32 -54 -59 hvcurveto
          endchar
        </CharString>
        <CharString name="six.osf">
          -43 callsubr
        </CharString>
        <CharString name="slash">
          -162 360 688 rmoveto
          -85 hlineto
          -259 -802 rlineto
          83 hlineto
          endchar
        </CharString>
        <CharString name="space">
          -364 endchar
        </CharString>
        <CharString name="sterling">
          -26 209 169 rmoveto
          18 94 rlineto
          176 hlineto
          20 54 rlineto
          -185 hlineto
          8 42 rlineto
          116 23 21 86 81 hhcurveto
          17 19 -3 -6 17 hvcurveto
          4 -91 rlineto
          48 hlineto
          34 133 rlineto
          15 -39 -50 12 -57 hhcurveto
          -136 -59 -100 -204 -39 hvcurveto
          -89 hlineto
          -19 -54 rlineto
          97 hlineto
          -18 -95 rlineto
          -16 -83 -99 -40 0 vvcurveto
          4 -45 rlineto
          408 hlineto
          52 106 -23 16 -59 -52 -262 -12 43 23 49 37 11 51 rlinecurve
          endchar
        </CharString>
        <CharString name="summation">
          -8 424 458 rmoveto
          51 158 -470 -45 hlineto
          228 -318 -232 -314 rlineto
          -30 484 182 -51 vlineto
          -25 -91 rlineto
          -282 hlineto
          207 271 rlineto
          10 vlineto
          -193 272 rlineto
          259 hlineto
          endchar
        </CharString>
        <CharString name="t">
          -203 240 421 rmoveto
          111 64 -99 hlineto
          20 107 rlineto
          -53 -37 callsubr
          -26 16 -16 37 30 65 -27 callsubr
          -96 vlineto
          endchar
        </CharString>
        <CharString name="tbar">
          -203 351 421 rmoveto
          64 -99 vlineto
          20 107 rlineto
          -53 hlineto
          -70 -101 -106 -30 9 -40 rlineto
          77 hlineto
          -7 -33 -8 -40 -8 -42 rrcurveto
          -78 hlineto
          -9 -52 rlineto
          77 hlineto
          -21 -107 -20 -104 -17 vvcurveto
          -26 16 -16 37 30 65 -27 callsubr
          -96 vlineto
          38 201 rlineto
          107 52 -97 hlineto
          22 115 rlineto
          endchar
        </CharString>
        <CharString name="tcaron">
          -201 316 734 rmoveto
          16 -207 rlineto
          34 hlineto
          43 190 -62 17 rlineto
          -107 -313 rmoveto
          110 64 -98 hlineto
          19 107 rlineto
          -52 -37 callsubr
          -26 16 -16 37 30 65 9 19 62 vhcurveto
          41 -96 vlineto
          endchar
        </CharString>
        <CharString name="thorn">
          -6 4 -189 rmoveto
          121 17 6 37 10 61 10 73 rlinecurve
          -3 17 17 -2 24 hhcurveto
          212 72 200 179 104 -51 35 -67 -57 -56 -40 -50 -43 hvcurveto
          14 82 13 79 12 65 rrcurveto
          6 35 4 21 6 vvcurveto
          12 -7 12 -16 -41 -75 -16 -21 -58 27 callgsubr
          rlineto
          75 -599 rmoveto
          -27 -24 8 9 -14 hvcurveto
          21 131 12 75 11 72 rrcurveto
          39 33 59 48 31 hhcurveto
          28 17 -17 -58 -131 -40 -176 -107 hvcurveto
          endchar
        </CharString>
        <CharString name="three">
          -26 279 628 rmoveto
          -64 -67 -24 -30 -54 hvcurveto
          15 -52 rlineto
          24 59 48 10 33 hhcurveto
          56 24 -18 -43 -70 -53 -60 -130 -18 hvcurveto
          -52 vlineto
          80 75 -12 -80 -102 -79 -46 -100 -17 -37 0 8 -53 hvcurveto
          -11 -59 rlineto
          -13 47 35 0 60 hhcurveto
          162 112 79 135 65 -44 50 -78 17 hvcurveto
          74 32 75 60 83 vvcurveto
          75 -55 41 -113 vhcurveto
          endchar
        </CharString>
        <CharString name="three.dnom">
          259 441 -66 callsubr
        </CharString>
        <CharString name="three.numr">
          259 612 -41 callsubr
          endchar
        </CharString>
        <CharString name="three.osf">
          -26 270 537 rmoveto
          -81 -60 -26 -28 -52 hvcurveto
          15 -52 rlineto
          23 56 46 11 41 hhcurveto
          60 16 -25 -37 -68 -52 -61 -130 -18 hvcurveto
          -52 vlineto
          91 64 -16 -81 -95 -75 -48 -112 -28 -31 3 5 -41 hvcurveto
          -10 -58 rlineto
          -10 43 42 -4 47 hhcurveto
          172 112 81 124 71 -41 45 -82 25 hvcurveto
          73 31 77 58 88 vvcurveto
          72 -60 42 -100 vhcurveto
          endchar
        </CharString>
        <CharString name="threeeighths">
          431 340 18 callsubr
          -301 -22 -41 callsubr
          453 -618 -94 callgsubr
        </CharString>
        <CharString name="threequarters">
          384 323 -18 callsubr
          -76 hlineto
          -399 -470 rmoveto
          111 93 43 107 45 -27 34 -50 14 hvcurveto
          52 23 47 47 57 vvcurveto
          52 -48 26 -64 -53 -61 -18 -22 -42 vhcurveto
          12 -46 46 callgsubr
          -48 -88 -9 hvcurveto
          -1 -43 rlineto
          52 57 -7 -52 -70 -54 -26 -57 -22 -36 2 13 -39 hvcurveto
          -16 35 callsubr
          38 hhcurveto
          558 -164 21 callsubr
          -292 -316 6 -38 rlineto
          199 hlineto
          -112 56 rmoveto
          160 177 -37 -177 rlineto
          endchar
        </CharString>
        <CharString name="tilde">
          -275 367 690 rmoveto
          -40 48 callgsubr
          -76 38 -44 -18 callgsubr
          79 -38 43 hhcurveto
          34 25 44 56 23 hvcurveto
          endchar
        </CharString>
        <CharString name="tilde.case">
          -275 385 761 -91 callsubr
          endchar
        </CharString>
        <CharString name="tildecomb">
          -530 130 761 -91 callsubr
          endchar
        </CharString>
        <CharString name="trademark">
          333 83 279 rmoveto
          182 26 hlineto
          -53 13 rlineto
          284 73 vlineto
          14 -49 rlineto
          36 hlineto
          3 93 rlineto
          -327 hlineto
          3 -93 rlineto
          36 hlineto
          14 50 rlineto
          72 -285 hlineto
          -53 -13 rlineto
          460 -33 rmoveto
          56 7 94 274 10 -235 -48 -13 rlineto
          -26 176 26 vlineto
          -52 13 -11 289 50 12 rlineto
          27 -141 vlineto
          -92 -267 -94 267 rlineto
          -143 -27 hlineto
          47 -12 -12 -289 -46 -13 rlineto
          -26 146 26 vlineto
          -50 13 7 231 rlineto
          endchar
        </CharString>
        <CharString name="two">
          -26 -2 hmoveto
          410 hlineto
          34 136 -54 -1 -42 -52 -240 -13 184 147 rlineto
          125 100 63 78 99 vvcurveto
          104 -75 30 -87 -104 -56 -29 -28 -59 vhcurveto
          21 -55 rlineto
          20 50 44 15 50 hhcurveto
          61 30 -32 -43 -65 -28 -54 -89 -78 hvcurveto
          -248 -216 rlineto
          endchar
        </CharString>
        <CharString name="two.dnom">
          208 379 rmoveto
          41 19 -18 -30 -50 -41 -49 -49 -41 hvcurveto
          -174 -24 callsubr
        </CharString>
        <CharString name="two.numr">
          208 551 -30 callsubr
          endchar
        </CharString>
        <CharString name="two.osf">
          -26 4 hmoveto
          405 hlineto
          33 136 -53 -1 -47 -52 -225 -12 122 79 rlineto
          123 80 82 76 96 vvcurveto
          102 -93 33 -84 -77 -74 -27 -28 -53 vhcurveto
          21 -57 rlineto
          17 43 49 18 49 hhcurveto
          67 27 -33 -43 -59 -47 -49 -95 -74 hvcurveto
          -182 -142 rlineto
          endchar
        </CharString>
        <CharString name="u">
          38 135 -9 -104 callgsubr
          endchar
        </CharString>
        <CharString name="uacute">
          38 270 570 -98 callgsubr
          -111 -608 -102 callsubr
        </CharString>
        <CharString name="ubreve">
          38 345 -78 callsubr
          -210 -596 -104 callgsubr
          endchar
        </CharString>
        <CharString name="ucircumflex">
          38 233 567 rmoveto
          122 81 86 -81 34 21 -70 142 rlineto
          -76 hlineto
          -122 -136 rlineto
          -71 -603 -102 callsubr
        </CharString>
        <CharString name="udieresis">
          38 241 -19 callsubr
          49 callgsubr
          38 -32 30 -36 -35 callgsubr
          -29 37 hvcurveto
          -323 -593 -102 callsubr
        </CharString>
        <CharString name="ugrave">
          38 418 570 -57 callsubr
          -56 -686 -102 callsubr
        </CharString>
        <CharString name="uhorn">
          38 460 204 -100 callsubr
          endchar
        </CharString>
        <CharString name="uhungarumlaut">
          38 230 557 -4 callgsubr
          188 -19 -4 callgsubr
          -228 -585 -102 callsubr
        </CharString>
        <CharString name="umacron">
          38 225 604 rmoveto
          233 hlineto
          10 70 rlineto
          -233 hlineto
          -99 -683 -102 callsubr
        </CharString>
        <CharString name="underscore">
          -84 441 -72 rmoveto
          2 54 rlineto
          -441 hlineto
          -2 -54 rlineto
          endchar
        </CharString>
        <CharString name="uni00A0">
          -348 endchar
        </CharString>
        <CharString name="uni00AD">
          -244 276 206 rmoveto
          56 -265 -56 vlineto
          endchar
        </CharString>
        <CharString name="uni00B2">
          207 657 rmoveto
          42 19 -17 -31 -50 -41 -49 -48 -41 hvcurveto
          -174 -148 4 -43 rlineto
          307 hlineto
          30 116 -45 1 -38 -54 -156 -7 127 98 rlineto
          96 75 40 55 67 vvcurveto
          60 -42 30 -84 -56 -62 -18 -21 -40 vhcurveto
          19 -47 rlineto
          18 43 25 6 34 hhcurveto
          endchar
        </CharString>
        <CharString name="uni00B3">
          259 719 rmoveto
          -53 -61 -18 -23 -42 hvcurveto
          12 -45 46 callgsubr
          -49 -88 -9 hvcurveto
          -1 -42 rlineto
          52 57 -7 -52 -70 -54 -26 -56 -23 -36 1 14 -38 hvcurveto
          -17 35 callsubr
          38 hhcurveto
          111 93 42 108 45 -27 34 -50 14 hvcurveto
          53 23 47 47 57 28 callsubr
        </CharString>
        <CharString name="uni00B5">
          -54 callsubr
        </CharString>
        <CharString name="uni00B9">
          93 642 rmoveto
          115 hlineto
          -71 -15 callsubr
          -31 rlineto
          endchar
        </CharString>
        <CharString name="uni0162">
          -32 76 613 rmoveto
          -23 -152 rlineto
          46 hlineto
          36 90 rlineto
          116 hlineto
          -95 -488 -91 -16 callgsubr
          125 hlineto
          -38 -71 -38 callsubr
          -62 hvcurveto
          22 45 rlineto
          123 hlineto
          7 41 -82 22 95 488 rlineto
          115 -90 48 hlineto
          35 152 rlineto
          endchar
        </CharString>
        <CharString name="uni0163">
          -201 240 421 rmoveto
          110 64 -98 hlineto
          19 107 rlineto
          -52 -37 callsubr
          -24 13 -16 32 -2 vhcurveto
          -29 -55 -32 callgsubr
          -11 1 5 -9 vhcurveto
          -16 52 callgsubr
          35 hhcurveto
          60 79 33 callsubr
          16 32 33 3 45 8 44 14 rlinecurve
          41 -96 vlineto
          endchar
        </CharString>
        <CharString name="uni018F">
          90 261 -10 rmoveto
          192 147 169 239 158 -73 72 -172 -83 -63 -15 -24 -63 hvcurveto
          -19 -129 rlineto
          48 hlineto
          38 86 rlineto
          16 46 37 4 33 hhcurveto
          112 32 -56 -115 -19 -1 -21 -2 -20 hvcurveto
          -420 hlineto
          -10 -40 -4 -42 -43 vvcurveto
          -138 61 -82 164 vhcurveto
          13 61 rmoveto
          -90 -22 62 95 18 2 23 3 26 hvcurveto
          294 hlineto
          -117 -23 -58 -107 -106 hhcurveto
          endchar
        </CharString>
        <CharString name="uni019D">
          141 490 613 rmoveto
          -8 -41 76 -21 -76 -25 callsubr
          -165 -70 callsubr
          74 -21 -106 -561 rlineto
          -78 -14 -38 -25 -53 hhcurveto
          -25 -26 6 8 -22 hvcurveto
          -14 -47 rlineto
          -15 22 35 -17 45 hhcurveto
          87 50 60 98 19 hvcurveto
          36 194 36 194 15 87 216 -466 rcurveline
          82 11 107 551 37 callsubr
          endchar
        </CharString>
        <CharString name="uni01C4">
          589 857 798 -77 callsubr
          -975 -725 rmoveto
          275 hlineto
          231 120 197 206 128 -75 82 -169 hvcurveto
          -264 -67 callgsubr
          rlineto
          1082 116 -69 callsubr
          -765 54 -2 callgsubr
        </CharString>
        <CharString name="uni01C5">
          491 809 733 -59 callgsubr
          -911 -651 rmoveto
          -76 callgsubr
          631 -111 -89 callgsubr
          endchar
        </CharString>
        <CharString name="uni01C6">
          386 -89 callsubr
          557 742 -59 callgsubr
          6 -708 -89 callgsubr
          -604 122 -51 callgsubr
        </CharString>
        <CharString name="uni01C7">
          265 414 hmoveto
          -53 callsubr
          482 -150 -79 callgsubr
        </CharString>
        <CharString name="uni01C8">
          218 680 -10 callgsubr
          -266 -584 rmoveto
          -53 callsubr
          453 -178 rmoveto
          15 callgsubr
          hvcurveto
          -23 callsubr
          -85 callgsubr
          vhcurveto
          endchar
        </CharString>
        <CharString name="uni01C9">
          61 108 -10 -82 callgsubr
          415 594 -45 callsubr
          -239 -762 rmoveto
          15 callgsubr
          hvcurveto
          -23 callsubr
          -85 callgsubr
          vhcurveto
          endchar
        </CharString>
        <CharString name="uni01CA">
          475 490 613 -78 callgsubr
          -34 -763 -79 callgsubr
        </CharString>
        <CharString name="uni01CB">
          428 890 -10 callgsubr
          -400 29 -78 callgsubr
          -63 -791 rmoveto
          15 callgsubr
          hvcurveto
          -23 callsubr
          -85 callgsubr
          vhcurveto
          endchar
        </CharString>
        <CharString name="uni01CC">
          325 787 -10 callgsubr
          -549 -178 -87 callgsubr
          310 -584 rmoveto
          15 callgsubr
          hvcurveto
          -23 callsubr
          -85 callgsubr
          vhcurveto
          endchar
        </CharString>
        <CharString name="uni01CD">
          26 259 798 -77 callsubr
          -25 -547 -104 callsubr
          endchar
        </CharString>
        <CharString name="uni01CE">
          4 248 733 -59 callgsubr
          95 -441 -107 callgsubr
          endchar
        </CharString>
        <CharString name="uni01CF">
          -183 154 798 -77 callsubr
          -272 -725 rmoveto
          -76 callsubr
          endchar
        </CharString>
        <CharString name="uni01D0">
          -227 133 733 -59 callgsubr
          27 -162 -95 callsubr
          endchar
        </CharString>
        <CharString name="uni01D1">
          98 294 798 -77 callsubr
          -136 -735 -106 callsubr
          endchar
        </CharString>
        <CharString name="uni01D2">
          -28 232 733 -59 callgsubr
          -3 -140 -101 callgsubr
        </CharString>
        <CharString name="uni01D3">
          80 286 798 -77 callsubr
          134 -489 rmoveto
          61 315 -39 callgsubr
          -226 -105 callgsubr
          endchar
        </CharString>
        <CharString name="uni01D4">
          38 265 733 -59 callgsubr
          -220 -660 -104 callgsubr
          endchar
        </CharString>
        <CharString name="uni01D5">
          80 312 929 -23 callgsubr
          -206 -208 -96 callsubr
          -51 -485 rmoveto
          61 315 -39 callgsubr
          -226 -105 callgsubr
          endchar
        </CharString>
        <CharString name="uni01D6">
          38 267 808 -23 callgsubr
          -206 -208 -96 callsubr
          -397 -609 -104 callgsubr
          endchar
        </CharString>
        <CharString name="uni01D7">
          80 384 816 -98 callgsubr
          -3 -124 -96 callsubr
          -51 -485 rmoveto
          61 315 -39 callgsubr
          -226 -105 callgsubr
          endchar
        </CharString>
        <CharString name="uni01D8">
          38 339 695 -98 callgsubr
          -3 -124 -96 callsubr
          -397 -609 -104 callgsubr
          endchar
        </CharString>
        <CharString name="uni01D9">
          80 321 974 -77 callsubr
          -69 -180 -96 callsubr
          -51 -485 rmoveto
          61 315 -39 callgsubr
          -226 -105 callgsubr
          endchar
        </CharString>
        <CharString name="uni01DA">
          38 276 853 -77 callsubr
          -69 -180 -96 callsubr
          -397 -609 -104 callgsubr
          endchar
        </CharString>
        <CharString name="uni01DB">
          80 462 816 -57 callsubr
          122 -202 -96 callsubr
          -51 -485 rmoveto
          61 315 -39 callgsubr
          -226 -105 callgsubr
          endchar
        </CharString>
        <CharString name="uni01DC">
          38 417 695 -57 callsubr
          122 -202 -96 callsubr
          -397 -609 -104 callgsubr
          endchar
        </CharString>
        <CharString name="uni01EA">
          98 452 49 rmoveto
          106 78 55 141 146 vvcurveto
          123 -59 90 -166 -227 -123 -204 -213 -138 61 -82 165 34 31 5 8 29 vhcurveto
          -50 -46 -21 -45 -34 vvcurveto
          -37 24 -36 62 57 36 30 28 22 vhcurveto
          56 callsubr
          16 26 45 43 65 41 36 hvcurveto
          -287 159 rmoveto
          95 34 263 176 87 25 -59 -92 -150 -52 -214 -159 -90 -21 62 95 vhcurveto
          endchar
        </CharString>
        <CharString name="uni01EB">
          -28 296 -147 rmoveto
          -28 -13 15 28 38 48 73 36 32 hvcurveto
          82 59 50 110 151 vvcurveto
          -12 callgsubr
          -171 -118 -134 -235 -93 47 -59 103 24 22 3 5 22 vhcurveto
          -52 -47 -22 -46 -34 vvcurveto
          -38 21 -36 67 72 40 58 0 vhcurveto
          -17 20 rlineto
          -15 -21 -20 -7 -20 hhcurveto
          -148 288 rmoveto
          119 30 190 117 47 11 -36 -54 -134 -33 -176 -113 -47 -12 36 55 vhcurveto
          endchar
        </CharString>
        <CharString name="uni01F1">
          589 -12 hmoveto
          275 hlineto
          231 120 197 206 128 -75 82 -169 hvcurveto
          -264 -67 callgsubr
          rlineto
          1082 116 -69 callsubr
          -765 54 -2 callgsubr
        </CharString>
        <CharString name="uni01F2">
          491 -12 hmoveto
          -76 callgsubr
          631 -111 -89 callgsubr
          endchar
        </CharString>
        <CharString name="uni01F3">
          386 -89 callsubr
          653 -48 -89 callgsubr
          -604 122 -51 callgsubr
        </CharString>
        <CharString name="uni01F4">
          60 339 640 -98 callgsubr
          164 -116 -88 callsubr
        </CharString>
        <CharString name="uni01F5">
          -25 236 570 -98 callgsubr
          -81 -780 -95 callgsubr
        </CharString>
        <CharString name="uni0200">
          26 275 -73 callgsubr
          21 -614 -104 callsubr
          endchar
        </CharString>
        <CharString name="uni0201">
          4 254 -73 callsubr
          137 -505 -107 callgsubr
          endchar
        </CharString>
        <CharString name="uni0202">
          26 379 796 rmoveto
          -99 -32 -64 -66 -14 hvcurveto
          47 hlineto
          31 7 15 30 -84 callsubr
          49 -24 40 -78 vhcurveto
          -39 -618 -104 callsubr
          endchar
        </CharString>
        <CharString name="uni0203">
          4 353 723 rmoveto
          -99 -32 -63 -66 -14 hvcurveto
          47 hlineto
          30 7 15 31 -84 callsubr
          48 -24 40 -78 vhcurveto
          80 -513 -107 callgsubr
          endchar
        </CharString>
        <CharString name="uni0204">
          3 263 -73 callgsubr
          88 -394 -103 callsubr
          endchar
        </CharString>
        <CharString name="uni0205">
          -103 201 -73 callsubr
          73 -204 -107 callsubr
          endchar
        </CharString>
        <CharString name="uni0206">
          3 367 796 rmoveto
          -99 -32 -64 -66 -14 hvcurveto
          47 hlineto
          31 7 15 30 -84 callsubr
          49 -24 40 -78 vhcurveto
          28 -398 -103 callsubr
          endchar
        </CharString>
        <CharString name="uni0207">
          -103 300 723 rmoveto
          -99 -32 -63 -66 -14 hvcurveto
          47 hlineto
          30 7 15 31 -84 callsubr
          48 -24 40 -78 vhcurveto
          16 -212 -107 callsubr
          endchar
        </CharString>
        <CharString name="uni0208">
          -183 170 -73 callgsubr
          -226 -792 rmoveto
          -76 callsubr
          endchar
        </CharString>
        <CharString name="uni0209">
          -227 139 -73 callsubr
          69 -226 -95 callsubr
          endchar
        </CharString>
        <CharString name="uni020A">
          -183 274 796 rmoveto
          -99 -32 -64 -66 -14 hvcurveto
          47 hlineto
          31 7 15 30 -84 callsubr
          49 -24 40 -78 vhcurveto
          -286 -796 rmoveto
          -76 callsubr
          endchar
        </CharString>
        <CharString name="uni020B">
          -227 238 723 rmoveto
          -99 -32 -63 -66 -14 hvcurveto
          47 hlineto
          30 7 15 31 -84 callsubr
          48 -24 40 -78 vhcurveto
          12 -234 -95 callsubr
          endchar
        </CharString>
        <CharString name="uni020C">
          98 310 -73 callgsubr
          -90 -802 -106 callsubr
          endchar
        </CharString>
        <CharString name="uni020D">
          -28 238 -73 callsubr
          39 -204 -101 callgsubr
        </CharString>
        <CharString name="uni020E">
          98 414 796 rmoveto
          -99 -32 -64 -66 -14 hvcurveto
          47 hlineto
          31 7 15 30 -84 callsubr
          49 -24 40 -78 vhcurveto
          -150 -806 -106 callsubr
          endchar
        </CharString>
        <CharString name="uni020F">
          -28 337 723 rmoveto
          -99 -32 -63 -66 -14 hvcurveto
          47 hlineto
          30 7 15 31 -84 callsubr
          48 -24 40 -78 vhcurveto
          -18 -212 -101 callgsubr
        </CharString>
        <CharString name="uni0210">
          37 280 -73 callgsubr
          39 -792 rmoveto
          163 hlineto
          7 -28 callsubr
          100 27 65 -90 callsubr
          14 19 -32 callsubr
          endchar
        </CharString>
        <CharString name="uni0211">
          -126 189 -73 callsubr
          -185 -725 -87 callsubr
          endchar
        </CharString>
        <CharString name="uni0212">
          37 384 796 rmoveto
          -99 -32 -64 -66 -14 hvcurveto
          47 hlineto
          31 7 15 30 -84 callsubr
          49 -24 40 -78 vhcurveto
          -21 -796 rmoveto
          163 hlineto
          7 -28 callsubr
          100 27 65 -90 callsubr
          14 19 -32 callsubr
          endchar
        </CharString>
        <CharString name="uni0213">
          -126 288 723 rmoveto
          -99 -32 -63 -66 -14 hvcurveto
          47 hlineto
          30 7 15 31 -84 callsubr
          48 -24 40 -78 vhcurveto
          -242 -733 -87 callsubr
          endchar
        </CharString>
        <CharString name="uni0214">
          80 302 -73 callgsubr
          180 -556 rmoveto
          61 315 -39 callgsubr
          -226 -105 callgsubr
          endchar
        </CharString>
        <CharString name="uni0215">
          38 271 -73 callsubr
          -178 -724 -104 callgsubr
          endchar
        </CharString>
        <CharString name="uni0216">
          80 406 796 rmoveto
          -99 -32 -64 -66 -14 hvcurveto
          47 hlineto
          31 7 15 30 -84 callsubr
          49 -24 40 -78 vhcurveto
          120 -560 rmoveto
          61 315 -39 callgsubr
          -226 -105 callgsubr
          endchar
        </CharString>
        <CharString name="uni0217">
          38 370 723 rmoveto
          -99 -32 -63 -66 -14 hvcurveto
          47 hlineto
          30 7 15 31 -84 callsubr
          48 -24 40 -78 vhcurveto
          -235 -732 -104 callgsubr
          endchar
        </CharString>
        <CharString name="uni021A">
          -32 76 613 -59 callsubr
          -418 -844 -43 callgsubr
        </CharString>
        <CharString name="uni021B">
          -201 108 -16 rmoveto
          30 65 9 19 62 hvcurveto
          41 -96 vlineto
          71 368 rlineto
          110 64 -98 hlineto
          19 107 rlineto
          -52 -37 callsubr
          -26 16 -16 37 vhcurveto
          -26 -215 24 callgsubr
          -36 -176 rlineto
          endchar
        </CharString>
        <CharString name="uni0232">
          -22 226 753 -23 callgsubr
          -100 -181 -69 callgsubr
          endchar
        </CharString>
        <CharString name="uni0232.loclGUA">
          130 302 753 -23 callgsubr
          -321 -920 -100 callgsubr
        </CharString>
        <CharString name="uni0233">
          -67 197 -1 callsubr
          -366 -862 -82 callsubr
          endchar
        </CharString>
        <CharString name="uni0233.loclGUA">
          14 238 -1 callsubr
          -304 -844 -101 callsubr
        </CharString>
        <CharString name="uni0237">
          -243 254 488 rmoveto
          -85 callgsubr
          15 callgsubr
          vhcurveto
          -23 callsubr
          endchar
        </CharString>
        <CharString name="uni0259">
          -103 111 -19 rmoveto
          201 85 181 167 125 -64 48 -97 -76 -49 -21 -22 -36 hvcurveto
          10 -43 rlineto
          12 32 35 6 28 hhcurveto
          76 24 -34 -75 -25 -1 -18 -4 -26 hvcurveto
          -184 -100 -67 -110 -66 51 -32 69 hvcurveto
          26 62 rmoveto
          -34 -9 22 25 75 69 44 104 hvcurveto
          -105 -20 -47 -61 -63 hhcurveto
          endchar
        </CharString>
        <CharString name="uni0272">
          38 432 60 rmoveto
          28 129 48 222 36 vvcurveto
          44 -16 21 -45 -50 -87 -38 -68 -72 vhcurveto
          -55 callgsubr
          -82 -439 rlineto
          -78 -14 -39 -25 -52 hhcurveto
          -26 -26 6 8 -22 hvcurveto
          -14 -47 rlineto
          0 54 -32 69 15 callgsubr
          vhcurveto
          20 107 25 146 21 108 rrcurveto
          48 40 67 40 33 hhcurveto
          18 6 -12 -15 hvcurveto
          -40 -71 -276 -35 vvcurveto
          -48 27 -13 43 37 48 11 17 37 vhcurveto
          42 vlineto
          endchar
        </CharString>
        <CharString name="uni02B0">
          -101 40 270 rmoveto
          100 10 43 248 rlineto
          34 30 48 25 22 hhcurveto
          13 3 -8 -10 -16 -17 -73 -14 -63 hvcurveto
          -11 -47 -9 -43 -11 vvcurveto
          -37 20 -9 33 27 42 8 12 29 vhcurveto
          36 -59 vlineto
          21 95 34 157 27 vvcurveto
          33 -12 16 -34 -37 -67 -26 -47 -52 vhcurveto
          -2 1 rlineto
          20 114 17 93 9 16 callsubr
          endchar
        </CharString>
        <CharString name="uni02BC">
          -275 32 callsubr
          endchar
        </CharString>
        <CharString name="uni02C9">
          -275 94 684 63 callgsubr
          232 hlineto
          10 70 rlineto
          endchar
        </CharString>
        <CharString name="uni02E1">
          -298 97 270 rmoveto
          20 43 6 15 42 hvcurveto
          33 -57 vlineto
          16 86 67 367 21 16 callsubr
          -20 -110 -65 -318 -19 vvcurveto
          -28 19 -12 27 vhcurveto
          endchar
        </CharString>
        <CharString name="uni02E2">
          -203 206 604 rmoveto
          15 22 -4 -5 10 hvcurveto
          6 -60 rlineto
          35 hlineto
          26 97 rlineto
          14 -32 -35 8 -35 hhcurveto
          -97 -57 -47 -82 -47 20 -28 40 -15 hvcurveto
          59 -25 rlineto
          30 -13 6 -6 -20 vvcurveto
          -35 -27 -17 -45 -26 -17 3 5 -12 vhcurveto
          -5 65 rlineto
          -35 hlineto
          -26 -103 rlineto
          -15 30 45 -5 35 hhcurveto
          101 60 51 88 44 -24 27 -36 15 hvcurveto
          -62 26 rlineto
          -23 10 -9 8 17 vvcurveto
          29 20 20 43 vhcurveto
          endchar
        </CharString>
        <CharString name="uni0302">
          -530 70 643 -97 callsubr
          endchar
        </CharString>
        <CharString name="uni0304">
          -530 -157 753 -23 callgsubr
          endchar
        </CharString>
        <CharString name="uni0306">
          -530 -47 657 -99 callgsubr
          endchar
        </CharString>
        <CharString name="uni0307">
          -530 40 -47 callgsubr
          endchar
        </CharString>
        <CharString name="uni0308">
          -530 -76 721 -96 callsubr
          endchar
        </CharString>
        <CharString name="uni030A">
          -530 -51 631 -65 callgsubr
          endchar
        </CharString>
        <CharString name="uni030B">
          -530 -177 637 -60 callsubr
          188 -18 -60 callsubr
          endchar
        </CharString>
        <CharString name="uni030C">
          -530 -141 798 -77 callsubr
          endchar
        </CharString>
        <CharString name="uni030F">
          -530 -84 -73 callsubr
          endchar
        </CharString>
        <CharString name="uni030F.case">
          -530 -90 -73 callgsubr
          endchar
        </CharString>
        <CharString name="uni0311">
          -530 -36 723 rmoveto
          -99 -32 -63 -66 -14 hvcurveto
          47 hlineto
          30 7 15 31 -84 callsubr
          48 -24 40 -78 vhcurveto
          endchar
        </CharString>
        <CharString name="uni0311.case">
          -530 -22 796 rmoveto
          -99 -32 -64 -66 -14 hvcurveto
          47 hlineto
          31 7 15 30 -84 callsubr
          49 -24 40 -78 vhcurveto
          endchar
        </CharString>
        <CharString name="uni031B">
          -530 -168 530 rmoveto
          -6 -13 rlineto
          3 -13 2 -16 -12 vvcurveto
          -44 -29 -9 -41 vhcurveto
          -29 -49 rlineto
          13 hlineto
          86 92 41 72 15 -4 24 -9 18 hvcurveto
          endchar
        </CharString>
        <CharString name="uni0326">
          -530 -238 -231 -43 callgsubr
        </CharString>
        <CharString name="uni0327">
          -530 -241 -22 callsubr
        </CharString>
        <CharString name="uni0328">
          -530 -154 -12 callsubr
        </CharString>
        <CharString name="uni0394">
          -3 callsubr
        </CharString>
        <CharString name="uni03A9">
          -47 callsubr
        </CharString>
        <CharString name="uni03BC">
          -54 callsubr
        </CharString>
        <CharString name="uni1E0C">
          104 -12 hmoveto
          -76 callgsubr
          -27 -94 -102 callgsubr
        </CharString>
        <CharString name="uni1E0D">
          -1 -89 callsubr
          49 74 -66 callgsubr
          -1 -105 -102 callgsubr
        </CharString>
        <CharString name="uni1E24">
          159 -14 hmoveto
          -64 callsubr
          281 -81 -102 callgsubr
        </CharString>
        <CharString name="uni1E25">
          28 37 -10 -72 callsubr
          9 47 44 245 11 vvcurveto
          14 -7 11 -16 -40 -75 -16 -21 -58 vhcurveto
          8 -34 73 -9 rlineto
          42 -694 -102 callgsubr
        </CharString>
        <CharString name="uni1E44">
          141 504 -47 callgsubr
          -14 -106 -78 callgsubr
          endchar
        </CharString>
        <CharString name="uni1E45">
          38 363 -40 callgsubr
          -125 -177 -87 callgsubr
          endchar
        </CharString>
        <CharString name="uni1E5A">
          37 363 hmoveto
          163 hlineto
          7 -28 callsubr
          100 27 65 -90 callsubr
          14 19 -32 callsubr
          -76 -362 -102 callgsubr
        </CharString>
        <CharString name="uni1E5B">
          -27 callgsubr
          -47 -469 -102 callgsubr
        </CharString>
        <CharString name="uni1E62">
          -59 157 -10 -85 callsubr
          9 -30 -102 callgsubr
        </CharString>
        <CharString name="uni1E63">
          246 449 -98 callsubr
          -111 -489 -102 callgsubr
        </CharString>
        <CharString name="uni1E6C">
          -36 71 613 -59 callsubr
          -383 -653 -102 callgsubr
        </CharString>
        <CharString name="uni1E6D">
          -203 240 421 rmoveto
          111 64 -99 hlineto
          20 107 rlineto
          -53 -37 callsubr
          -26 16 -16 37 30 65 -27 callsubr
          -96 vlineto
          -77 -93 -102 callgsubr
        </CharString>
        <CharString name="uni1E92">
          -45 443 157 -69 callsubr
          -233 -40 -102 callgsubr
        </CharString>
        <CharString name="uni1E93">
          -143 271 -57 -89 callgsubr
          -147 17 -102 callgsubr
        </CharString>
        <CharString name="uni1E9E">
          52 340 -10 rmoveto
          126 99 89 99 80 -52 44 -94 16 hvcurveto
          168 217 2 33 rlineto
          28 -40 -71 31 -89 hhcurveto
          -152 -100 -94 -148 -29 hvcurveto
          -62 -322 -91 -22 -8 -41 rlineto
          229 hlineto
          8 42 -21 22 66 340 rlineto
          100 19 41 58 97 hhcurveto
          37 32 -9 -10 20 hvcurveto
          -192 -245 11 -33 rlineto
          112 47 -34 -62 -57 -36 -60 -66 -21 -16 6 6 -10 hvcurveto
          -8 91 rlineto
          -49 hlineto
          -33 -134 rlineto
          -21 34 49 -10 43 hhcurveto
          endchar
        </CharString>
        <CharString name="uni1EA0">
          26 340 178 -104 callsubr
          -124 -271 -102 callgsubr
        </CharString>
        <CharString name="uni1EA1">
          4 433 210 -107 callgsubr
          2 -106 -102 callgsubr
        </CharString>
        <CharString name="uni1EA2">
          26 344 670 -106 callgsubr
          -4 -492 -104 callsubr
          endchar
        </CharString>
        <CharString name="uni1EA3">
          4 309 549 -106 callgsubr
          124 -339 -107 callgsubr
          endchar
        </CharString>
        <CharString name="uni1EA4">
          26 485 689 rmoveto
          173 177 -6 20 rlineto
          -97 hlineto
          -101 -177 rlineto
          -9 -66 -97 callsubr
          -2 -539 -104 callsubr
          endchar
        </CharString>
        <CharString name="uni1EA5">
          4 489 621 rmoveto
          173 176 -7 20 rlineto
          -96 hlineto
          -102 -176 rlineto
          -26 -74 -86 callgsubr
          88 -438 -107 callgsubr
          endchar
        </CharString>
        <CharString name="uni1EA6">
          26 488 689 rmoveto
          34 13 -53 184 rlineto
          -74 hlineto
          -14 -17 rlineto
          64 -226 -97 callsubr
          -2 -539 -104 callsubr
          endchar
        </CharString>
        <CharString name="uni1EA7">
          4 485 620 rmoveto
          34 14 -53 183 rlineto
          -73 hlineto
          -15 -16 rlineto
          47 -234 -86 callgsubr
          94 -438 -107 callgsubr
          endchar
        </CharString>
        <CharString name="uni1EA8">
          26 486 757 -106 callgsubr
          -12 -114 -97 callsubr
          -31 -539 -104 callsubr
          endchar
        </CharString>
        <CharString name="uni1EA9">
          4 451 689 -106 callgsubr
          -20 -122 -86 callgsubr
          88 -438 -107 callgsubr
          endchar
        </CharString>
        <CharString name="uni1EAA">
          26 565 903 -91 callsubr
          -91 -260 -97 callsubr
          -31 -539 -104 callsubr
          endchar
        </CharString>
        <CharString name="uni1EAB">
          4 281 719 -41 callgsubr
          152 -509 rmoveto
          59 311 -45 7 20 17 -80 callgsubr
          22 -26 136 74 98 -70 -26 -31 -103 callgsubr
          36 40 7 21 54 vhcurveto
          -74 callgsubr
          -123 -55 rmoveto
          -36 -23 -58 -53 -34 hhcurveto
          -28 -17 19 60 162 55 142 104 19 19 -5 -10 18 hvcurveto
          -96 -19 -35 -183 -1 hhcurveto
          endchar
        </CharString>
        <CharString name="uni1EAC">
          26 474 643 -97 callsubr
          -31 -539 -104 callsubr
          -124 -271 -102 callgsubr
        </CharString>
        <CharString name="uni1EAD">
          4 431 567 -86 callgsubr
          88 -438 -107 callgsubr
          2 -106 -102 callgsubr
        </CharString>
        <CharString name="uni1EAE">
          26 344 780 -98 callgsubr
          33 -152 -99 callgsubr
          -14 -479 -104 callsubr
          endchar
        </CharString>
        <CharString name="uni1EAF">
          4 309 659 -98 callgsubr
          33 -152 -99 callgsubr
          114 -326 -107 callgsubr
          endchar
        </CharString>
        <CharString name="uni1EB0">
          26 422 780 -57 callsubr
          158 -230 -99 callgsubr
          -14 -479 -104 callsubr
          endchar
        </CharString>
        <CharString name="uni1EB1">
          4 387 659 -57 callsubr
          158 -230 -99 callgsubr
          114 -326 -107 callgsubr
          endchar
        </CharString>
        <CharString name="uni1EB2">
          26 366 810 -106 callgsubr
          -12 -153 -99 callgsubr
          -14 -479 -104 callsubr
          endchar
        </CharString>
        <CharString name="uni1EB3">
          4 331 689 -106 callgsubr
          -12 -153 -99 callgsubr
          114 -326 -107 callgsubr
          endchar
        </CharString>
        <CharString name="uni1EB4">
          26 559 901 -91 callsubr
          -205 -244 -99 callgsubr
          -14 -479 -104 callsubr
          endchar
        </CharString>
        <CharString name="uni1EB5">
          4 524 780 -91 callsubr
          -205 -244 -99 callgsubr
          114 -326 -107 callgsubr
          endchar
        </CharString>
        <CharString name="uni1EB6">
          26 354 657 -99 callgsubr
          -14 -479 -104 callsubr
          -124 -271 -102 callgsubr
        </CharString>
        <CharString name="uni1EB7">
          4 328 -78 callsubr
          105 -377 -107 callgsubr
          2 -106 -102 callgsubr
        </CharString>
        <CharString name="uni1EB8">
          3 395 398 -103 callsubr
          -242 -438 -102 callgsubr
        </CharString>
        <CharString name="uni1EB9">
          -103 316 511 -107 callsubr
          -146 -489 -102 callgsubr
        </CharString>
        <CharString name="uni1EBA">
          3 332 670 -106 callgsubr
          63 -272 -103 callsubr
          endchar
        </CharString>
        <CharString name="uni1EBB">
          -103 256 549 -106 callgsubr
          60 -38 -107 callsubr
          endchar
        </CharString>
        <CharString name="uni1EBC">
          7 531 -5 callgsubr
          44 hhcurveto
          -38 callgsubr
          -134 -363 rmoveto
          -30 -66 rlineto
          -115 hlineto
          42 -50 callsubr
          -433 -70 callsubr
          79 -22 -95 -487 -87 -16 callgsubr
          453 hlineto
          -20 callsubr
          -48 12 callgsubr
          -183 hlineto
          42 216 rlineto
          112 hlineto
          7 -69 rlineto
          44 -29 callsubr
          endchar
        </CharString>
        <CharString name="uni1EBD">
          -107 469 690 rmoveto
          -40 48 callgsubr
          -76 38 -44 -18 callgsubr
          79 -38 43 hhcurveto
          34 25 44 56 23 hvcurveto
          -153 -179 -107 callsubr
          endchar
        </CharString>
        <CharString name="uni1EBE">
          3 473 689 rmoveto
          173 177 -6 20 rlineto
          -97 hlineto
          -101 -177 rlineto
          -9 -66 -97 callsubr
          65 -319 -103 callsubr
          endchar
        </CharString>
        <CharString name="uni1EBF">
          -103 436 621 rmoveto
          173 176 -7 20 rlineto
          -96 hlineto
          -102 -176 rlineto
          -26 -74 16 callgsubr
          -137 -107 callsubr
          endchar
        </CharString>
        <CharString name="uni1EC0">
          3 476 689 rmoveto
          34 13 -53 184 rlineto
          -74 hlineto
          -14 -17 rlineto
          64 -226 -97 callsubr
          65 -319 -103 callsubr
          endchar
        </CharString>
        <CharString name="uni1EC1">
          -103 432 620 rmoveto
          34 14 -53 183 rlineto
          -73 hlineto
          -15 -16 rlineto
          47 -234 -86 callgsubr
          30 -137 -107 callsubr
          endchar
        </CharString>
        <CharString name="uni1EC2">
          3 474 757 -106 callgsubr
          -12 -114 -97 callsubr
          36 -319 -103 callsubr
          endchar
        </CharString>
        <CharString name="uni1EC3">
          -103 398 689 -106 callgsubr
          -20 -122 16 callgsubr
          -137 -107 callsubr
          endchar
        </CharString>
        <CharString name="uni1EC4">
          3 553 903 -91 callsubr
          -91 -260 -97 callsubr
          36 -319 -103 callsubr
          endchar
        </CharString>
        <CharString name="uni1EC5">
          -103 477 782 -91 callsubr
          -91 -260 -97 callsubr
          33 -85 -107 callsubr
          endchar
        </CharString>
        <CharString name="uni1EC6">
          3 462 643 -97 callsubr
          36 -319 -103 callsubr
          -242 -438 -102 callgsubr
        </CharString>
        <CharString name="uni1EC7">
          -103 378 567 16 callgsubr
          -137 -107 callsubr
          -146 -489 -102 callgsubr
        </CharString>
        <CharString name="uni1EC8">
          -183 239 670 -106 callgsubr
          -251 -670 rmoveto
          -76 callsubr
          endchar
        </CharString>
        <CharString name="uni1EC9">
          -227 194 549 -106 callgsubr
          56 -60 -95 callsubr
          endchar
        </CharString>
        <CharString name="uni1ECA">
          -183 -12 hmoveto
          -76 callsubr
          109 -81 -102 callgsubr
        </CharString>
        <CharString name="uni1ECB">
          -228 -15 callgsubr
          27 -232 -46 callsubr
          -167 -529 -102 callgsubr
        </CharString>
        <CharString name="uni1ECC">
          98 264 -10 -106 callsubr
          -33 -91 -102 callgsubr
        </CharString>
        <CharString name="uni1ECD">
          -28 319 511 -105 callsubr
          -26 -90 -102 callgsubr
        </CharString>
        <CharString name="uni1ECE">
          98 379 670 -106 callgsubr
          -115 -680 -106 callsubr
          endchar
        </CharString>
        <CharString name="uni1ECF">
          -28 293 549 -106 callgsubr
          26 -38 -101 callgsubr
        </CharString>
        <CharString name="uni1ED0">
          98 520 689 rmoveto
          173 177 -6 20 rlineto
          -97 hlineto
          -101 -177 rlineto
          -9 -66 -97 callsubr
          -113 -727 -106 callsubr
          endchar
        </CharString>
        <CharString name="uni1ED1">
          -28 473 621 rmoveto
          173 176 -7 20 rlineto
          -96 hlineto
          -102 -176 rlineto
          -26 -74 -86 callgsubr
          -10 -80 callsubr
          endchar
        </CharString>
        <CharString name="uni1ED2">
          98 523 689 rmoveto
          34 13 -53 184 rlineto
          -74 hlineto
          -14 -17 rlineto
          64 -226 -97 callsubr
          -113 -727 -106 callsubr
          endchar
        </CharString>
        <CharString name="uni1ED3">
          -28 469 620 rmoveto
          34 14 -53 183 rlineto
          -73 hlineto
          -15 -16 rlineto
          47 -234 -86 callgsubr
          -4 -80 callsubr
          endchar
        </CharString>
        <CharString name="uni1ED4">
          98 521 757 -106 callgsubr
          -12 -114 -97 callsubr
          -142 -727 -106 callsubr
          endchar
        </CharString>
        <CharString name="uni1ED5">
          -28 435 689 -106 callgsubr
          -20 -122 -86 callgsubr
          -10 -80 callsubr
          endchar
        </CharString>
        <CharString name="uni1ED6">
          98 600 903 -91 callsubr
          -91 -260 -97 callsubr
          -142 -727 -106 callsubr
          endchar
        </CharString>
        <CharString name="uni1ED7">
          -28 514 782 -91 callsubr
          -91 -260 -97 callsubr
          -1 -85 -101 callgsubr
        </CharString>
        <CharString name="uni1ED8">
          98 509 643 -97 callsubr
          -142 -727 -106 callsubr
          -33 -91 -102 callgsubr
        </CharString>
        <CharString name="uni1ED9">
          -28 415 567 -86 callgsubr
          -10 -80 callsubr
          -26 -90 -102 callgsubr
        </CharString>
        <CharString name="uni1EDA">
          98 580 747 0 callgsubr
          342 hmoveto
          -93 callgsubr
        </CharString>
        <CharString name="uni1EDB">
          -28 458 677 0 callgsubr
          342 -38 -93 callsubr
        </CharString>
        <CharString name="uni1EDC">
          98 455 669 rmoveto
          -154 131 -89 -32 -3 -21 226 -107 rlineto
          264 hmoveto
          -93 callgsubr
        </CharString>
        <CharString name="uni1EDD">
          -28 414 31 callgsubr
          184 -38 -93 callsubr
        </CharString>
        <CharString name="uni1EDE">
          98 391 765 -68 callgsubr
          321 -97 rmoveto
          -93 callgsubr
        </CharString>
        <CharString name="uni1EDF">
          -28 306 644 -68 callgsubr
          284 -84 -93 callsubr
        </CharString>
        <CharString name="uni1EE0">
          98 323 698 -41 callgsubr
          376 -58 rmoveto
          -93 callgsubr
        </CharString>
        <CharString name="uni1EE1">
          -28 252 628 rmoveto
          19 callsubr
          -40 48 callgsubr
          -76 38 -44 -55 callsubr
          325 -96 -93 callsubr
        </CharString>
        <CharString name="uni1EE2">
          98 699 640 rmoveto
          -92 callgsubr
          -33 -91 -102 callgsubr
        </CharString>
        <CharString name="uni1EE3">
          -28 577 532 -52 callsubr
          -36 -20 -13 -30 -3 vhcurveto
          27 -25 -38 15 -53 hhcurveto
          -171 -118 -134 -235 -93 47 -59 103 -64 callgsubr
          25 -3 22 -7 20 hvcurveto
          63 14 53 37 55 vvcurveto
          -370 -482 rmoveto
          -47 -12 36 55 119 30 190 117 47 11 -36 -54 -134 -33 -176 -113 hvcurveto
          -26 -90 -102 callgsubr
        </CharString>
        <CharString name="uni1EE4">
          80 526 236 rmoveto
          61 315 -39 callgsubr
          -226 -105 callgsubr
          -291 -276 -102 callgsubr
        </CharString>
        <CharString name="uni1EE5">
          38 135 -9 -104 callgsubr
          79 -31 -102 callgsubr
        </CharString>
        <CharString name="uni1EE6">
          80 371 670 -106 callgsubr
          155 -434 rmoveto
          61 315 -39 callgsubr
          -226 -105 callgsubr
          endchar
        </CharString>
        <CharString name="uni1EE7">
          38 326 549 -106 callgsubr
          -191 -558 -104 callgsubr
          endchar
        </CharString>
        <CharString name="uni1EE8">
          80 572 747 0 callgsubr
          370 37 -52 callsubr
          -44 -29 -9 -41 vhcurveto
          -105 -105 callgsubr
          63 324 52 23 rlineto
          45 19 33 32 43 vvcurveto
          endchar
        </CharString>
        <CharString name="uni1EE9">
          38 490 677 0 callgsubr
          193 -366 -100 callsubr
          endchar
        </CharString>
        <CharString name="uni1EEA">
          80 447 669 rmoveto
          -154 131 -89 -32 -3 -21 226 -107 rlineto
          292 37 -52 callsubr
          -44 -29 -9 -41 vhcurveto
          -105 -105 callgsubr
          63 324 52 23 rlineto
          45 19 33 32 43 vvcurveto
          endchar
        </CharString>
        <CharString name="uni1EEB">
          38 446 31 callgsubr
          35 -366 -100 callsubr
          endchar
        </CharString>
        <CharString name="uni1EEC">
          80 383 765 -68 callgsubr
          349 -60 -52 callsubr
          -44 -29 -9 -41 vhcurveto
          -105 -105 callgsubr
          63 324 52 23 rlineto
          45 19 33 32 43 vvcurveto
          endchar
        </CharString>
        <CharString name="uni1EED">
          38 338 644 -68 callgsubr
          135 -412 -100 callsubr
          endchar
        </CharString>
        <CharString name="uni1EEE">
          80 315 698 -41 callgsubr
          404 -21 -52 callsubr
          -44 -29 -9 -41 vhcurveto
          -105 -105 callgsubr
          63 324 52 23 rlineto
          45 19 33 32 43 vvcurveto
          endchar
        </CharString>
        <CharString name="uni1EEF">
          38 284 628 rmoveto
          19 callsubr
          -40 48 callgsubr
          -76 38 -44 -55 callsubr
          176 -424 -100 callsubr
          endchar
        </CharString>
        <CharString name="uni1EF0">
          80 719 677 -52 callsubr
          -44 -29 -9 -41 vhcurveto
          -105 -105 callgsubr
          63 324 52 23 rlineto
          45 19 33 32 43 vvcurveto
          -484 -717 -102 callgsubr
        </CharString>
        <CharString name="uni1EF1">
          38 460 204 -100 callsubr
          -246 -244 -102 callgsubr
        </CharString>
        <CharString name="uni1EF4">
          -22 378 572 -69 callgsubr
          -202 -653 -102 callgsubr
        </CharString>
        <CharString name="uni1EF5">
          -67 64 -188 -82 callsubr
          223 -30 -102 callgsubr
        </CharString>
        <CharString name="uni1EF6">
          -22 320 670 -106 callgsubr
          58 -98 -69 callgsubr
          endchar
        </CharString>
        <CharString name="uni1EF7">
          -67 273 549 -106 callgsubr
          -209 -737 -82 callsubr
          endchar
        </CharString>
        <CharString name="uni1EF8">
          -16 526 -5 callgsubr
          43 hhcurveto
          34 26 46 55 23 hvcurveto
          -143 -189 -71 callgsubr
        </CharString>
        <CharString name="uni1EF8.loclGUA">
          130 503 660 rmoveto
          -38 callgsubr
          -40 17 rlineto
          0 -18 -33 -24 5 callsubr
          -270 -827 -100 callgsubr
        </CharString>
        <CharString name="uni1EF9">
          -61 348 590 rmoveto
          33 26 41 callsubr
          -40 -26 callsubr
          78 -38 44 hhcurveto
          -277 -778 -88 callgsubr
        </CharString>
        <CharString name="uni1EF9.loclGUA">
          14 430 590 rmoveto
          34 25 41 callsubr
          -40 -26 callsubr
          79 -38 43 hhcurveto
          -263 -760 -101 callsubr
        </CharString>
        <CharString name="uni2070">
          162 270 rmoveto
          126 95 116 189 107 -57 38 -76 -141 -82 -143 -160 -107 59 -40 76 hvcurveto
          16 80 rmoveto
          -39 -44 19 75 137 64 60 72 49 37 -23 -72 -150 -75 -46 -64 hvcurveto
          endchar
        </CharString>
        <CharString name="uni2074">
          195 277 rmoveto
          90 hlineto
          16 85 rlineto
          58 hlineto
          11 57 rlineto
          -58 hlineto
          57 289 -71 9 -294 -316 5 -39 rlineto
          202 hlineto
          -115 57 rmoveto
          160 172 -34 -172 rlineto
          endchar
        </CharString>
        <CharString name="uni2075">
          378 709 rmoveto
          -246 hlineto
          -54 -192 16 -20 rlineto
          97 54 -17 -59 -61 -51 -39 -65 -41 -25 9 9 -30 hvcurveto
          -16 -49 rlineto
          -15 38 36 -6 49 hhcurveto
          128 78 70 99 49 -31 58 -154 1 hvcurveto
          28 106 rlineto
          178 hlineto
          endchar
        </CharString>
        <CharString name="uni2076">
          157 269 rmoveto
          171 33 129 57 50 -31 46 34 callsubr
          33 91 65 44 52 13 14 5 17 3 14 2 -1 44 rcurveline
          -17 1 -18 -1 -17 -3 -96 -20 -125 -80 -34 -160 rrcurveto
          -4 -22 -3 -22 -23 vvcurveto
          -70 32 -51 8 callsubr
          1 17 3 18 hvcurveto
          29 24 39 25 33 hhcurveto
          30 9 -19 -28 -67 -31 -54 -59 hvcurveto
          endchar
        </CharString>
        <CharString name="uni2077">
          -152 141 261 rmoveto
          238 405 -13 43 rlineto
          -294 hlineto
          -9 -86 rlineto
          19 hlineto
          41 19 rlineto
          163 hlineto
          -233 -357 rlineto
          endchar
        </CharString>
        <CharString name="uni2078">
          -130 159 272 rmoveto
          112 68 59 77 40 -33 37 -45 27 hvcurveto
          85 33 24 45 48 vvcurveto
          45 -37 35 -83 -119 -45 -70 -61 -39 25 -30 31 -23 vhcurveto
          -63 -28 -49 -51 -61 vvcurveto
          -43 30 -40 99 vhcurveto
          64 264 rmoveto
          -29 16 -23 29 27 vvcurveto
          33 29 29 40 35 18 -18 -29 -39 -27 -26 -43 -22 vhcurveto
          -53 -217 rmoveto
          -30 -28 11 34 46 36 35 31 23 hvcurveto
          10 -6 rlineto
          29 -17 29 -22 -39 vvcurveto
          -43 -34 -22 -43 vhcurveto
          endchar
        </CharString>
        <CharString name="uni2079">
          53 278 rmoveto
          21 -5 23 -2 26 2 102 12 113 68 33 162 rrcurveto
          4 22 2 24 24 vvcurveto
          72 -30 61 10 callsubr
          5 15 33 vhcurveto
          -23 -82 -71 -46 -60 -9 -18 -3 -17 1 -18 3 47 callsubr
          21 41 56 30 49 40 callsubr
          -9 -19 hhcurveto
          endchar
        </CharString>
        <CharString name="uni207D">
          -261 195 165 rmoveto
          16 33 rlineto
          -48 23 -14 51 59 vvcurveto
          44 8 59 11 63 vhcurveto
          25 132 39 126 95 36 -5 33 rcurveline
          -140 -18 -61 -128 -35 -176 rrcurveto
          -14 -65 -7 -58 -48 vvcurveto
          -93 37 -55 93 -18 vhcurveto
          endchar
        </CharString>
        <CharString name="uni207E">
          -261 -10 165 rmoveto
          141 19 61 131 35 178 rrcurveto
          13 63 8 56 47 vvcurveto
          93 -37 55 -93 17 vhcurveto
          -17 -33 rlineto
          48 -22 14 -52 -59 vvcurveto
          -44 -7 -56 -11 -60 vhcurveto
          -24 -134 -41 -129 -94 -37 rrcurveto
          endchar
        </CharString>
        <CharString name="uni207F">
          -90 52 270 rmoveto
          99 10 43 248 rlineto
          34 30 48 25 23 hhcurveto
          12 3 -8 -10 -14 -12 -57 -13 -55 hvcurveto
          -13 -57 -12 -56 -14 vvcurveto
          -37 20 -9 32 28 42 8 12 28 vhcurveto
          36 -59 vlineto
          22 95 34 157 27 vvcurveto
          33 -12 16 -35 -36 -68 -26 -47 -53 vhcurveto
          3 14 6 30 7 vvcurveto
          12 -7 8 -13 -28 -64 -12 -15 -43 vhcurveto
          6 -28 52 -6 rlineto
          endchar
        </CharString>
        <CharString name="uni2080">
          163 -120 rmoveto
          104 81 75 148 27 hvcurveto
          5 28 2 28 27 vvcurveto
          106 -56 38 -75 -107 -81 -80 -139 -28 vhcurveto
          -5 -29 -3 -27 -27 61 callsubr
          -40 -43 19 75 18 1 18 3 18 hvcurveto
          118 19 65 25 48 hhcurveto
          49 37 -23 -72 -19 -1 -18 -4 -18 hvcurveto
          -112 -19 -62 -29 -53 hhcurveto
          endchar
        </CharString>
        <CharString name="uni2081">
          -134 90 253 rmoveto
          114 hlineto
          -70 -15 callsubr
          -31 rlineto
          endchar
        </CharString>
        <CharString name="uni2082">
          208 268 rmoveto
          42 18 -18 -30 -50 -41 -49 -48 -41 hvcurveto
          -175 -24 callsubr
        </CharString>
        <CharString name="uni2083">
          259 329 rmoveto
          -53 -61 -17 -23 -41 hvcurveto
          12 -45 rlineto
          21 40 36 7 26 hhcurveto
          38 15 -14 -26 -41 -42 -49 -87 -9 hvcurveto
          -2 -42 rlineto
          52 57 -7 -53 -69 -53 -28 -57 -22 -37 3 13 -38 hvcurveto
          -17 35 callsubr
          38 hhcurveto
          111 93 43 108 44 -27 34 -50 14 hvcurveto
          52 23 48 48 56 vvcurveto
          53 -49 25 -64 vhcurveto
          endchar
        </CharString>
        <CharString name="uni2084">
          195 -111 21 callsubr
          -294 -316 5 -38 rlineto
          202 hlineto
          -115 56 rmoveto
          163 177 -37 -177 rlineto
          endchar
        </CharString>
        <CharString name="uni2085">
          378 324 rmoveto
          -246 hlineto
          -54 -196 15 -21 rlineto
          98 53 -16 -58 -62 -51 -39 -64 -42 -25 9 8 -30 hvcurveto
          -16 -48 rlineto
          -15 39 36 -6 11 callsubr
        </CharString>
        <CharString name="uni2086">
          157 -120 rmoveto
          172 32 130 56 50 -31 46 34 callsubr
          33 91 66 45 51 13 15 5 16 3 14 1 -1 44 rcurveline
          -19 1 -21 -2 -21 -5 -95 -23 -121 -80 -31 -160 rrcurveto
          -4 -21 -2 -20 -20 vvcurveto
          -70 32 -51 8 callsubr
          1 17 3 18 hvcurveto
          29 24 40 25 33 hhcurveto
          29 9 -19 -28 -66 -30 -55 -60 hvcurveto
          endchar
        </CharString>
        <CharString name="uni2087">
          -152 138 -128 -9 callsubr
          23 hlineto
          27 19 rlineto
          175 hlineto
          -234 -357 rlineto
          endchar
        </CharString>
        <CharString name="uni2088">
          -130 159 -120 rmoveto
          111 69 59 77 40 -33 38 -45 26 hvcurveto
          85 34 24 44 49 vvcurveto
          45 -37 35 -83 -119 -45 -70 -62 -39 25 -30 31 -23 vhcurveto
          -64 -28 -48 -51 -61 vvcurveto
          -43 30 -40 99 vhcurveto
          64 264 rmoveto
          -29 16 -23 30 26 vvcurveto
          34 29 29 40 35 18 -18 -29 -39 -27 -26 -43 -23 vhcurveto
          -53 -217 rmoveto
          -30 -28 12 34 46 36 34 31 23 hvcurveto
          12 -6 rlineto
          27 -18 29 -22 -37 vvcurveto
          -44 -34 -22 -43 vhcurveto
          endchar
        </CharString>
        <CharString name="uni2089">
          53 -111 rmoveto
          25 -4 26 -1 30 3 98 15 108 67 30 157 rrcurveto
          5 23 2 24 23 vvcurveto
          72 -30 61 -98 -166 -27 -130 -42 -58 28 -49 83 29 31 5 15 33 vhcurveto
          -21 -78 -63 -43 -59 -13 -22 -4 -22 -1 -20 4 47 callsubr
          21 40 57 30 48 49 32 19 -19 -42 -21 -2 -31 -8 -29 hvcurveto
          -16 -23 -25 -8 -19 hhcurveto
          endchar
        </CharString>
        <CharString name="uni208D">
          -222 155 97 rmoveto
          21 107 29 144 107 44 -4 34 rcurveline
          -150 -41 -43 -78 -41 -210 rrcurveto
          -13 -68 -9 -54 -43 vvcurveto
          -93 36 -43 92 -29 vhcurveto
          16 33 rlineto
          -48 22 -14 51 60 vvcurveto
          53 11 60 10 51 vhcurveto
          endchar
        </CharString>
        <CharString name="uni208E">
          -223 164 97 rmoveto
          -22 -108 -28 -146 -108 -43 4 -33 rcurveline
          150 42 41 76 42 212 rrcurveto
          13 68 7 54 43 vvcurveto
          91 -34 46 -91 27 vhcurveto
          -17 -34 rlineto
          49 -23 14 -52 -60 vvcurveto
          -52 -11 -59 -9 -49 vhcurveto
          endchar
        </CharString>
        <CharString name="uni20B2">
          47 309 305 rmoveto
          -8 -41 77 -22 -32 -163 rlineto
          -10 -25 -26 -2 -19 hhcurveto
          -82 -31 62 91 162 55 162 142 31 37 -8 -6 21 hvcurveto
          6 -99 rlineto
          48 hlineto
          39 144 -33 15 -61 12 -55 2 rlinecurve
          18 94 rlineto
          -59 hlineto
          -18 -95 rlineto
          -203 -19 -95 -180 -180 vvcurveto
          -125 52 -76 122 -14 vhcurveto
          -18 -96 rlineto
          60 hlineto
          18 93 71 2 66 18 42 23 rlinecurve
          38 194 64 19 8 43 rlineto
          endchar
        </CharString>
        <CharString name="uni20BA">
          -26 77 357 rmoveto
          -10 -55 89 32 -11 -58 -90 -32 -11 -56 90 33 -31 -158 -86 -16 callgsubr
          160 hlineto
          216 81 153 156 21 hvcurveto
          -61 -16 rlineto
          -141 -19 -89 -85 -106 hhcurveto
          38 196 117 43 11 54 -118 -42 12 59 118 43 10 54 -117 -43 23 119 86 22 8 41 rlineto
          -272 -70 callsubr
          77 -22 -32 -161 rlineto
          endchar
        </CharString>
        <CharString name="uni20BD">
          -26 57 296 rmoveto
          -8 -45 rlineto
          81 hlineto
          -11 -51 rlineto
          -80 hlineto
          -10 -46 rlineto
          81 hlineto
          -17 -91 -86 -16 callgsubr
          289 hlineto
          8 42 -95 21 18 91 rlineto
          162 hlineto
          9 46 rlineto
          -162 hlineto
          10 51 rlineto
          55 hlineto
          104 143 61 164 91 -63 46 -110 hvcurveto
          -250 hlineto
          -9 -42 78 -22 -49 -253 rlineto
          109 hmoveto
          50 255 rlineto
          5 19 14 1 16 hhcurveto
          55 25 -29 -62 -118 -66 -52 -80 hvcurveto
          endchar
        </CharString>
        <CharString name="uni2113">
          -80 181 121 rmoveto
          18 4 23 5 28 vhcurveto
          3 15 rlineto
          122 72 143 115 147 vvcurveto
          61 -36 34 -76 -146 -48 -110 -140 -26 vhcurveto
          -33 -172 -25 -14 -24 -16 -25 -16 rlinecurve
          17 -47 13 6 15 8 15 8 rlinecurve
          -5 -23 rlineto
          -3 -16 -2 -15 -13 vvcurveto
          -56 33 -28 86 74 76 35 16 21 vhcurveto
          1 39 rlineto
          -1 -2 -67 -17 -47 hhcurveto
          -45 -18 16 43 hvcurveto
          54 301 rmoveto
          105 20 20 42 48 hhcurveto
          28 14 -12 -31 -99 -67 -75 -89 -65 hvcurveto
          endchar
        </CharString>
        <CharString name="uni2126">
          -47 callsubr
        </CharString>
        <CharString name="uni2153">
          355 272 -18 callsubr
          -75 hlineto
          -398 -97 rmoveto
          114 hlineto
          -71 -15 callsubr
          -32 rlineto
          634 -132 -66 callsubr
        </CharString>
        <CharString name="uni2154">
          433 358 -18 callsubr
          -76 hlineto
          -370 -83 -30 callsubr
          606 -110 -66 callsubr
        </CharString>
        <CharString name="uni2196">
          32 463 372 rmoveto
          -358 56 -12 -13 68 -349 49 -1 -17 210 202 -222 72 72 -223 206 219 -10 rlineto
          endchar
        </CharString>
        <CharString name="uni2197">
          32 403 67 rmoveto
          64 351 -11 12 -357 -58 -1 -51 219 12 -224 -205 72 -73 204 223 -16 -213 rlineto
          endchar
        </CharString>
        <CharString name="uni2198">
          32 317 160 rmoveto
          -219 11 1 -50 357 -59 11 11 -64 351 -50 2 16 -212 -204 223 -72 -72 rlineto
          endchar
        </CharString>
        <CharString name="uni2199">
          32 193 210 rmoveto
          17 211 -49 -1 -68 -349 12 -12 358 58 rlineto
          49 vlineto
          -219 -10 223 207 -72 71 rlineto
          endchar
        </CharString>
        <CharString name="uni2206">
          -3 callsubr
        </CharString>
        <CharString name="uni2215">
          -293 -36 -69 rmoveto
          75 hlineto
          235 724 rlineto
          -75 hlineto
          endchar
        </CharString>
        <CharString name="uni2219">
          -135 269 286 rmoveto
          42 -32 32 -43 -39 -35 -32 -42 -41 35 -32 39 43 32 32 41 vhcurveto
          endchar
        </CharString>
        <CharString name="uniA78B">
          -410 67 269 rmoveto
          132 320 -20 24 -88 -1 -66 -335 rlineto
          endchar
        </CharString>
        <CharString name="uniA78C">
          -386 88 347 rmoveto
          137 341 -20 24 -98 -22 -63 -335 rlineto
          endchar
        </CharString>
        <CharString name="uniF6E9">
          -114 352 428 rmoveto
          42 228 -44 9 -21 -22 rlineto
          0 -32 11 -41 -132 45 callsubr
          30 vhcurveto
          -8 -3 -15 -7 vvcurveto
          -24 10 -14 41 8 callgsubr
          28 128 88 13 13 -4 -6 11 hvcurveto
          -14 -71 -22 50 callsubr
        </CharString>
</ttFont>
